<svg width="1363" height="167" viewBox="0 0 1363 167" fill="none" xmlns="http://www.w3.org/2000/svg">
<rect width="1363" height="167" rx="15" fill="#F0F0F0"/>
<path d="M0 15C0 6.71573 6.71573 0 15 0H37V167H15C6.71573 167 0 160.284 0 152V15Z" fill="#424241"/>
<path d="M104.973 55.2578V58H95.8906V55.2578H104.973ZM97.0391 40.9375V58H93.5234V40.9375H97.0391ZM103.789 47.8867V50.5586H95.8906V47.8867H103.789ZM104.961 40.9375V43.6914H95.8906V40.9375H104.961ZM110.375 40V58H106.988V40H110.375ZM120.652 55.2344V40H124.051V58H120.992L120.652 55.2344ZM112.637 51.8125V51.5664C112.637 50.5977 112.746 49.7188 112.965 48.9297C113.184 48.1328 113.504 47.4492 113.926 46.8789C114.348 46.3086 114.867 45.8672 115.484 45.5547C116.102 45.2422 116.805 45.0859 117.594 45.0859C118.336 45.0859 118.984 45.2422 119.539 45.5547C120.102 45.8672 120.578 46.3125 120.969 46.8906C121.367 47.4609 121.688 48.1367 121.93 48.918C122.172 49.6914 122.348 50.5391 122.457 51.4609V52C122.348 52.8828 122.172 53.7031 121.93 54.4609C121.688 55.2188 121.367 55.8828 120.969 56.4531C120.578 57.0156 120.102 57.4531 119.539 57.7656C118.977 58.0781 118.32 58.2344 117.57 58.2344C116.781 58.2344 116.078 58.0742 115.461 57.7539C114.852 57.4336 114.336 56.9844 113.914 56.4062C113.5 55.8281 113.184 55.1484 112.965 54.3672C112.746 53.5859 112.637 52.7344 112.637 51.8125ZM116.012 51.5664V51.8125C116.012 52.3359 116.051 52.8242 116.129 53.2773C116.215 53.7305 116.352 54.1328 116.539 54.4844C116.734 54.8281 116.984 55.0977 117.289 55.293C117.602 55.4805 117.98 55.5742 118.426 55.5742C119.004 55.5742 119.48 55.4453 119.855 55.1875C120.23 54.9219 120.516 54.5586 120.711 54.0977C120.914 53.6367 121.031 53.1055 121.062 52.5039V50.9688C121.039 50.4766 120.969 50.0352 120.852 49.6445C120.742 49.2461 120.578 48.9062 120.359 48.625C120.148 48.3438 119.883 48.125 119.562 47.9688C119.25 47.8125 118.879 47.7344 118.449 47.7344C118.012 47.7344 117.637 47.8359 117.324 48.0391C117.012 48.2344 116.758 48.5039 116.562 48.8477C116.375 49.1914 116.234 49.5977 116.141 50.0664C116.055 50.5273 116.012 51.0273 116.012 51.5664ZM132.523 58.2344C131.539 58.2344 130.656 58.0781 129.875 57.7656C129.094 57.4453 128.43 57.0039 127.883 56.4414C127.344 55.8789 126.93 55.2266 126.641 54.4844C126.352 53.7344 126.207 52.9375 126.207 52.0938V51.625C126.207 50.6641 126.344 49.7852 126.617 48.9883C126.891 48.1914 127.281 47.5 127.789 46.9141C128.305 46.3281 128.93 45.8789 129.664 45.5664C130.398 45.2461 131.227 45.0859 132.148 45.0859C133.047 45.0859 133.844 45.2344 134.539 45.5312C135.234 45.8281 135.816 46.25 136.285 46.7969C136.762 47.3438 137.121 48 137.363 48.7656C137.605 49.5234 137.727 50.3672 137.727 51.2969V52.7031H127.648V50.4531H134.41V50.1953C134.41 49.7266 134.324 49.3086 134.152 48.9414C133.988 48.5664 133.738 48.2695 133.402 48.0508C133.066 47.832 132.637 47.7227 132.113 47.7227C131.668 47.7227 131.285 47.8203 130.965 48.0156C130.645 48.2109 130.383 48.4844 130.18 48.8359C129.984 49.1875 129.836 49.6016 129.734 50.0781C129.641 50.5469 129.594 51.0625 129.594 51.625V52.0938C129.594 52.6016 129.664 53.0703 129.805 53.5C129.953 53.9297 130.16 54.3008 130.426 54.6133C130.699 54.9258 131.027 55.168 131.41 55.3398C131.801 55.5117 132.242 55.5977 132.734 55.5977C133.344 55.5977 133.91 55.4805 134.434 55.2461C134.965 55.0039 135.422 54.6406 135.805 54.1562L137.445 55.9375C137.18 56.3203 136.816 56.6875 136.355 57.0391C135.902 57.3906 135.355 57.6797 134.715 57.9062C134.074 58.125 133.344 58.2344 132.523 58.2344ZM143.023 48.0859V58H139.648V45.3203H142.824L143.023 48.0859ZM146.844 45.2383L146.785 48.3672C146.621 48.3438 146.422 48.3242 146.188 48.3086C145.961 48.2852 145.754 48.2734 145.566 48.2734C145.09 48.2734 144.676 48.3359 144.324 48.4609C143.98 48.5781 143.691 48.7539 143.457 48.9883C143.23 49.2227 143.059 49.5078 142.941 49.8438C142.832 50.1797 142.77 50.5625 142.754 50.9922L142.074 50.7812C142.074 49.9609 142.156 49.207 142.32 48.5195C142.484 47.8242 142.723 47.2188 143.035 46.7031C143.355 46.1875 143.746 45.7891 144.207 45.5078C144.668 45.2266 145.195 45.0859 145.789 45.0859C145.977 45.0859 146.168 45.1016 146.363 45.1328C146.559 45.1562 146.719 45.1914 146.844 45.2383ZM152 40V58H148.613V40H152ZM158.551 56.5703L161.914 45.3203H165.535L160.438 59.9102C160.328 60.2305 160.18 60.5742 159.992 60.9414C159.812 61.3086 159.566 61.6562 159.254 61.9844C158.949 62.3203 158.562 62.5938 158.094 62.8047C157.633 63.0156 157.066 63.1211 156.395 63.1211C156.074 63.1211 155.812 63.1016 155.609 63.0625C155.406 63.0234 155.164 62.9688 154.883 62.8984V60.4258C154.969 60.4258 155.059 60.4258 155.152 60.4258C155.246 60.4336 155.336 60.4375 155.422 60.4375C155.867 60.4375 156.23 60.3867 156.512 60.2852C156.793 60.1836 157.02 60.0273 157.191 59.8164C157.363 59.6133 157.5 59.3477 157.602 59.0195L158.551 56.5703ZM157.145 45.3203L159.898 54.5078L160.379 58.082L158.082 58.3281L153.523 45.3203H157.145ZM182.961 52.3398H186.465C186.395 53.4883 186.078 54.5078 185.516 55.3984C184.961 56.2891 184.184 56.9844 183.184 57.4844C182.191 57.9844 180.996 58.2344 179.598 58.2344C178.504 58.2344 177.523 58.0469 176.656 57.6719C175.789 57.2891 175.047 56.7422 174.43 56.0312C173.82 55.3203 173.355 54.4609 173.035 53.4531C172.715 52.4453 172.555 51.3164 172.555 50.0664V48.8828C172.555 47.6328 172.719 46.5039 173.047 45.4961C173.383 44.4805 173.859 43.6172 174.477 42.9062C175.102 42.1953 175.848 41.6484 176.715 41.2656C177.582 40.8828 178.551 40.6914 179.621 40.6914C181.043 40.6914 182.242 40.9492 183.219 41.4648C184.203 41.9805 184.965 42.6914 185.504 43.5977C186.051 44.5039 186.379 45.5352 186.488 46.6914H182.973C182.934 46.0039 182.797 45.4219 182.562 44.9453C182.328 44.4609 181.973 44.0977 181.496 43.8555C181.027 43.6055 180.402 43.4805 179.621 43.4805C179.035 43.4805 178.523 43.5898 178.086 43.8086C177.648 44.0273 177.281 44.3594 176.984 44.8047C176.688 45.25 176.465 45.8125 176.316 46.4922C176.176 47.1641 176.105 47.9531 176.105 48.8594V50.0664C176.105 50.9492 176.172 51.7266 176.305 52.3984C176.438 53.0625 176.641 53.625 176.914 54.0859C177.195 54.5391 177.555 54.8828 177.992 55.1172C178.438 55.3438 178.973 55.457 179.598 55.457C180.332 55.457 180.938 55.3398 181.414 55.1055C181.891 54.8711 182.254 54.5234 182.504 54.0625C182.762 53.6016 182.914 53.0273 182.961 52.3398ZM188.023 51.7891V51.543C188.023 50.6133 188.156 49.7578 188.422 48.9766C188.688 48.1875 189.074 47.5039 189.582 46.9258C190.09 46.3477 190.715 45.8984 191.457 45.5781C192.199 45.25 193.051 45.0859 194.012 45.0859C194.973 45.0859 195.828 45.25 196.578 45.5781C197.328 45.8984 197.957 46.3477 198.465 46.9258C198.98 47.5039 199.371 48.1875 199.637 48.9766C199.902 49.7578 200.035 50.6133 200.035 51.543V51.7891C200.035 52.7109 199.902 53.5664 199.637 54.3555C199.371 55.1367 198.98 55.8203 198.465 56.4062C197.957 56.9844 197.332 57.4336 196.59 57.7539C195.848 58.0742 194.996 58.2344 194.035 58.2344C193.074 58.2344 192.219 58.0742 191.469 57.7539C190.727 57.4336 190.098 56.9844 189.582 56.4062C189.074 55.8203 188.688 55.1367 188.422 54.3555C188.156 53.5664 188.023 52.7109 188.023 51.7891ZM191.398 51.543V51.7891C191.398 52.3203 191.445 52.8164 191.539 53.2773C191.633 53.7383 191.781 54.1445 191.984 54.4961C192.195 54.8398 192.469 55.1094 192.805 55.3047C193.141 55.5 193.551 55.5977 194.035 55.5977C194.504 55.5977 194.906 55.5 195.242 55.3047C195.578 55.1094 195.848 54.8398 196.051 54.4961C196.254 54.1445 196.402 53.7383 196.496 53.2773C196.598 52.8164 196.648 52.3203 196.648 51.7891V51.543C196.648 51.0273 196.598 50.543 196.496 50.0898C196.402 49.6289 196.25 49.2227 196.039 48.8711C195.836 48.5117 195.566 48.2305 195.23 48.0273C194.895 47.8242 194.488 47.7227 194.012 47.7227C193.535 47.7227 193.129 47.8242 192.793 48.0273C192.465 48.2305 192.195 48.5117 191.984 48.8711C191.781 49.2227 191.633 49.6289 191.539 50.0898C191.445 50.543 191.398 51.0273 191.398 51.543ZM205.484 47.9453V58H202.098V45.3203H205.273L205.484 47.9453ZM205.016 51.2148H204.078C204.078 50.332 204.184 49.5195 204.395 48.7773C204.613 48.0273 204.93 47.3789 205.344 46.832C205.766 46.2773 206.285 45.8477 206.902 45.543C207.52 45.2383 208.234 45.0859 209.047 45.0859C209.609 45.0859 210.125 45.1719 210.594 45.3438C211.062 45.5078 211.465 45.7695 211.801 46.1289C212.145 46.4805 212.41 46.9414 212.598 47.5117C212.785 48.0742 212.879 48.75 212.879 49.5391V58H209.504V49.9141C209.504 49.3359 209.426 48.8906 209.27 48.5781C209.113 48.2656 208.891 48.0469 208.602 47.9219C208.32 47.7969 207.98 47.7344 207.582 47.7344C207.145 47.7344 206.762 47.8242 206.434 48.0039C206.113 48.1836 205.848 48.4336 205.637 48.7539C205.426 49.0664 205.27 49.4336 205.168 49.8555C205.066 50.2773 205.016 50.7305 205.016 51.2148ZM212.562 50.8281L211.355 50.9805C211.355 50.1523 211.457 49.3828 211.66 48.6719C211.871 47.9609 212.18 47.3359 212.586 46.7969C213 46.2578 213.512 45.8398 214.121 45.543C214.73 45.2383 215.434 45.0859 216.23 45.0859C216.84 45.0859 217.395 45.1758 217.895 45.3555C218.395 45.5273 218.82 45.8047 219.172 46.1875C219.531 46.5625 219.805 47.0547 219.992 47.6641C220.188 48.2734 220.285 49.0195 220.285 49.9023V58H216.898V49.9023C216.898 49.3164 216.82 48.8711 216.664 48.5664C216.516 48.2539 216.297 48.0391 216.008 47.9219C215.727 47.7969 215.391 47.7344 215 47.7344C214.594 47.7344 214.238 47.8164 213.934 47.9805C213.629 48.1367 213.375 48.3555 213.172 48.6367C212.969 48.918 212.816 49.2461 212.715 49.6211C212.613 49.9883 212.562 50.3906 212.562 50.8281ZM226.273 47.7578V62.875H222.898V45.3203H226.027L226.273 47.7578ZM234.301 51.5195V51.7656C234.301 52.6875 234.191 53.543 233.973 54.332C233.762 55.1211 233.449 55.8086 233.035 56.3945C232.621 56.9727 232.105 57.4258 231.488 57.7539C230.879 58.0742 230.176 58.2344 229.379 58.2344C228.605 58.2344 227.934 58.0781 227.363 57.7656C226.793 57.4531 226.312 57.0156 225.922 56.4531C225.539 55.8828 225.23 55.2227 224.996 54.4727C224.762 53.7227 224.582 52.918 224.457 52.0586V51.4141C224.582 50.4922 224.762 49.6484 224.996 48.8828C225.23 48.1094 225.539 47.4414 225.922 46.8789C226.312 46.3086 226.789 45.8672 227.352 45.5547C227.922 45.2422 228.59 45.0859 229.355 45.0859C230.16 45.0859 230.867 45.2383 231.477 45.543C232.094 45.8477 232.609 46.2852 233.023 46.8555C233.445 47.4258 233.762 48.1055 233.973 48.8945C234.191 49.6836 234.301 50.5586 234.301 51.5195ZM230.914 51.7656V51.5195C230.914 50.9805 230.867 50.4844 230.773 50.0312C230.688 49.5703 230.547 49.168 230.352 48.8242C230.164 48.4805 229.914 48.2148 229.602 48.0273C229.297 47.832 228.926 47.7344 228.488 47.7344C228.027 47.7344 227.633 47.8086 227.305 47.957C226.984 48.1055 226.723 48.3203 226.52 48.6016C226.316 48.8828 226.164 49.2188 226.062 49.6094C225.961 50 225.898 50.4414 225.875 50.9336V52.5625C225.914 53.1406 226.023 53.6602 226.203 54.1211C226.383 54.5742 226.66 54.9336 227.035 55.1992C227.41 55.4648 227.902 55.5977 228.512 55.5977C228.957 55.5977 229.332 55.5 229.637 55.3047C229.941 55.1016 230.188 54.8242 230.375 54.4727C230.57 54.1211 230.707 53.7148 230.785 53.2539C230.871 52.793 230.914 52.2969 230.914 51.7656ZM243.242 55.1406V49.4922C243.242 49.0859 243.176 48.7383 243.043 48.4492C242.91 48.1523 242.703 47.9219 242.422 47.7578C242.148 47.5938 241.793 47.5117 241.355 47.5117C240.98 47.5117 240.656 47.5781 240.383 47.7109C240.109 47.8359 239.898 48.0195 239.75 48.2617C239.602 48.4961 239.527 48.7734 239.527 49.0938H236.152C236.152 48.5547 236.277 48.043 236.527 47.5586C236.777 47.0742 237.141 46.6484 237.617 46.2812C238.094 45.9062 238.66 45.6133 239.316 45.4023C239.98 45.1914 240.723 45.0859 241.543 45.0859C242.527 45.0859 243.402 45.25 244.168 45.5781C244.934 45.9062 245.535 46.3984 245.973 47.0547C246.418 47.7109 246.641 48.5312 246.641 49.5156V54.9414C246.641 55.6367 246.684 56.207 246.77 56.6523C246.855 57.0898 246.98 57.4727 247.145 57.8008V58H243.734C243.57 57.6562 243.445 57.2266 243.359 56.7109C243.281 56.1875 243.242 55.6641 243.242 55.1406ZM243.688 50.2773L243.711 52.1875H241.824C241.379 52.1875 240.992 52.2383 240.664 52.3398C240.336 52.4414 240.066 52.5859 239.855 52.7734C239.645 52.9531 239.488 53.1641 239.387 53.4062C239.293 53.6484 239.246 53.9141 239.246 54.2031C239.246 54.4922 239.312 54.7539 239.445 54.9883C239.578 55.2148 239.77 55.3945 240.02 55.5273C240.27 55.6523 240.562 55.7148 240.898 55.7148C241.406 55.7148 241.848 55.6133 242.223 55.4102C242.598 55.207 242.887 54.957 243.09 54.6602C243.301 54.3633 243.41 54.082 243.418 53.8164L244.309 55.2461C244.184 55.5664 244.012 55.8984 243.793 56.2422C243.582 56.5859 243.312 56.9102 242.984 57.2148C242.656 57.5117 242.262 57.7578 241.801 57.9531C241.34 58.1406 240.793 58.2344 240.16 58.2344C239.355 58.2344 238.625 58.0742 237.969 57.7539C237.32 57.4258 236.805 56.9766 236.422 56.4062C236.047 55.8281 235.859 55.1719 235.859 54.4375C235.859 53.7734 235.984 53.1836 236.234 52.668C236.484 52.1523 236.852 51.7188 237.336 51.3672C237.828 51.0078 238.441 50.7383 239.176 50.5586C239.91 50.3711 240.762 50.2773 241.73 50.2773H243.688ZM252.547 48.0273V58H249.172V45.3203H252.336L252.547 48.0273ZM252.055 51.2148H251.141C251.141 50.2773 251.262 49.4336 251.504 48.6836C251.746 47.9258 252.086 47.2812 252.523 46.75C252.961 46.2109 253.48 45.8008 254.082 45.5195C254.691 45.2305 255.371 45.0859 256.121 45.0859C256.715 45.0859 257.258 45.1719 257.75 45.3438C258.242 45.5156 258.664 45.7891 259.016 46.1641C259.375 46.5391 259.648 47.0352 259.836 47.6523C260.031 48.2695 260.129 49.0234 260.129 49.9141V58H256.73V49.9023C256.73 49.3398 256.652 48.9023 256.496 48.5898C256.34 48.2773 256.109 48.0586 255.805 47.9336C255.508 47.8008 255.141 47.7344 254.703 47.7344C254.25 47.7344 253.855 47.8242 253.52 48.0039C253.191 48.1836 252.918 48.4336 252.699 48.7539C252.488 49.0664 252.328 49.4336 252.219 49.8555C252.109 50.2773 252.055 50.7305 252.055 51.2148ZM266.258 45.3203V58H262.871V45.3203H266.258ZM262.66 42.0156C262.66 41.5234 262.832 41.1172 263.176 40.7969C263.52 40.4766 263.98 40.3164 264.559 40.3164C265.129 40.3164 265.586 40.4766 265.93 40.7969C266.281 41.1172 266.457 41.5234 266.457 42.0156C266.457 42.5078 266.281 42.9141 265.93 43.2344C265.586 43.5547 265.129 43.7148 264.559 43.7148C263.98 43.7148 263.52 43.5547 263.176 43.2344C262.832 42.9141 262.66 42.5078 262.66 42.0156ZM268.508 51.7891V51.543C268.508 50.6133 268.641 49.7578 268.906 48.9766C269.172 48.1875 269.559 47.5039 270.066 46.9258C270.574 46.3477 271.199 45.8984 271.941 45.5781C272.684 45.25 273.535 45.0859 274.496 45.0859C275.457 45.0859 276.312 45.25 277.062 45.5781C277.812 45.8984 278.441 46.3477 278.949 46.9258C279.465 47.5039 279.855 48.1875 280.121 48.9766C280.387 49.7578 280.52 50.6133 280.52 51.543V51.7891C280.52 52.7109 280.387 53.5664 280.121 54.3555C279.855 55.1367 279.465 55.8203 278.949 56.4062C278.441 56.9844 277.816 57.4336 277.074 57.7539C276.332 58.0742 275.48 58.2344 274.52 58.2344C273.559 58.2344 272.703 58.0742 271.953 57.7539C271.211 57.4336 270.582 56.9844 270.066 56.4062C269.559 55.8203 269.172 55.1367 268.906 54.3555C268.641 53.5664 268.508 52.7109 268.508 51.7891ZM271.883 51.543V51.7891C271.883 52.3203 271.93 52.8164 272.023 53.2773C272.117 53.7383 272.266 54.1445 272.469 54.4961C272.68 54.8398 272.953 55.1094 273.289 55.3047C273.625 55.5 274.035 55.5977 274.52 55.5977C274.988 55.5977 275.391 55.5 275.727 55.3047C276.062 55.1094 276.332 54.8398 276.535 54.4961C276.738 54.1445 276.887 53.7383 276.98 53.2773C277.082 52.8164 277.133 52.3203 277.133 51.7891V51.543C277.133 51.0273 277.082 50.543 276.98 50.0898C276.887 49.6289 276.734 49.2227 276.523 48.8711C276.32 48.5117 276.051 48.2305 275.715 48.0273C275.379 47.8242 274.973 47.7227 274.496 47.7227C274.02 47.7227 273.613 47.8242 273.277 48.0273C272.949 48.2305 272.68 48.5117 272.469 48.8711C272.266 49.2227 272.117 49.6289 272.023 50.0898C271.93 50.543 271.883 51.0273 271.883 51.543ZM285.898 48.0273V58H282.523V45.3203H285.688L285.898 48.0273ZM285.406 51.2148H284.492C284.492 50.2773 284.613 49.4336 284.855 48.6836C285.098 47.9258 285.438 47.2812 285.875 46.75C286.312 46.2109 286.832 45.8008 287.434 45.5195C288.043 45.2305 288.723 45.0859 289.473 45.0859C290.066 45.0859 290.609 45.1719 291.102 45.3438C291.594 45.5156 292.016 45.7891 292.367 46.1641C292.727 46.5391 293 47.0352 293.188 47.6523C293.383 48.2695 293.48 49.0234 293.48 49.9141V58H290.082V49.9023C290.082 49.3398 290.004 48.9023 289.848 48.5898C289.691 48.2773 289.461 48.0586 289.156 47.9336C288.859 47.8008 288.492 47.7344 288.055 47.7344C287.602 47.7344 287.207 47.8242 286.871 48.0039C286.543 48.1836 286.27 48.4336 286.051 48.7539C285.84 49.0664 285.68 49.4336 285.57 49.8555C285.461 50.2773 285.406 50.7305 285.406 51.2148Z" fill="#888888"/>
<path d="M107.205 107.146H99.251V101.191H107.205C108.289 101.191 109.168 101.008 109.842 100.642C110.516 100.275 111.006 99.77 111.314 99.1255C111.636 98.4663 111.797 97.7266 111.797 96.9062C111.797 96.0273 111.636 95.2144 111.314 94.4673C111.006 93.7202 110.516 93.1196 109.842 92.6655C109.168 92.1968 108.289 91.9624 107.205 91.9624H102.151V118H94.439V86.0078H107.205C109.769 86.0078 111.973 86.4766 113.819 87.4141C115.679 88.3516 117.107 89.6406 118.104 91.2812C119.1 92.9072 119.598 94.7676 119.598 96.8623C119.598 98.9277 119.1 100.729 118.104 102.268C117.107 103.806 115.679 105.007 113.819 105.871C111.973 106.721 109.769 107.146 107.205 107.146ZM130.87 100.114V118H123.465V94.2256H130.386L130.87 100.114ZM137.901 94.0498L137.769 100.927C137.476 100.898 137.081 100.861 136.583 100.817C136.084 100.773 135.667 100.751 135.33 100.751C134.466 100.751 133.719 100.854 133.089 101.059C132.474 101.25 131.961 101.542 131.551 101.938C131.155 102.319 130.862 102.802 130.672 103.388C130.496 103.974 130.416 104.655 130.43 105.432L129.09 104.553C129.09 102.956 129.244 101.506 129.551 100.202C129.874 98.8838 130.328 97.7485 130.914 96.7964C131.5 95.8296 132.21 95.0898 133.045 94.5771C133.88 94.0498 134.817 93.7861 135.857 93.7861C136.224 93.7861 136.583 93.8081 136.934 93.8521C137.3 93.896 137.623 93.9619 137.901 94.0498ZM138.736 106.354V105.893C138.736 104.15 138.985 102.546 139.483 101.081C139.981 99.6016 140.713 98.3198 141.68 97.2358C142.647 96.1519 143.841 95.3096 145.262 94.709C146.683 94.0938 148.323 93.7861 150.184 93.7861C152.059 93.7861 153.707 94.0938 155.127 94.709C156.563 95.3096 157.764 96.1519 158.731 97.2358C159.698 98.3198 160.43 99.6016 160.928 101.081C161.426 102.546 161.675 104.15 161.675 105.893V106.354C161.675 108.083 161.426 109.687 160.928 111.167C160.43 112.631 159.698 113.913 158.731 115.012C157.764 116.096 156.57 116.938 155.149 117.539C153.729 118.139 152.088 118.439 150.228 118.439C148.367 118.439 146.719 118.139 145.284 117.539C143.848 116.938 142.647 116.096 141.68 115.012C140.713 113.913 139.981 112.631 139.483 111.167C138.985 109.687 138.736 108.083 138.736 106.354ZM146.141 105.893V106.354C146.141 107.248 146.207 108.083 146.338 108.859C146.47 109.636 146.69 110.317 146.998 110.903C147.305 111.474 147.723 111.921 148.25 112.243C148.777 112.565 149.437 112.727 150.228 112.727C151.004 112.727 151.648 112.565 152.161 112.243C152.688 111.921 153.106 111.474 153.414 110.903C153.721 110.317 153.941 109.636 154.073 108.859C154.205 108.083 154.271 107.248 154.271 106.354V105.893C154.271 105.029 154.205 104.216 154.073 103.454C153.941 102.678 153.721 101.997 153.414 101.411C153.106 100.81 152.688 100.341 152.161 100.004C151.634 99.6675 150.975 99.499 150.184 99.499C149.407 99.499 148.755 99.6675 148.228 100.004C147.715 100.341 147.305 100.81 146.998 101.411C146.69 101.997 146.47 102.678 146.338 103.454C146.207 104.216 146.141 105.029 146.141 105.893ZM165.521 94.2256H172.947V118.769C172.947 120.673 172.581 122.277 171.849 123.581C171.116 124.899 170.069 125.896 168.707 126.569C167.344 127.258 165.718 127.602 163.829 127.602C163.199 127.602 162.62 127.573 162.093 127.514C161.551 127.47 160.958 127.375 160.313 127.229V121.625C160.694 121.684 161.045 121.728 161.368 121.757C161.69 121.801 162.042 121.823 162.422 121.823C163.096 121.823 163.66 121.713 164.114 121.494C164.568 121.274 164.913 120.937 165.147 120.483C165.396 120.029 165.521 119.458 165.521 118.769V94.2256ZM164.971 88.0952C164.971 87.0405 165.352 86.1763 166.114 85.5024C166.875 84.8286 167.864 84.4917 169.08 84.4917C170.296 84.4917 171.285 84.8286 172.046 85.5024C172.808 86.1763 173.189 87.0405 173.189 88.0952C173.189 89.1499 172.808 90.0142 172.046 90.688C171.285 91.3618 170.296 91.6987 169.08 91.6987C167.864 91.6987 166.875 91.3618 166.114 90.688C165.352 90.0142 164.971 89.1499 164.971 88.0952ZM188.658 118.439C186.724 118.439 184.996 118.139 183.472 117.539C181.949 116.923 180.66 116.081 179.605 115.012C178.565 113.942 177.767 112.712 177.21 111.32C176.668 109.929 176.397 108.457 176.397 106.904V106.069C176.397 104.326 176.639 102.714 177.122 101.235C177.605 99.7407 178.323 98.437 179.275 97.3237C180.228 96.2104 181.421 95.3462 182.857 94.731C184.292 94.1011 185.962 93.7861 187.867 93.7861C189.551 93.7861 191.06 94.0571 192.393 94.5991C193.726 95.1411 194.854 95.9175 195.777 96.9282C196.714 97.939 197.425 99.1621 197.908 100.598C198.406 102.033 198.655 103.645 198.655 105.432V108.442H179.231V103.806H191.426V103.234C191.441 102.443 191.302 101.77 191.009 101.213C190.73 100.656 190.32 100.231 189.778 99.9385C189.236 99.6455 188.577 99.499 187.801 99.499C186.995 99.499 186.329 99.6748 185.801 100.026C185.289 100.378 184.886 100.861 184.593 101.477C184.314 102.077 184.117 102.773 184 103.564C183.882 104.355 183.824 105.19 183.824 106.069V106.904C183.824 107.783 183.941 108.581 184.175 109.299C184.424 110.017 184.776 110.632 185.23 111.145C185.699 111.643 186.255 112.031 186.9 112.309C187.559 112.587 188.306 112.727 189.141 112.727C190.152 112.727 191.148 112.536 192.129 112.155C193.111 111.774 193.953 111.145 194.656 110.266L198.018 114.265C197.535 114.953 196.846 115.62 195.953 116.264C195.074 116.909 194.019 117.436 192.789 117.846C191.558 118.242 190.181 118.439 188.658 118.439ZM211.707 112.727C212.396 112.727 212.981 112.602 213.465 112.353C213.963 112.089 214.336 111.723 214.585 111.254C214.849 110.771 214.974 110.192 214.959 109.519H221.924C221.939 111.306 221.5 112.873 220.606 114.221C219.727 115.554 218.526 116.594 217.002 117.341C215.494 118.073 213.787 118.439 211.883 118.439C210.022 118.439 208.396 118.139 207.005 117.539C205.613 116.923 204.449 116.074 203.511 114.99C202.588 113.891 201.893 112.609 201.424 111.145C200.97 109.68 200.743 108.09 200.743 106.376V105.871C200.743 104.157 200.97 102.568 201.424 101.103C201.893 99.6235 202.588 98.3418 203.511 97.2578C204.449 96.1592 205.606 95.3096 206.983 94.709C208.375 94.0938 209.993 93.7861 211.839 93.7861C213.816 93.7861 215.56 94.1597 217.068 94.9067C218.592 95.6538 219.786 96.7378 220.65 98.1587C221.514 99.5796 221.939 101.301 221.924 103.322H214.959C214.974 102.604 214.864 101.96 214.629 101.389C214.395 100.817 214.029 100.363 213.531 100.026C213.047 99.6748 212.425 99.499 211.663 99.499C210.901 99.499 210.286 99.6675 209.817 100.004C209.349 100.341 208.99 100.81 208.741 101.411C208.506 101.997 208.345 102.67 208.257 103.432C208.184 104.194 208.147 105.007 208.147 105.871V106.376C208.147 107.255 208.184 108.083 208.257 108.859C208.345 109.621 208.514 110.295 208.763 110.881C209.012 111.452 209.371 111.906 209.839 112.243C210.308 112.565 210.931 112.727 211.707 112.727ZM237.613 94.2256V99.3672H223.287V94.2256H237.613ZM226.297 88.3149H233.702V110.244C233.702 110.874 233.775 111.364 233.921 111.716C234.068 112.053 234.317 112.294 234.668 112.441C235.035 112.573 235.518 112.639 236.119 112.639C236.543 112.639 236.895 112.631 237.173 112.617C237.452 112.587 237.715 112.551 237.964 112.507V117.802C237.334 118.007 236.675 118.161 235.987 118.264C235.298 118.381 234.566 118.439 233.79 118.439C232.208 118.439 230.853 118.19 229.725 117.692C228.611 117.194 227.762 116.411 227.176 115.341C226.59 114.272 226.297 112.88 226.297 111.167V88.3149ZM264.881 107.146H256.927V101.191H264.881C265.965 101.191 266.844 101.008 267.518 100.642C268.191 100.275 268.682 99.77 268.99 99.1255C269.312 98.4663 269.473 97.7266 269.473 96.9062C269.473 96.0273 269.312 95.2144 268.99 94.4673C268.682 93.7202 268.191 93.1196 267.518 92.6655C266.844 92.1968 265.965 91.9624 264.881 91.9624H259.827V118H252.115V86.0078H264.881C267.444 86.0078 269.649 86.4766 271.495 87.4141C273.355 88.3516 274.783 89.6406 275.779 91.2812C276.775 92.9072 277.273 94.7676 277.273 96.8623C277.273 98.9277 276.775 100.729 275.779 102.268C274.783 103.806 273.355 105.007 271.495 105.871C269.649 106.721 267.444 107.146 264.881 107.146ZM288.326 84.25V118H280.921V84.25H288.326ZM287.447 105.3L285.711 105.344C285.711 103.674 285.916 102.136 286.326 100.729C286.736 99.3232 287.322 98.1001 288.084 97.0601C288.846 96.02 289.761 95.2144 290.831 94.6431C291.9 94.0718 293.086 93.7861 294.39 93.7861C295.562 93.7861 296.631 93.9546 297.598 94.2915C298.58 94.6284 299.422 95.1704 300.125 95.9175C300.843 96.6646 301.392 97.6387 301.773 98.8398C302.168 100.041 302.366 101.506 302.366 103.234V118H294.917V103.19C294.917 102.224 294.778 101.477 294.5 100.949C294.236 100.407 293.855 100.034 293.357 99.8286C292.859 99.6089 292.251 99.499 291.534 99.499C290.669 99.499 289.966 99.6455 289.424 99.9385C288.882 100.231 288.465 100.642 288.172 101.169C287.894 101.682 287.703 102.29 287.601 102.993C287.498 103.696 287.447 104.465 287.447 105.3ZM314.297 94.2256V118H306.871V94.2256H314.297ZM306.431 88.0952C306.431 87.0405 306.812 86.1763 307.574 85.5024C308.335 84.8286 309.324 84.4917 310.54 84.4917C311.756 84.4917 312.745 84.8286 313.506 85.5024C314.268 86.1763 314.649 87.0405 314.649 88.0952C314.649 89.1499 314.268 90.0142 313.506 90.688C312.745 91.3618 311.756 91.6987 310.54 91.6987C309.324 91.6987 308.335 91.3618 307.574 90.688C306.812 90.0142 306.431 89.1499 306.431 88.0952ZM326.69 84.25V118H319.263V84.25H326.69ZM330.337 106.354V105.893C330.337 104.15 330.586 102.546 331.084 101.081C331.583 99.6016 332.315 98.3198 333.282 97.2358C334.249 96.1519 335.442 95.3096 336.863 94.709C338.284 94.0938 339.925 93.7861 341.785 93.7861C343.66 93.7861 345.308 94.0938 346.729 94.709C348.165 95.3096 349.366 96.1519 350.333 97.2358C351.299 98.3198 352.032 99.6016 352.53 101.081C353.028 102.546 353.277 104.15 353.277 105.893V106.354C353.277 108.083 353.028 109.687 352.53 111.167C352.032 112.631 351.299 113.913 350.333 115.012C349.366 116.096 348.172 116.938 346.751 117.539C345.33 118.139 343.689 118.439 341.829 118.439C339.969 118.439 338.321 118.139 336.885 117.539C335.45 116.938 334.249 116.096 333.282 115.012C332.315 113.913 331.583 112.631 331.084 111.167C330.586 109.687 330.337 108.083 330.337 106.354ZM337.742 105.893V106.354C337.742 107.248 337.808 108.083 337.94 108.859C338.072 109.636 338.292 110.317 338.599 110.903C338.907 111.474 339.324 111.921 339.852 112.243C340.379 112.565 341.038 112.727 341.829 112.727C342.605 112.727 343.25 112.565 343.763 112.243C344.29 111.921 344.708 111.474 345.015 110.903C345.323 110.317 345.542 109.636 345.674 108.859C345.806 108.083 345.872 107.248 345.872 106.354V105.893C345.872 105.029 345.806 104.216 345.674 103.454C345.542 102.678 345.323 101.997 345.015 101.411C344.708 100.81 344.29 100.341 343.763 100.004C343.235 99.6675 342.576 99.499 341.785 99.499C341.009 99.499 340.357 99.6675 339.83 100.004C339.317 100.341 338.907 100.81 338.599 101.411C338.292 101.997 338.072 102.678 337.94 103.454C337.808 104.216 337.742 105.029 337.742 105.893ZM369.031 111.32C369.031 110.91 368.892 110.559 368.614 110.266C368.35 109.958 367.881 109.68 367.208 109.431C366.534 109.167 365.589 108.903 364.373 108.64C363.216 108.391 362.125 108.061 361.099 107.651C360.088 107.241 359.202 106.743 358.44 106.157C357.679 105.571 357.078 104.875 356.639 104.069C356.214 103.264 356.001 102.341 356.001 101.301C356.001 100.29 356.214 99.3379 356.639 98.4443C357.078 97.5361 357.715 96.7378 358.55 96.0493C359.4 95.3462 360.433 94.7969 361.648 94.4014C362.864 93.9912 364.249 93.7861 365.801 93.7861C367.94 93.7861 369.786 94.1157 371.338 94.7749C372.891 95.4194 374.085 96.3276 374.92 97.4995C375.77 98.6567 376.194 99.9971 376.194 101.521H368.79C368.79 100.92 368.687 100.407 368.482 99.9824C368.292 99.5576 367.977 99.2354 367.537 99.0156C367.098 98.7812 366.512 98.6641 365.779 98.6641C365.267 98.6641 364.798 98.7593 364.373 98.9497C363.963 99.1401 363.633 99.4038 363.384 99.7407C363.135 100.078 363.011 100.473 363.011 100.927C363.011 101.25 363.084 101.542 363.23 101.806C363.392 102.055 363.633 102.29 363.956 102.509C364.278 102.714 364.688 102.905 365.186 103.081C365.684 103.242 366.285 103.388 366.988 103.52C368.584 103.813 370.079 104.23 371.47 104.772C372.862 105.314 373.99 106.083 374.854 107.08C375.733 108.076 376.172 109.416 376.172 111.101C376.172 112.155 375.931 113.129 375.447 114.023C374.964 114.902 374.268 115.678 373.36 116.352C372.452 117.011 371.36 117.524 370.086 117.89C368.812 118.256 367.376 118.439 365.779 118.439C363.509 118.439 361.59 118.037 360.022 117.231C358.455 116.411 357.269 115.385 356.463 114.155C355.672 112.91 355.276 111.65 355.276 110.375H362.176C362.205 111.108 362.381 111.708 362.703 112.177C363.04 112.646 363.487 112.99 364.043 113.21C364.6 113.43 365.245 113.54 365.977 113.54C366.651 113.54 367.208 113.444 367.647 113.254C368.101 113.063 368.445 112.807 368.68 112.485C368.914 112.148 369.031 111.76 369.031 111.32ZM378.721 106.354V105.893C378.721 104.15 378.97 102.546 379.468 101.081C379.966 99.6016 380.699 98.3198 381.666 97.2358C382.632 96.1519 383.826 95.3096 385.247 94.709C386.668 94.0938 388.309 93.7861 390.169 93.7861C392.044 93.7861 393.692 94.0938 395.113 94.709C396.548 95.3096 397.75 96.1519 398.716 97.2358C399.683 98.3198 400.416 99.6016 400.914 101.081C401.412 102.546 401.661 104.15 401.661 105.893V106.354C401.661 108.083 401.412 109.687 400.914 111.167C400.416 112.631 399.683 113.913 398.716 115.012C397.75 116.096 396.556 116.938 395.135 117.539C393.714 118.139 392.073 118.439 390.213 118.439C388.353 118.439 386.705 118.139 385.269 117.539C383.833 116.938 382.632 116.096 381.666 115.012C380.699 113.913 379.966 112.631 379.468 111.167C378.97 109.687 378.721 108.083 378.721 106.354ZM386.126 105.893V106.354C386.126 107.248 386.192 108.083 386.324 108.859C386.456 109.636 386.675 110.317 386.983 110.903C387.291 111.474 387.708 111.921 388.235 112.243C388.763 112.565 389.422 112.727 390.213 112.727C390.989 112.727 391.634 112.565 392.146 112.243C392.674 111.921 393.091 111.474 393.399 110.903C393.707 110.317 393.926 109.636 394.058 108.859C394.19 108.083 394.256 107.248 394.256 106.354V105.893C394.256 105.029 394.19 104.216 394.058 103.454C393.926 102.678 393.707 101.997 393.399 101.411C393.091 100.81 392.674 100.341 392.146 100.004C391.619 99.6675 390.96 99.499 390.169 99.499C389.393 99.499 388.741 99.6675 388.213 100.004C387.701 100.341 387.291 100.81 386.983 101.411C386.675 101.997 386.456 102.678 386.324 103.454C386.192 104.216 386.126 105.029 386.126 105.893ZM412.427 98.7959V127.141H405.022V94.2256H411.922L412.427 98.7959ZM427.017 105.827V106.289C427.017 108.017 426.819 109.621 426.424 111.101C426.028 112.58 425.442 113.869 424.666 114.968C423.89 116.066 422.923 116.923 421.766 117.539C420.623 118.139 419.297 118.439 417.789 118.439C416.368 118.439 415.145 118.125 414.119 117.495C413.094 116.865 412.237 115.993 411.548 114.88C410.86 113.767 410.303 112.492 409.878 111.057C409.454 109.621 409.117 108.105 408.868 106.508V105.915C409.117 104.201 409.454 102.612 409.878 101.147C410.303 99.6675 410.86 98.3784 411.548 97.2798C412.237 96.1812 413.086 95.3242 414.097 94.709C415.123 94.0938 416.346 93.7861 417.767 93.7861C419.275 93.7861 420.601 94.0718 421.744 94.6431C422.901 95.2144 423.868 96.0347 424.644 97.104C425.435 98.1587 426.028 99.4258 426.424 100.905C426.819 102.385 427.017 104.025 427.017 105.827ZM419.612 106.289V105.827C419.612 104.904 419.546 104.062 419.415 103.3C419.283 102.524 419.07 101.85 418.777 101.279C418.499 100.708 418.125 100.268 417.657 99.9604C417.188 99.6528 416.609 99.499 415.921 99.499C415.13 99.499 414.463 99.6235 413.921 99.8726C413.394 100.107 412.969 100.473 412.647 100.971C412.339 101.455 412.12 102.062 411.988 102.795C411.871 103.513 411.819 104.355 411.834 105.322V107.124C411.805 108.237 411.915 109.218 412.164 110.068C412.413 110.903 412.845 111.555 413.46 112.023C414.075 112.492 414.91 112.727 415.965 112.727C416.668 112.727 417.254 112.565 417.723 112.243C418.191 111.906 418.565 111.445 418.843 110.859C419.122 110.258 419.319 109.57 419.437 108.793C419.554 108.017 419.612 107.182 419.612 106.289ZM437.564 84.25V118H430.159V84.25H437.564ZM436.685 105.3L434.949 105.344C434.949 103.674 435.154 102.136 435.564 100.729C435.975 99.3232 436.561 98.1001 437.322 97.0601C438.084 96.02 439 95.2144 440.069 94.6431C441.138 94.0718 442.325 93.7861 443.628 93.7861C444.8 93.7861 445.87 93.9546 446.836 94.2915C447.818 94.6284 448.66 95.1704 449.363 95.9175C450.081 96.6646 450.63 97.6387 451.011 98.8398C451.407 100.041 451.604 101.506 451.604 103.234V118H444.156V103.19C444.156 102.224 444.017 101.477 443.738 100.949C443.475 100.407 443.094 100.034 442.596 99.8286C442.098 99.6089 441.49 99.499 440.772 99.499C439.908 99.499 439.205 99.6455 438.663 99.9385C438.121 100.231 437.703 100.642 437.41 101.169C437.132 101.682 436.941 102.29 436.839 102.993C436.736 103.696 436.685 104.465 436.685 105.3ZM463.008 115.209L469.161 94.2256H477.115L467.557 121.538C467.352 122.138 467.081 122.783 466.744 123.471C466.407 124.174 465.945 124.841 465.359 125.471C464.773 126.101 464.019 126.613 463.096 127.009C462.188 127.404 461.06 127.602 459.712 127.602C458.995 127.602 458.467 127.565 458.13 127.492C457.808 127.434 457.31 127.324 456.636 127.163V121.867C456.827 121.867 456.988 121.867 457.12 121.867C457.266 121.867 457.427 121.867 457.603 121.867C458.394 121.867 459.024 121.787 459.493 121.625C459.976 121.464 460.342 121.23 460.591 120.922C460.855 120.615 461.06 120.241 461.207 119.802L463.008 115.209ZM461.448 94.2256L466.128 110.859L466.941 118.703H461.976L453.516 94.2256H461.448Z" fill="#424241"/>
<path d="M1363 15C1363 6.71573 1356.28 0 1348 0H1134V167H1348C1356.28 167 1363 160.284 1363 152V15Z" fill="#1A75BC"/>
<path d="M1234.26 106.286H1262.74V111.857H1234.26V106.286ZM1239.96 117.429H1257.04V123H1239.96V117.429ZM1248.5 45C1240.95 45 1233.71 47.9349 1228.37 53.1592C1223.03 58.3834 1220.03 65.469 1220.03 72.8571C1219.84 76.9057 1220.63 80.9412 1222.34 84.6315C1224.05 88.3219 1226.64 91.5616 1229.88 94.0843C1232.73 96.675 1234.26 98.1514 1234.26 100.714H1239.96C1239.96 95.5886 1236.8 92.7193 1233.72 89.9614C1231.06 87.9676 1228.94 85.3658 1227.55 82.3838C1226.15 79.4019 1225.53 76.1308 1225.72 72.8571C1225.72 66.9466 1228.12 61.2781 1232.39 57.0988C1236.67 52.9194 1242.46 50.5714 1248.5 50.5714C1254.54 50.5714 1260.33 52.9194 1264.61 57.0988C1268.88 61.2781 1271.28 66.9466 1271.28 72.8571C1271.47 76.1333 1270.84 79.4059 1269.44 82.388C1268.04 85.3701 1265.92 87.9706 1263.25 89.9614C1260.2 92.7471 1257.04 95.5329 1257.04 100.714H1262.74C1262.74 98.1514 1264.25 96.675 1267.12 94.0564C1270.36 91.5381 1272.94 88.3031 1274.66 84.6176C1276.37 80.9321 1277.16 76.9014 1276.97 72.8571C1276.97 69.1989 1276.24 65.5765 1274.81 62.1967C1273.37 58.8169 1271.28 55.7459 1268.63 53.1592C1265.99 50.5724 1262.85 48.5205 1259.4 47.1205C1255.94 45.7205 1252.24 45 1248.5 45Z" fill="white"/>
</svg>
