<svg width="1363" height="301" viewBox="0 0 1363 301" fill="none" xmlns="http://www.w3.org/2000/svg">
<rect width="1363" height="301" rx="15" fill="#F0F0F0"/>
<path d="M0 15C0 6.71573 6.71573 0 15 0H37V301H15C6.71573 301 0 294.284 0 286V15Z" fill="#1A75BC"/>
<path d="M121.89 136.749V144H101.05V136.749H121.89ZM104.407 104.898V144H94.981V104.898H104.407ZM119.205 120.421V127.43H101.05V120.421H119.205ZM121.971 104.898V112.176H101.05V104.898H121.971ZM134.888 102.75V144H125.811V102.75H134.888ZM157.178 137.34V102.75H166.282V144H158.118L157.178 137.34ZM139.346 129.82V129.256C139.346 127.054 139.588 125.049 140.071 123.241C140.555 121.415 141.271 119.848 142.22 118.541C143.169 117.216 144.35 116.196 145.765 115.479C147.179 114.763 148.808 114.405 150.652 114.405C152.299 114.405 153.741 114.79 154.976 115.56C156.211 116.312 157.268 117.368 158.145 118.729C159.022 120.09 159.738 121.683 160.293 123.509C160.848 125.318 161.269 127.269 161.556 129.364V130.035C161.269 132.005 160.848 133.867 160.293 135.621C159.738 137.358 159.022 138.897 158.145 140.24C157.268 141.583 156.202 142.639 154.949 143.409C153.714 144.161 152.264 144.537 150.599 144.537C148.755 144.537 147.125 144.17 145.711 143.436C144.314 142.702 143.142 141.673 142.193 140.348C141.262 139.023 140.555 137.465 140.071 135.675C139.588 133.884 139.346 131.933 139.346 129.82ZM148.396 129.256V129.82C148.396 130.912 148.468 131.924 148.611 132.855C148.755 133.786 148.996 134.61 149.336 135.326C149.694 136.024 150.16 136.57 150.733 136.964C151.324 137.358 152.049 137.555 152.908 137.555C154.072 137.555 155.03 137.277 155.782 136.722C156.552 136.167 157.116 135.379 157.474 134.359C157.85 133.338 158.011 132.139 157.957 130.76V128.639C157.993 127.457 157.912 126.419 157.715 125.523C157.518 124.61 157.205 123.849 156.775 123.241C156.364 122.632 155.835 122.175 155.191 121.871C154.564 121.549 153.821 121.388 152.962 121.388C152.12 121.388 151.404 121.585 150.813 121.979C150.241 122.372 149.775 122.927 149.417 123.644C149.059 124.342 148.799 125.174 148.638 126.141C148.477 127.09 148.396 128.128 148.396 129.256ZM185.484 144.537C183.121 144.537 181.008 144.17 179.146 143.436C177.284 142.684 175.708 141.655 174.419 140.348C173.148 139.041 172.173 137.537 171.492 135.836C170.83 134.135 170.499 132.336 170.499 130.438V129.417C170.499 127.287 170.794 125.318 171.385 123.509C171.976 121.683 172.853 120.09 174.017 118.729C175.18 117.368 176.639 116.312 178.394 115.56C180.149 114.79 182.19 114.405 184.517 114.405C186.576 114.405 188.42 114.736 190.049 115.399C191.679 116.061 193.057 117.01 194.185 118.246C195.331 119.481 196.199 120.976 196.79 122.73C197.399 124.485 197.703 126.454 197.703 128.639V132.318H173.963V126.651H188.868V125.953C188.886 124.986 188.715 124.163 188.357 123.482C188.017 122.802 187.516 122.283 186.854 121.925C186.191 121.567 185.385 121.388 184.437 121.388C183.452 121.388 182.637 121.603 181.993 122.032C181.366 122.462 180.874 123.053 180.516 123.805C180.175 124.539 179.934 125.389 179.791 126.356C179.647 127.323 179.576 128.343 179.576 129.417V130.438C179.576 131.512 179.719 132.488 180.005 133.365C180.31 134.243 180.739 134.994 181.294 135.621C181.867 136.23 182.548 136.704 183.335 137.044C184.141 137.385 185.054 137.555 186.075 137.555C187.31 137.555 188.528 137.322 189.727 136.856C190.927 136.391 191.956 135.621 192.815 134.547L196.924 139.435C196.333 140.276 195.492 141.091 194.4 141.878C193.326 142.666 192.037 143.311 190.533 143.812C189.029 144.295 187.346 144.537 185.484 144.537ZM210.513 122.14V144H201.463V114.942H209.922L210.513 122.14ZM219.107 114.728L218.946 123.133C218.588 123.097 218.104 123.053 217.496 122.999C216.887 122.945 216.377 122.918 215.965 122.918C214.909 122.918 213.995 123.044 213.226 123.294C212.474 123.527 211.847 123.885 211.346 124.369C210.862 124.834 210.504 125.425 210.271 126.141C210.057 126.857 209.958 127.69 209.976 128.639L208.338 127.564C208.338 125.613 208.526 123.84 208.902 122.247C209.296 120.636 209.851 119.248 210.567 118.084C211.283 116.903 212.151 115.999 213.172 115.372C214.192 114.728 215.338 114.405 216.609 114.405C217.057 114.405 217.496 114.432 217.925 114.486C218.373 114.54 218.767 114.62 219.107 114.728ZM231.783 102.75V144H222.706V102.75H231.783ZM246.285 140.589L253.804 114.942H263.526L251.844 148.324C251.593 149.058 251.262 149.846 250.85 150.687C250.438 151.546 249.874 152.361 249.158 153.131C248.442 153.901 247.52 154.527 246.392 155.011C245.282 155.494 243.903 155.736 242.256 155.736C241.379 155.736 240.735 155.691 240.323 155.602C239.929 155.53 239.32 155.396 238.497 155.199V148.727C238.729 148.727 238.926 148.727 239.087 148.727C239.266 148.727 239.463 148.727 239.678 148.727C240.645 148.727 241.415 148.628 241.988 148.431C242.579 148.234 243.026 147.948 243.331 147.572C243.653 147.196 243.903 146.739 244.083 146.202L246.285 140.589ZM244.378 114.942L250.098 135.272L251.092 144.859H245.022L234.683 114.942H244.378ZM302.251 130.76H311.651C311.526 133.482 310.792 135.881 309.449 137.958C308.106 140.034 306.244 141.655 303.863 142.818C301.5 143.964 298.707 144.537 295.484 144.537C292.87 144.537 290.534 144.098 288.475 143.221C286.434 142.344 284.697 141.082 283.265 139.435C281.85 137.787 280.767 135.791 280.015 133.446C279.281 131.1 278.914 128.46 278.914 125.523V123.402C278.914 120.466 279.299 117.825 280.069 115.479C280.857 113.116 281.967 111.111 283.399 109.464C284.849 107.799 286.586 106.528 288.609 105.65C290.632 104.773 292.879 104.334 295.35 104.334C298.751 104.334 301.625 104.943 303.97 106.161C306.316 107.378 308.133 109.052 309.422 111.183C310.711 113.295 311.472 115.703 311.705 118.407H302.305C302.269 116.939 302.019 115.712 301.553 114.728C301.088 113.725 300.354 112.973 299.351 112.472C298.348 111.97 297.015 111.72 295.35 111.72C294.186 111.72 293.174 111.935 292.315 112.364C291.456 112.794 290.739 113.474 290.167 114.405C289.594 115.336 289.164 116.545 288.877 118.031C288.609 119.499 288.475 121.271 288.475 123.348V125.523C288.475 127.6 288.6 129.373 288.851 130.841C289.101 132.309 289.504 133.508 290.059 134.439C290.614 135.37 291.33 136.06 292.208 136.507C293.103 136.937 294.195 137.152 295.484 137.152C296.916 137.152 298.125 136.928 299.109 136.48C300.094 136.015 300.855 135.317 301.392 134.386C301.929 133.437 302.216 132.228 302.251 130.76ZM314.551 129.767V129.203C314.551 127.072 314.856 125.112 315.464 123.321C316.073 121.513 316.968 119.946 318.15 118.622C319.332 117.297 320.791 116.267 322.527 115.533C324.264 114.781 326.269 114.405 328.543 114.405C330.835 114.405 332.849 114.781 334.585 115.533C336.34 116.267 337.808 117.297 338.99 118.622C340.171 119.946 341.067 121.513 341.675 123.321C342.284 125.112 342.588 127.072 342.588 129.203V129.767C342.588 131.879 342.284 133.84 341.675 135.648C341.067 137.438 340.171 139.005 338.99 140.348C337.808 141.673 336.349 142.702 334.612 143.436C332.876 144.17 330.87 144.537 328.597 144.537C326.323 144.537 324.309 144.17 322.554 143.436C320.8 142.702 319.332 141.673 318.15 140.348C316.968 139.005 316.073 137.438 315.464 135.648C314.856 133.84 314.551 131.879 314.551 129.767ZM323.602 129.203V129.767C323.602 130.859 323.682 131.879 323.843 132.828C324.004 133.777 324.273 134.61 324.649 135.326C325.025 136.024 325.535 136.57 326.18 136.964C326.824 137.358 327.63 137.555 328.597 137.555C329.546 137.555 330.333 137.358 330.96 136.964C331.604 136.57 332.115 136.024 332.491 135.326C332.867 134.61 333.135 133.777 333.296 132.828C333.458 131.879 333.538 130.859 333.538 129.767V129.203C333.538 128.146 333.458 127.153 333.296 126.222C333.135 125.273 332.867 124.44 332.491 123.724C332.115 122.99 331.604 122.417 330.96 122.005C330.315 121.594 329.51 121.388 328.543 121.388C327.594 121.388 326.797 121.594 326.153 122.005C325.526 122.417 325.025 122.99 324.649 123.724C324.273 124.44 324.004 125.273 323.843 126.222C323.682 127.153 323.602 128.146 323.602 129.203ZM355.748 121.092V144H346.697V114.942H355.184L355.748 121.092ZM354.646 128.478L352.579 128.531C352.579 126.49 352.82 124.61 353.304 122.892C353.787 121.173 354.503 119.678 355.452 118.407C356.401 117.136 357.565 116.151 358.943 115.453C360.34 114.754 361.951 114.405 363.777 114.405C365.049 114.405 366.203 114.602 367.242 114.996C368.28 115.372 369.175 115.972 369.927 116.795C370.679 117.601 371.252 118.657 371.646 119.964C372.058 121.253 372.264 122.802 372.264 124.61V144H363.213V125.765C363.213 124.53 363.07 123.599 362.784 122.972C362.515 122.346 362.121 121.925 361.602 121.71C361.083 121.495 360.447 121.388 359.695 121.388C358.908 121.388 358.2 121.567 357.574 121.925C356.947 122.283 356.41 122.784 355.962 123.429C355.533 124.055 355.201 124.798 354.969 125.658C354.754 126.517 354.646 127.457 354.646 128.478ZM371.243 128.478L368.719 128.531C368.719 126.49 368.943 124.61 369.39 122.892C369.856 121.173 370.545 119.678 371.458 118.407C372.389 117.136 373.544 116.151 374.922 115.453C376.301 114.754 377.903 114.405 379.729 114.405C381.054 114.405 382.272 114.602 383.382 114.996C384.492 115.39 385.45 116.026 386.255 116.903C387.061 117.78 387.688 118.944 388.135 120.394C388.583 121.826 388.807 123.599 388.807 125.711V144H379.729V125.711C379.729 124.512 379.586 123.608 379.3 122.999C379.031 122.372 378.637 121.952 378.118 121.737C377.599 121.504 376.981 121.388 376.265 121.388C375.406 121.388 374.663 121.567 374.036 121.925C373.41 122.283 372.881 122.784 372.452 123.429C372.04 124.055 371.736 124.798 371.539 125.658C371.342 126.517 371.243 127.457 371.243 128.478ZM403.121 120.528V155.172H394.07V114.942H402.503L403.121 120.528ZM420.953 129.122V129.686C420.953 131.799 420.711 133.759 420.228 135.567C419.744 137.376 419.028 138.951 418.079 140.294C417.13 141.637 415.949 142.684 414.534 143.436C413.138 144.17 411.517 144.537 409.673 144.537C407.937 144.537 406.442 144.152 405.188 143.382C403.935 142.612 402.888 141.547 402.046 140.187C401.205 138.826 400.525 137.268 400.005 135.514C399.486 133.759 399.074 131.906 398.77 129.955V129.229C399.074 127.135 399.486 125.192 400.005 123.402C400.525 121.594 401.205 120.018 402.046 118.675C402.888 117.333 403.926 116.285 405.162 115.533C406.415 114.781 407.91 114.405 409.646 114.405C411.491 114.405 413.111 114.754 414.507 115.453C415.922 116.151 417.103 117.153 418.052 118.46C419.019 119.75 419.744 121.298 420.228 123.106C420.711 124.915 420.953 126.92 420.953 129.122ZM411.902 129.686V129.122C411.902 127.994 411.822 126.965 411.661 126.034C411.5 125.085 411.24 124.261 410.882 123.563C410.542 122.865 410.085 122.328 409.512 121.952C408.939 121.576 408.232 121.388 407.391 121.388C406.424 121.388 405.609 121.54 404.947 121.844C404.302 122.131 403.783 122.578 403.389 123.187C403.013 123.778 402.745 124.521 402.583 125.416C402.44 126.293 402.378 127.323 402.396 128.504V130.707C402.36 132.067 402.494 133.267 402.798 134.305C403.103 135.326 403.631 136.122 404.383 136.695C405.135 137.268 406.155 137.555 407.444 137.555C408.304 137.555 409.02 137.358 409.593 136.964C410.166 136.552 410.622 135.988 410.962 135.272C411.303 134.538 411.544 133.696 411.688 132.748C411.831 131.799 411.902 130.778 411.902 129.686ZM440.074 136.695V124.718C440.074 123.894 439.957 123.187 439.725 122.596C439.492 122.005 439.125 121.549 438.624 121.227C438.122 120.886 437.451 120.716 436.609 120.716C435.929 120.716 435.347 120.833 434.864 121.065C434.38 121.298 434.013 121.647 433.763 122.113C433.512 122.578 433.387 123.169 433.387 123.885H424.336C424.336 122.542 424.632 121.298 425.223 120.152C425.831 118.989 426.691 117.977 427.801 117.118C428.929 116.258 430.271 115.596 431.829 115.13C433.405 114.647 435.159 114.405 437.093 114.405C439.402 114.405 441.461 114.79 443.27 115.56C445.096 116.33 446.537 117.485 447.593 119.024C448.65 120.546 449.178 122.462 449.178 124.771V136.668C449.178 138.566 449.285 140.007 449.5 140.992C449.715 141.959 450.019 142.809 450.413 143.543V144H441.336C440.906 143.105 440.584 142.013 440.369 140.724C440.172 139.417 440.074 138.074 440.074 136.695ZM441.175 126.249L441.229 131.083H437.227C436.386 131.083 435.669 131.199 435.079 131.432C434.506 131.664 434.04 131.987 433.682 132.398C433.342 132.792 433.091 133.24 432.93 133.741C432.787 134.243 432.715 134.771 432.715 135.326C432.715 135.863 432.841 136.346 433.091 136.776C433.36 137.188 433.718 137.51 434.166 137.743C434.613 137.975 435.114 138.092 435.669 138.092C436.672 138.092 437.522 137.904 438.221 137.528C438.937 137.134 439.483 136.66 439.859 136.104C440.235 135.549 440.423 135.03 440.423 134.547L442.41 138.253C442.052 138.969 441.64 139.694 441.175 140.428C440.727 141.162 440.163 141.843 439.483 142.469C438.82 143.078 438.006 143.579 437.039 143.973C436.072 144.349 434.9 144.537 433.521 144.537C431.731 144.537 430.083 144.17 428.58 143.436C427.094 142.702 425.903 141.681 425.008 140.375C424.113 139.05 423.665 137.528 423.665 135.809C423.665 134.305 423.934 132.962 424.471 131.781C425.026 130.599 425.858 129.597 426.968 128.773C428.078 127.949 429.493 127.323 431.211 126.893C432.93 126.463 434.953 126.249 437.281 126.249H441.175ZM463.089 121.146V144H454.039V114.942H462.525L463.089 121.146ZM462.015 128.478L459.893 128.531C459.893 126.311 460.162 124.333 460.699 122.596C461.236 120.842 461.997 119.356 462.981 118.138C463.966 116.921 465.139 115.999 466.5 115.372C467.878 114.728 469.409 114.405 471.092 114.405C472.435 114.405 473.661 114.602 474.771 114.996C475.899 115.39 476.866 116.026 477.671 116.903C478.495 117.78 479.122 118.944 479.551 120.394C479.999 121.826 480.223 123.599 480.223 125.711V144H471.119V125.685C471.119 124.521 470.958 123.635 470.635 123.026C470.313 122.399 469.847 121.97 469.239 121.737C468.63 121.504 467.887 121.388 467.01 121.388C466.079 121.388 465.291 121.567 464.646 121.925C464.002 122.283 463.483 122.784 463.089 123.429C462.713 124.055 462.435 124.798 462.256 125.658C462.095 126.517 462.015 127.457 462.015 128.478ZM494.805 114.942V144H485.728V114.942H494.805ZM485.191 107.45C485.191 106.161 485.656 105.104 486.587 104.281C487.518 103.457 488.727 103.045 490.213 103.045C491.699 103.045 492.907 103.457 493.838 104.281C494.769 105.104 495.235 106.161 495.235 107.45C495.235 108.739 494.769 109.795 493.838 110.619C492.907 111.442 491.699 111.854 490.213 111.854C488.727 111.854 487.518 111.442 486.587 110.619C485.656 109.795 485.191 108.739 485.191 107.45ZM499.263 129.767V129.203C499.263 127.072 499.568 125.112 500.176 123.321C500.785 121.513 501.68 119.946 502.862 118.622C504.043 117.297 505.503 116.267 507.239 115.533C508.976 114.781 510.981 114.405 513.255 114.405C515.547 114.405 517.561 114.781 519.297 115.533C521.052 116.267 522.52 117.297 523.702 118.622C524.883 119.946 525.778 121.513 526.387 123.321C526.996 125.112 527.3 127.072 527.3 129.203V129.767C527.3 131.879 526.996 133.84 526.387 135.648C525.778 137.438 524.883 139.005 523.702 140.348C522.52 141.673 521.061 142.702 519.324 143.436C517.588 144.17 515.582 144.537 513.309 144.537C511.035 144.537 509.021 144.17 507.266 143.436C505.512 142.702 504.043 141.673 502.862 140.348C501.68 139.005 500.785 137.438 500.176 135.648C499.568 133.84 499.263 131.879 499.263 129.767ZM508.313 129.203V129.767C508.313 130.859 508.394 131.879 508.555 132.828C508.716 133.777 508.985 134.61 509.361 135.326C509.737 136.024 510.247 136.57 510.892 136.964C511.536 137.358 512.342 137.555 513.309 137.555C514.257 137.555 515.045 137.358 515.672 136.964C516.316 136.57 516.827 136.024 517.203 135.326C517.579 134.61 517.847 133.777 518.008 132.828C518.169 131.879 518.25 130.859 518.25 129.767V129.203C518.25 128.146 518.169 127.153 518.008 126.222C517.847 125.273 517.579 124.44 517.203 123.724C516.827 122.99 516.316 122.417 515.672 122.005C515.027 121.594 514.222 121.388 513.255 121.388C512.306 121.388 511.509 121.594 510.865 122.005C510.238 122.417 509.737 122.99 509.361 123.724C508.985 124.44 508.716 125.273 508.555 126.222C508.394 127.153 508.313 128.146 508.313 129.203ZM540.218 121.146V144H531.167V114.942H539.654L540.218 121.146ZM539.144 128.478L537.022 128.531C537.022 126.311 537.291 124.333 537.828 122.596C538.365 120.842 539.126 119.356 540.11 118.138C541.095 116.921 542.268 115.999 543.628 115.372C545.007 114.728 546.538 114.405 548.221 114.405C549.563 114.405 550.79 114.602 551.9 114.996C553.028 115.39 553.995 116.026 554.8 116.903C555.624 117.78 556.25 118.944 556.68 120.394C557.128 121.826 557.352 123.599 557.352 125.711V144H548.248V125.685C548.248 124.521 548.086 123.635 547.764 123.026C547.442 122.399 546.976 121.97 546.368 121.737C545.759 121.504 545.016 121.388 544.139 121.388C543.208 121.388 542.42 121.567 541.775 121.925C541.131 122.283 540.612 122.784 540.218 123.429C539.842 124.055 539.564 124.798 539.385 125.658C539.224 126.517 539.144 127.457 539.144 128.478Z" fill="black"/>
<path d="M96.563 55.1172H100.904L107.295 73.3862L113.687 55.1172H118.028L109.039 80H105.552L96.563 55.1172ZM94.2217 55.1172H98.5454L99.3315 72.9248V80H94.2217V55.1172ZM116.045 55.1172H120.386V80H115.259V72.9248L116.045 55.1172ZM134.554 75.8301V67.5928C134.554 67.0003 134.457 66.4933 134.263 66.0718C134.069 65.6388 133.768 65.3027 133.357 65.0635C132.959 64.8242 132.44 64.7046 131.802 64.7046C131.255 64.7046 130.783 64.8014 130.384 64.9951C129.985 65.1774 129.677 65.4451 129.461 65.7983C129.244 66.1401 129.136 66.5446 129.136 67.0117H124.214C124.214 66.2256 124.397 65.4793 124.761 64.7729C125.126 64.0666 125.656 63.4456 126.351 62.9102C127.046 62.3633 127.872 61.936 128.829 61.6284C129.797 61.3208 130.879 61.167 132.076 61.167C133.511 61.167 134.787 61.4062 135.904 61.8848C137.02 62.3633 137.898 63.0811 138.536 64.0381C139.185 64.9951 139.51 66.1914 139.51 67.627V75.5396C139.51 76.5535 139.572 77.3853 139.698 78.0347C139.823 78.6727 140.005 79.231 140.245 79.7095V80H135.271C135.032 79.4987 134.85 78.8721 134.725 78.1201C134.611 77.3568 134.554 76.5934 134.554 75.8301ZM135.203 68.7378L135.237 71.5234H132.486C131.836 71.5234 131.272 71.5975 130.794 71.7456C130.315 71.8937 129.922 72.1045 129.615 72.3779C129.307 72.64 129.079 72.9476 128.931 73.3008C128.794 73.654 128.726 74.0413 128.726 74.4629C128.726 74.8844 128.823 75.2661 129.017 75.6079C129.21 75.9383 129.489 76.2004 129.854 76.394C130.219 76.5763 130.646 76.6675 131.136 76.6675C131.876 76.6675 132.52 76.5194 133.067 76.2231C133.614 75.9269 134.035 75.5623 134.332 75.1294C134.639 74.6965 134.799 74.2863 134.81 73.8989L136.109 75.9839C135.927 76.451 135.676 76.9352 135.357 77.4365C135.049 77.9378 134.656 78.4106 134.178 78.855C133.699 79.2879 133.124 79.6468 132.452 79.9316C131.779 80.2051 130.982 80.3418 130.059 80.3418C128.886 80.3418 127.82 80.1082 126.863 79.6411C125.918 79.1626 125.166 78.5075 124.607 77.6758C124.061 76.8327 123.787 75.8757 123.787 74.8047C123.787 73.8363 123.969 72.9761 124.334 72.2241C124.699 71.4722 125.234 70.8398 125.94 70.3271C126.658 69.8031 127.553 69.41 128.624 69.1479C129.694 68.8745 130.936 68.7378 132.349 68.7378H135.203ZM158.018 76.1548V80H143.97V76.1548H158.018ZM157.745 64.3457L145.953 80H142.654V77.0776L154.395 61.5088H157.745V64.3457ZM156.001 61.5088V65.3711H142.928V61.5088H156.001ZM169.349 80.3418C167.913 80.3418 166.626 80.1139 165.486 79.6582C164.347 79.1911 163.379 78.5474 162.581 77.7271C161.795 76.9067 161.191 75.9554 160.77 74.873C160.348 73.7793 160.137 72.6172 160.137 71.3867V70.7031C160.137 69.3018 160.337 68.02 160.735 66.8579C161.134 65.6958 161.704 64.6875 162.444 63.833C163.196 62.9785 164.108 62.3234 165.179 61.8677C166.25 61.4006 167.457 61.167 168.802 61.167C170.112 61.167 171.274 61.3835 172.288 61.8164C173.302 62.2493 174.151 62.8646 174.834 63.6621C175.529 64.4596 176.054 65.4167 176.407 66.5332C176.76 67.6383 176.937 68.8688 176.937 70.2246V72.2754H162.239V68.9941H172.1V68.6182C172.1 67.9346 171.975 67.325 171.724 66.7896C171.485 66.2427 171.12 65.8097 170.63 65.4907C170.14 65.1717 169.514 65.0122 168.75 65.0122C168.101 65.0122 167.543 65.1546 167.076 65.4395C166.609 65.7243 166.227 66.123 165.931 66.6357C165.646 67.1484 165.429 67.7523 165.281 68.4473C165.145 69.1309 165.076 69.8828 165.076 70.7031V71.3867C165.076 72.1273 165.179 72.8109 165.384 73.4375C165.6 74.0641 165.902 74.6053 166.29 75.061C166.688 75.5168 167.167 75.87 167.725 76.1206C168.295 76.3713 168.938 76.4966 169.656 76.4966C170.545 76.4966 171.371 76.3257 172.134 75.9839C172.909 75.6307 173.576 75.1009 174.134 74.3945L176.526 76.9922C176.139 77.5505 175.609 78.0859 174.937 78.5986C174.276 79.1113 173.479 79.5329 172.544 79.8633C171.61 80.1823 170.545 80.3418 169.349 80.3418ZM184.559 65.4565V80H179.637V61.5088H184.251L184.559 65.4565ZM183.841 70.105H182.508C182.508 68.7378 182.684 67.5073 183.038 66.4136C183.391 65.3084 183.886 64.3685 184.524 63.5938C185.162 62.8076 185.92 62.2095 186.797 61.7993C187.686 61.3778 188.677 61.167 189.771 61.167C190.637 61.167 191.429 61.2923 192.146 61.543C192.864 61.7936 193.479 62.1924 193.992 62.7393C194.516 63.2861 194.915 64.0096 195.188 64.9097C195.473 65.8097 195.616 66.9092 195.616 68.208V80H190.66V68.1909C190.66 67.3706 190.546 66.7326 190.318 66.2769C190.09 65.8211 189.754 65.5021 189.31 65.3198C188.877 65.1261 188.341 65.0293 187.703 65.0293C187.042 65.0293 186.467 65.1603 185.977 65.4224C185.499 65.6844 185.1 66.049 184.781 66.5161C184.473 66.9718 184.24 67.5073 184.08 68.1226C183.921 68.7378 183.841 69.3986 183.841 70.105ZM228.633 55.1172V80H223.506L213.509 63.3203V80H208.382V55.1172H213.509L223.523 71.814V55.1172H228.633ZM242.767 75.8301V67.5928C242.767 67.0003 242.67 66.4933 242.476 66.0718C242.282 65.6388 241.98 65.3027 241.57 65.0635C241.172 64.8242 240.653 64.7046 240.015 64.7046C239.468 64.7046 238.995 64.8014 238.597 64.9951C238.198 65.1774 237.89 65.4451 237.674 65.7983C237.457 66.1401 237.349 66.5446 237.349 67.0117H232.427C232.427 66.2256 232.61 65.4793 232.974 64.7729C233.339 64.0666 233.868 63.4456 234.563 62.9102C235.258 62.3633 236.084 61.936 237.042 61.6284C238.01 61.3208 239.092 61.167 240.289 61.167C241.724 61.167 243 61.4062 244.117 61.8848C245.233 62.3633 246.111 63.0811 246.749 64.0381C247.398 64.9951 247.723 66.1914 247.723 67.627V75.5396C247.723 76.5535 247.785 77.3853 247.911 78.0347C248.036 78.6727 248.218 79.231 248.458 79.7095V80H243.484C243.245 79.4987 243.063 78.8721 242.938 78.1201C242.824 77.3568 242.767 76.5934 242.767 75.8301ZM243.416 68.7378L243.45 71.5234H240.699C240.049 71.5234 239.485 71.5975 239.007 71.7456C238.528 71.8937 238.135 72.1045 237.828 72.3779C237.52 72.64 237.292 72.9476 237.144 73.3008C237.007 73.654 236.939 74.0413 236.939 74.4629C236.939 74.8844 237.036 75.2661 237.229 75.6079C237.423 75.9383 237.702 76.2004 238.067 76.394C238.431 76.5763 238.859 76.6675 239.349 76.6675C240.089 76.6675 240.733 76.5194 241.28 76.2231C241.827 75.9269 242.248 75.5623 242.544 75.1294C242.852 74.6965 243.012 74.2863 243.023 73.8989L244.322 75.9839C244.139 76.451 243.889 76.9352 243.57 77.4365C243.262 77.9378 242.869 78.4106 242.391 78.855C241.912 79.2879 241.337 79.6468 240.665 79.9316C239.992 80.2051 239.195 80.3418 238.272 80.3418C237.098 80.3418 236.033 80.1082 235.076 79.6411C234.131 79.1626 233.379 78.5075 232.82 77.6758C232.273 76.8327 232 75.8757 232 74.8047C232 73.8363 232.182 72.9761 232.547 72.2241C232.911 71.4722 233.447 70.8398 234.153 70.3271C234.871 69.8031 235.765 69.41 236.836 69.1479C237.907 68.8745 239.149 68.7378 240.562 68.7378H243.416ZM251.79 61.5088H256.729V81.1108C256.729 82.478 256.478 83.6344 255.977 84.5801C255.476 85.5257 254.752 86.2435 253.807 86.7334C252.861 87.2233 251.716 87.4683 250.372 87.4683C249.95 87.4683 249.54 87.4455 249.141 87.3999C248.731 87.3543 248.309 87.2803 247.876 87.1777L247.894 83.4009C248.167 83.4465 248.435 83.4806 248.697 83.5034C248.947 83.5376 249.204 83.5547 249.466 83.5547C249.979 83.5547 250.406 83.4692 250.748 83.2983C251.089 83.1274 251.346 82.8597 251.517 82.4951C251.699 82.1419 251.79 81.6805 251.79 81.1108V61.5088ZM251.397 56.6895C251.397 55.9717 251.648 55.3792 252.149 54.9121C252.662 54.445 253.334 54.2114 254.166 54.2114C255.009 54.2114 255.681 54.445 256.182 54.9121C256.683 55.3792 256.934 55.9717 256.934 56.6895C256.934 57.4072 256.683 57.9997 256.182 58.4668C255.681 58.9339 255.009 59.1675 254.166 59.1675C253.334 59.1675 252.662 58.9339 252.149 58.4668C251.648 57.9997 251.397 57.4072 251.397 56.6895ZM270.623 75.8301V67.5928C270.623 67.0003 270.526 66.4933 270.333 66.0718C270.139 65.6388 269.837 65.3027 269.427 65.0635C269.028 64.8242 268.51 64.7046 267.872 64.7046C267.325 64.7046 266.852 64.8014 266.453 64.9951C266.054 65.1774 265.747 65.4451 265.53 65.7983C265.314 66.1401 265.206 66.5446 265.206 67.0117H260.284C260.284 66.2256 260.466 65.4793 260.831 64.7729C261.195 64.0666 261.725 63.4456 262.42 62.9102C263.115 62.3633 263.941 61.936 264.898 61.6284C265.866 61.3208 266.949 61.167 268.145 61.167C269.581 61.167 270.857 61.4062 271.973 61.8848C273.09 62.3633 273.967 63.0811 274.605 64.0381C275.254 64.9951 275.579 66.1914 275.579 67.627V75.5396C275.579 76.5535 275.642 77.3853 275.767 78.0347C275.892 78.6727 276.075 79.231 276.314 79.7095V80H271.341C271.102 79.4987 270.919 78.8721 270.794 78.1201C270.68 77.3568 270.623 76.5934 270.623 75.8301ZM271.272 68.7378L271.307 71.5234H268.555C267.906 71.5234 267.342 71.5975 266.863 71.7456C266.385 71.8937 265.992 72.1045 265.684 72.3779C265.376 72.64 265.149 72.9476 265 73.3008C264.864 73.654 264.795 74.0413 264.795 74.4629C264.795 74.8844 264.892 75.2661 265.086 75.6079C265.28 75.9383 265.559 76.2004 265.923 76.394C266.288 76.5763 266.715 76.6675 267.205 76.6675C267.946 76.6675 268.589 76.5194 269.136 76.2231C269.683 75.9269 270.105 75.5623 270.401 75.1294C270.708 74.6965 270.868 74.2863 270.879 73.8989L272.178 75.9839C271.996 76.451 271.745 76.9352 271.426 77.4365C271.119 77.9378 270.726 78.4106 270.247 78.855C269.769 79.2879 269.193 79.6468 268.521 79.9316C267.849 80.2051 267.051 80.3418 266.128 80.3418C264.955 80.3418 263.89 80.1082 262.933 79.6411C261.987 79.1626 261.235 78.5075 260.677 77.6758C260.13 76.8327 259.856 75.8757 259.856 74.8047C259.856 73.8363 260.039 72.9761 260.403 72.2241C260.768 71.4722 261.303 70.8398 262.01 70.3271C262.728 69.8031 263.622 69.41 264.693 69.1479C265.764 68.8745 267.006 68.7378 268.418 68.7378H271.272Z" fill="#888888"/>
<rect x="92" y="181" width="1179" height="80" rx="13.3333" fill="#CCCCCC"/>
<rect x="107" y="196.333" width="208" height="49.3333" rx="4.66667" fill="#888888" stroke="#888888" stroke-width="4"/>
<path d="M150.833 213.167H156.802C157.969 213.167 158.983 213.34 159.844 213.687C160.705 214.035 161.368 214.549 161.833 215.229C162.306 215.91 162.542 216.75 162.542 217.75C162.542 218.618 162.406 219.344 162.135 219.927C161.865 220.51 161.486 220.993 161 221.375C160.521 221.75 159.962 222.059 159.323 222.302L158.125 222.979H153.115L153.094 220.156H156.802C157.267 220.156 157.653 220.073 157.958 219.906C158.264 219.74 158.493 219.503 158.646 219.198C158.806 218.885 158.885 218.514 158.885 218.083C158.885 217.646 158.806 217.271 158.646 216.958C158.486 216.646 158.25 216.406 157.937 216.24C157.632 216.073 157.253 215.99 156.802 215.99H154.49V228.333H150.833V213.167ZM159.135 228.333L155.781 221.625L159.656 221.604L163.052 228.177V228.333H159.135ZM170.042 228.542C169.125 228.542 168.306 228.399 167.583 228.115C166.861 227.823 166.25 227.424 165.75 226.917C165.257 226.41 164.878 225.826 164.615 225.167C164.358 224.507 164.229 223.809 164.229 223.073V222.677C164.229 221.851 164.344 221.087 164.573 220.385C164.802 219.677 165.142 219.059 165.594 218.531C166.045 218.003 166.611 217.594 167.292 217.302C167.972 217.003 168.764 216.854 169.667 216.854C170.465 216.854 171.181 216.983 171.813 217.24C172.444 217.497 172.979 217.865 173.417 218.344C173.861 218.823 174.198 219.403 174.427 220.083C174.663 220.764 174.781 221.528 174.781 222.375V223.802H165.573V221.604H171.354V221.333C171.361 220.958 171.295 220.639 171.156 220.375C171.024 220.111 170.83 219.91 170.573 219.771C170.316 219.632 170.003 219.562 169.635 219.562C169.253 219.562 168.938 219.646 168.688 219.812C168.444 219.979 168.253 220.208 168.115 220.5C167.983 220.785 167.889 221.115 167.833 221.49C167.778 221.865 167.75 222.26 167.75 222.677V223.073C167.75 223.49 167.806 223.868 167.917 224.208C168.035 224.549 168.201 224.84 168.417 225.083C168.639 225.319 168.903 225.503 169.208 225.635C169.521 225.767 169.875 225.833 170.271 225.833C170.75 225.833 171.222 225.743 171.688 225.562C172.153 225.382 172.552 225.083 172.885 224.667L174.479 226.562C174.25 226.889 173.924 227.205 173.5 227.51C173.083 227.816 172.583 228.066 172 228.26C171.417 228.448 170.764 228.542 170.042 228.542ZM182.063 225.5V220.854C182.063 220.535 182.017 220.26 181.927 220.031C181.837 219.802 181.694 219.625 181.5 219.5C181.306 219.368 181.045 219.302 180.719 219.302C180.455 219.302 180.229 219.347 180.042 219.437C179.854 219.528 179.712 219.663 179.615 219.844C179.517 220.024 179.469 220.253 179.469 220.531H175.958C175.958 220.01 176.073 219.528 176.302 219.083C176.538 218.632 176.872 218.24 177.302 217.906C177.74 217.573 178.26 217.316 178.865 217.135C179.476 216.948 180.156 216.854 180.906 216.854C181.802 216.854 182.601 217.003 183.302 217.302C184.01 217.601 184.569 218.049 184.979 218.646C185.389 219.236 185.594 219.979 185.594 220.875V225.49C185.594 226.226 185.635 226.785 185.719 227.167C185.802 227.542 185.92 227.872 186.073 228.156V228.333H182.552C182.385 227.986 182.26 227.562 182.177 227.062C182.101 226.556 182.063 226.035 182.063 225.5ZM182.49 221.448L182.51 223.323H180.958C180.632 223.323 180.354 223.368 180.125 223.458C179.903 223.549 179.722 223.674 179.583 223.833C179.451 223.986 179.354 224.16 179.292 224.354C179.236 224.549 179.208 224.753 179.208 224.969C179.208 225.177 179.257 225.365 179.354 225.531C179.458 225.691 179.597 225.816 179.771 225.906C179.944 225.997 180.139 226.042 180.354 226.042C180.743 226.042 181.073 225.969 181.344 225.823C181.622 225.67 181.833 225.486 181.979 225.271C182.125 225.056 182.198 224.854 182.198 224.667L182.969 226.104C182.83 226.382 182.67 226.663 182.49 226.948C182.316 227.233 182.097 227.497 181.833 227.74C181.576 227.976 181.26 228.17 180.885 228.323C180.51 228.469 180.056 228.542 179.521 228.542C178.826 228.542 178.188 228.399 177.604 228.115C177.028 227.83 176.566 227.434 176.219 226.927C175.872 226.413 175.698 225.823 175.698 225.156C175.698 224.573 175.802 224.052 176.01 223.594C176.226 223.135 176.549 222.747 176.979 222.427C177.41 222.108 177.958 221.865 178.625 221.698C179.292 221.531 180.076 221.448 180.979 221.448H182.49ZM192.302 225.833C192.628 225.833 192.906 225.774 193.135 225.656C193.372 225.531 193.549 225.358 193.667 225.135C193.792 224.906 193.851 224.632 193.844 224.312H197.146C197.153 225.16 196.944 225.903 196.521 226.542C196.104 227.174 195.535 227.667 194.812 228.021C194.097 228.368 193.288 228.542 192.385 228.542C191.503 228.542 190.733 228.399 190.073 228.115C189.413 227.823 188.861 227.42 188.417 226.906C187.979 226.385 187.649 225.778 187.427 225.083C187.212 224.389 187.104 223.635 187.104 222.823V222.583C187.104 221.771 187.212 221.017 187.427 220.323C187.649 219.622 187.979 219.014 188.417 218.5C188.861 217.979 189.41 217.576 190.062 217.292C190.722 217 191.49 216.854 192.365 216.854C193.302 216.854 194.128 217.031 194.844 217.385C195.566 217.74 196.132 218.253 196.542 218.927C196.951 219.601 197.153 220.417 197.146 221.375H193.844C193.851 221.035 193.799 220.729 193.687 220.458C193.576 220.187 193.403 219.972 193.167 219.812C192.937 219.646 192.642 219.562 192.281 219.562C191.92 219.562 191.628 219.642 191.406 219.802C191.184 219.962 191.014 220.184 190.896 220.469C190.785 220.747 190.708 221.066 190.667 221.427C190.632 221.788 190.615 222.174 190.615 222.583V222.823C190.615 223.24 190.632 223.632 190.667 224C190.708 224.361 190.788 224.681 190.906 224.958C191.024 225.229 191.194 225.444 191.417 225.604C191.639 225.757 191.934 225.833 192.302 225.833ZM204.583 217.062V219.5H197.792V217.062H204.583ZM199.219 214.26H202.729V224.656C202.729 224.955 202.764 225.187 202.833 225.354C202.903 225.514 203.021 225.628 203.188 225.698C203.361 225.76 203.59 225.792 203.875 225.792C204.076 225.792 204.243 225.788 204.375 225.781C204.507 225.767 204.632 225.75 204.75 225.729V228.24C204.451 228.337 204.139 228.41 203.813 228.458C203.486 228.514 203.139 228.542 202.771 228.542C202.021 228.542 201.378 228.424 200.844 228.187C200.316 227.951 199.913 227.58 199.635 227.073C199.358 226.566 199.219 225.906 199.219 225.094V214.26ZM224.125 213.167V228.333H220.479L215.115 218.896V228.333H211.458V213.167H215.115L220.479 222.604V213.167H224.125ZM232.125 225.5V220.854C232.125 220.535 232.08 220.26 231.99 220.031C231.899 219.802 231.757 219.625 231.563 219.5C231.368 219.368 231.108 219.302 230.781 219.302C230.517 219.302 230.292 219.347 230.104 219.437C229.917 219.528 229.774 219.663 229.677 219.844C229.58 220.024 229.531 220.253 229.531 220.531H226.021C226.021 220.01 226.135 219.528 226.365 219.083C226.601 218.632 226.934 218.24 227.365 217.906C227.802 217.573 228.323 217.316 228.927 217.135C229.538 216.948 230.219 216.854 230.969 216.854C231.865 216.854 232.663 217.003 233.365 217.302C234.073 217.601 234.632 218.049 235.042 218.646C235.451 219.236 235.656 219.979 235.656 220.875V225.49C235.656 226.226 235.698 226.785 235.781 227.167C235.865 227.542 235.983 227.872 236.135 228.156V228.333H232.615C232.448 227.986 232.323 227.562 232.24 227.062C232.163 226.556 232.125 226.035 232.125 225.5ZM232.552 221.448L232.573 223.323H231.021C230.694 223.323 230.417 223.368 230.188 223.458C229.965 223.549 229.785 223.674 229.646 223.833C229.514 223.986 229.417 224.16 229.354 224.354C229.299 224.549 229.271 224.753 229.271 224.969C229.271 225.177 229.319 225.365 229.417 225.531C229.521 225.691 229.66 225.816 229.833 225.906C230.007 225.997 230.201 226.042 230.417 226.042C230.806 226.042 231.135 225.969 231.406 225.823C231.684 225.67 231.896 225.486 232.042 225.271C232.188 225.056 232.26 224.854 232.26 224.667L233.031 226.104C232.892 226.382 232.733 226.663 232.552 226.948C232.378 227.233 232.16 227.497 231.896 227.74C231.639 227.976 231.323 228.17 230.948 228.323C230.573 228.469 230.118 228.542 229.583 228.542C228.889 228.542 228.25 228.399 227.667 228.115C227.09 227.83 226.628 227.434 226.281 226.927C225.934 226.413 225.76 225.823 225.76 225.156C225.76 224.573 225.865 224.052 226.073 223.594C226.288 223.135 226.611 222.747 227.042 222.427C227.472 222.108 228.021 221.865 228.688 221.698C229.354 221.531 230.139 221.448 231.042 221.448H232.552ZM243.542 217.062V219.5H236.75V217.062H243.542ZM238.177 214.26H241.687V224.656C241.687 224.955 241.722 225.187 241.792 225.354C241.861 225.514 241.979 225.628 242.146 225.698C242.319 225.76 242.549 225.792 242.833 225.792C243.035 225.792 243.201 225.788 243.333 225.781C243.465 225.767 243.59 225.75 243.708 225.729V228.24C243.41 228.337 243.097 228.41 242.771 228.458C242.444 228.514 242.097 228.542 241.729 228.542C240.979 228.542 240.337 228.424 239.802 228.187C239.274 227.951 238.872 227.58 238.594 227.073C238.316 226.566 238.177 225.906 238.177 225.094V214.26ZM248.646 217.062V228.333H245.125V217.062H248.646ZM244.917 214.156C244.917 213.656 245.097 213.247 245.458 212.927C245.819 212.608 246.288 212.448 246.865 212.448C247.441 212.448 247.91 212.608 248.271 212.927C248.632 213.247 248.813 213.656 248.813 214.156C248.813 214.656 248.632 215.066 248.271 215.385C247.91 215.705 247.441 215.865 246.865 215.865C246.288 215.865 245.819 215.705 245.458 215.385C245.097 215.066 244.917 214.656 244.917 214.156ZM254.875 225.927L257.094 217.062H260.792L257.104 228.333H254.917L254.875 225.927ZM253.563 217.062L255.75 225.927L255.729 228.333H253.531L249.854 217.062H253.563ZM267.146 228.542C266.229 228.542 265.41 228.399 264.688 228.115C263.965 227.823 263.354 227.424 262.854 226.917C262.361 226.41 261.983 225.826 261.719 225.167C261.462 224.507 261.333 223.809 261.333 223.073V222.677C261.333 221.851 261.448 221.087 261.677 220.385C261.906 219.677 262.247 219.059 262.698 218.531C263.149 218.003 263.715 217.594 264.396 217.302C265.076 217.003 265.868 216.854 266.771 216.854C267.569 216.854 268.285 216.983 268.917 217.24C269.549 217.497 270.083 217.865 270.521 218.344C270.965 218.823 271.302 219.403 271.531 220.083C271.767 220.764 271.885 221.528 271.885 222.375V223.802H262.677V221.604H268.458V221.333C268.465 220.958 268.399 220.639 268.26 220.375C268.128 220.111 267.934 219.91 267.677 219.771C267.42 219.632 267.108 219.562 266.74 219.562C266.358 219.562 266.042 219.646 265.792 219.812C265.549 219.979 265.358 220.208 265.219 220.5C265.087 220.785 264.993 221.115 264.938 221.49C264.882 221.865 264.854 222.26 264.854 222.677V223.073C264.854 223.49 264.91 223.868 265.021 224.208C265.139 224.549 265.306 224.84 265.521 225.083C265.743 225.319 266.007 225.503 266.313 225.635C266.625 225.767 266.979 225.833 267.375 225.833C267.854 225.833 268.326 225.743 268.792 225.562C269.257 225.382 269.656 225.083 269.99 224.667L271.583 226.562C271.354 226.889 271.028 227.205 270.604 227.51C270.188 227.816 269.688 228.066 269.104 228.26C268.521 228.448 267.868 228.542 267.146 228.542Z" fill="white"/>
<rect x="339" y="196.333" width="208" height="49.3333" rx="4.66667" fill="#888888" stroke="#888888" stroke-width="4"/>
<path d="M419.073 225.521V228.333H411.406V225.521H419.073ZM412.708 213.167V228.333H409.052V213.167H412.708ZM426.302 225.5V220.854C426.302 220.535 426.257 220.26 426.167 220.031C426.076 219.802 425.934 219.625 425.74 219.5C425.545 219.368 425.285 219.302 424.958 219.302C424.694 219.302 424.469 219.347 424.281 219.437C424.094 219.528 423.951 219.663 423.854 219.844C423.757 220.024 423.708 220.253 423.708 220.531H420.198C420.198 220.01 420.312 219.528 420.542 219.083C420.778 218.632 421.111 218.24 421.542 217.906C421.979 217.573 422.5 217.316 423.104 217.135C423.715 216.948 424.396 216.854 425.146 216.854C426.042 216.854 426.84 217.003 427.542 217.302C428.25 217.601 428.809 218.049 429.219 218.646C429.628 219.236 429.833 219.979 429.833 220.875V225.49C429.833 226.226 429.875 226.785 429.958 227.167C430.042 227.542 430.16 227.872 430.312 228.156V228.333H426.792C426.625 227.986 426.5 227.562 426.417 227.062C426.34 226.556 426.302 226.035 426.302 225.5ZM426.729 221.448L426.75 223.323H425.198C424.872 223.323 424.594 223.368 424.365 223.458C424.142 223.549 423.962 223.674 423.823 223.833C423.691 223.986 423.594 224.16 423.531 224.354C423.476 224.549 423.448 224.753 423.448 224.969C423.448 225.177 423.497 225.365 423.594 225.531C423.698 225.691 423.837 225.816 424.01 225.906C424.184 225.997 424.378 226.042 424.594 226.042C424.983 226.042 425.312 225.969 425.583 225.823C425.861 225.67 426.073 225.486 426.219 225.271C426.365 225.056 426.437 224.854 426.437 224.667L427.208 226.104C427.069 226.382 426.91 226.663 426.729 226.948C426.556 227.233 426.337 227.497 426.073 227.74C425.816 227.976 425.5 228.17 425.125 228.323C424.75 228.469 424.295 228.542 423.76 228.542C423.066 228.542 422.427 228.399 421.844 228.115C421.267 227.83 420.806 227.434 420.458 226.927C420.111 226.413 419.937 225.823 419.937 225.156C419.937 224.573 420.042 224.052 420.25 223.594C420.465 223.135 420.788 222.747 421.219 222.427C421.649 222.108 422.198 221.865 422.865 221.698C423.531 221.531 424.316 221.448 425.219 221.448H426.729ZM435.323 219.854V228.333H431.812V217.062H435.094L435.323 219.854ZM438.656 216.979L438.594 220.24C438.455 220.226 438.267 220.208 438.031 220.187C437.795 220.167 437.597 220.156 437.437 220.156C437.028 220.156 436.674 220.205 436.375 220.302C436.083 220.392 435.84 220.531 435.646 220.719C435.458 220.899 435.319 221.128 435.229 221.406C435.146 221.684 435.108 222.007 435.115 222.375L434.479 221.958C434.479 221.201 434.552 220.514 434.698 219.896C434.851 219.271 435.066 218.733 435.344 218.281C435.622 217.823 435.958 217.472 436.354 217.229C436.75 216.979 437.194 216.854 437.687 216.854C437.861 216.854 438.031 216.865 438.198 216.885C438.372 216.906 438.524 216.937 438.656 216.979ZM445.406 225.5V220.854C445.406 220.535 445.361 220.26 445.271 220.031C445.181 219.802 445.038 219.625 444.844 219.5C444.649 219.368 444.389 219.302 444.063 219.302C443.799 219.302 443.573 219.347 443.385 219.437C443.198 219.528 443.056 219.663 442.958 219.844C442.861 220.024 442.813 220.253 442.813 220.531H439.302C439.302 220.01 439.417 219.528 439.646 219.083C439.882 218.632 440.215 218.24 440.646 217.906C441.083 217.573 441.604 217.316 442.208 217.135C442.819 216.948 443.5 216.854 444.25 216.854C445.146 216.854 445.944 217.003 446.646 217.302C447.354 217.601 447.913 218.049 448.323 218.646C448.733 219.236 448.938 219.979 448.938 220.875V225.49C448.938 226.226 448.979 226.785 449.063 227.167C449.146 227.542 449.264 227.872 449.417 228.156V228.333H445.896C445.729 227.986 445.604 227.562 445.521 227.062C445.444 226.556 445.406 226.035 445.406 225.5ZM445.833 221.448L445.854 223.323H444.302C443.976 223.323 443.698 223.368 443.469 223.458C443.247 223.549 443.066 223.674 442.927 223.833C442.795 223.986 442.698 224.16 442.635 224.354C442.58 224.549 442.552 224.753 442.552 224.969C442.552 225.177 442.601 225.365 442.698 225.531C442.802 225.691 442.941 225.816 443.115 225.906C443.288 225.997 443.483 226.042 443.698 226.042C444.087 226.042 444.417 225.969 444.688 225.823C444.965 225.67 445.177 225.486 445.323 225.271C445.469 225.056 445.542 224.854 445.542 224.667L446.313 226.104C446.174 226.382 446.014 226.663 445.833 226.948C445.66 227.233 445.441 227.497 445.177 227.74C444.92 227.976 444.604 228.17 444.229 228.323C443.854 228.469 443.399 228.542 442.865 228.542C442.17 228.542 441.531 228.399 440.948 228.115C440.372 227.83 439.91 227.434 439.563 226.927C439.215 226.413 439.042 225.823 439.042 225.156C439.042 224.573 439.146 224.052 439.354 223.594C439.569 223.135 439.892 222.747 440.323 222.427C440.753 222.108 441.302 221.865 441.969 221.698C442.635 221.531 443.42 221.448 444.323 221.448H445.833ZM454.781 225.927L457 217.062H460.698L457.01 228.333H454.823L454.781 225.927ZM453.469 217.062L455.656 225.927L455.635 228.333H453.437L449.76 217.062H453.469ZM467.052 228.542C466.135 228.542 465.316 228.399 464.594 228.115C463.872 227.823 463.26 227.424 462.76 226.917C462.267 226.41 461.889 225.826 461.625 225.167C461.368 224.507 461.24 223.809 461.24 223.073V222.677C461.24 221.851 461.354 221.087 461.583 220.385C461.812 219.677 462.153 219.059 462.604 218.531C463.056 218.003 463.622 217.594 464.302 217.302C464.983 217.003 465.774 216.854 466.677 216.854C467.476 216.854 468.191 216.983 468.823 217.24C469.455 217.497 469.99 217.865 470.427 218.344C470.872 218.823 471.208 219.403 471.437 220.083C471.674 220.764 471.792 221.528 471.792 222.375V223.802H462.583V221.604H468.365V221.333C468.372 220.958 468.306 220.639 468.167 220.375C468.035 220.111 467.84 219.91 467.583 219.771C467.326 219.632 467.014 219.562 466.646 219.562C466.264 219.562 465.948 219.646 465.698 219.812C465.455 219.979 465.264 220.208 465.125 220.5C464.993 220.785 464.899 221.115 464.844 221.49C464.788 221.865 464.76 222.26 464.76 222.677V223.073C464.76 223.49 464.816 223.868 464.927 224.208C465.045 224.549 465.212 224.84 465.427 225.083C465.649 225.319 465.913 225.503 466.219 225.635C466.531 225.767 466.885 225.833 467.281 225.833C467.76 225.833 468.233 225.743 468.698 225.562C469.163 225.382 469.562 225.083 469.896 224.667L471.49 226.562C471.26 226.889 470.934 227.205 470.51 227.51C470.094 227.816 469.594 228.066 469.01 228.26C468.427 228.448 467.774 228.542 467.052 228.542ZM476.927 212.333V228.333H473.406V212.333H476.927Z" fill="white"/>
<rect x="571" y="196.333" width="208" height="49.3333" rx="4.66667" fill="#888888" stroke="#888888" stroke-width="4"/>
<path d="M638.333 213.167V228.333H634.677V213.167H638.333ZM644.229 219.479V222.292H637.292V219.479H644.229ZM644.823 213.167V215.99H637.292V213.167H644.823ZM649.885 217.062V228.333H646.365V217.062H649.885ZM646.156 214.156C646.156 213.656 646.337 213.247 646.698 212.927C647.059 212.608 647.528 212.448 648.104 212.448C648.681 212.448 649.149 212.608 649.51 212.927C649.872 213.247 650.052 213.656 650.052 214.156C650.052 214.656 649.872 215.066 649.51 215.385C649.149 215.705 648.681 215.865 648.104 215.865C647.528 215.865 647.059 215.705 646.698 215.385C646.337 215.066 646.156 214.656 646.156 214.156ZM655.594 219.854V228.333H652.083V217.062H655.365L655.594 219.854ZM658.927 216.979L658.865 220.24C658.726 220.226 658.538 220.208 658.302 220.187C658.066 220.167 657.868 220.156 657.708 220.156C657.299 220.156 656.944 220.205 656.646 220.302C656.354 220.392 656.111 220.531 655.917 220.719C655.729 220.899 655.59 221.128 655.5 221.406C655.417 221.684 655.378 222.007 655.385 222.375L654.75 221.958C654.75 221.201 654.823 220.514 654.969 219.896C655.122 219.271 655.337 218.733 655.615 218.281C655.892 217.823 656.229 217.472 656.625 217.229C657.021 216.979 657.465 216.854 657.958 216.854C658.132 216.854 658.302 216.865 658.469 216.885C658.642 216.906 658.795 216.937 658.927 216.979ZM665.385 228.542C664.469 228.542 663.649 228.399 662.927 228.115C662.205 227.823 661.594 227.424 661.094 226.917C660.601 226.41 660.222 225.826 659.958 225.167C659.701 224.507 659.573 223.809 659.573 223.073V222.677C659.573 221.851 659.688 221.087 659.917 220.385C660.146 219.677 660.486 219.059 660.938 218.531C661.389 218.003 661.955 217.594 662.635 217.302C663.316 217.003 664.108 216.854 665.01 216.854C665.809 216.854 666.524 216.983 667.156 217.24C667.788 217.497 668.323 217.865 668.76 218.344C669.205 218.823 669.542 219.403 669.771 220.083C670.007 220.764 670.125 221.528 670.125 222.375V223.802H660.917V221.604H666.698V221.333C666.705 220.958 666.639 220.639 666.5 220.375C666.368 220.111 666.174 219.91 665.917 219.771C665.66 219.632 665.347 219.562 664.979 219.562C664.597 219.562 664.281 219.646 664.031 219.812C663.788 219.979 663.597 220.208 663.458 220.5C663.326 220.785 663.233 221.115 663.177 221.49C663.122 221.865 663.094 222.26 663.094 222.677V223.073C663.094 223.49 663.149 223.868 663.26 224.208C663.378 224.549 663.545 224.84 663.76 225.083C663.983 225.319 664.247 225.503 664.552 225.635C664.865 225.767 665.219 225.833 665.615 225.833C666.094 225.833 666.566 225.743 667.031 225.562C667.497 225.382 667.896 225.083 668.229 224.667L669.823 226.562C669.594 226.889 669.267 227.205 668.844 227.51C668.427 227.816 667.927 228.066 667.344 228.26C666.76 228.448 666.108 228.542 665.385 228.542ZM671.583 212.333H675.094V225.562L674.729 228.333H671.583V212.333ZM682.01 222.573V222.792C682.01 223.646 681.924 224.424 681.75 225.125C681.576 225.826 681.309 226.434 680.948 226.948C680.587 227.455 680.132 227.847 679.583 228.125C679.035 228.403 678.385 228.542 677.635 228.542C676.955 228.542 676.372 228.396 675.885 228.104C675.399 227.806 674.993 227.396 674.667 226.875C674.34 226.347 674.076 225.74 673.875 225.052C673.674 224.358 673.514 223.615 673.396 222.823V222.562C673.514 221.778 673.674 221.042 673.875 220.354C674.076 219.66 674.34 219.052 674.667 218.531C674.993 218.003 675.396 217.594 675.875 217.302C676.361 217.003 676.941 216.854 677.615 216.854C678.372 216.854 679.024 216.997 679.573 217.281C680.128 217.566 680.587 217.965 680.948 218.479C681.309 218.993 681.576 219.597 681.75 220.292C681.924 220.986 682.01 221.747 682.01 222.573ZM678.5 222.792V222.573C678.5 222.163 678.476 221.778 678.427 221.417C678.378 221.056 678.292 220.736 678.167 220.458C678.042 220.181 677.865 219.962 677.635 219.802C677.406 219.642 677.108 219.562 676.74 219.562C676.365 219.562 676.049 219.625 675.792 219.75C675.542 219.875 675.34 220.056 675.188 220.292C675.042 220.521 674.938 220.806 674.875 221.146C674.813 221.479 674.785 221.858 674.792 222.281V223.104C674.778 223.681 674.83 224.174 674.948 224.583C675.066 224.993 675.271 225.306 675.563 225.521C675.854 225.736 676.253 225.844 676.76 225.844C677.135 225.844 677.438 225.771 677.667 225.625C677.903 225.479 678.08 225.271 678.198 225C678.316 224.729 678.396 224.406 678.438 224.031C678.479 223.656 678.5 223.243 678.5 222.792ZM689.427 225.5V220.854C689.427 220.535 689.382 220.26 689.292 220.031C689.201 219.802 689.059 219.625 688.865 219.5C688.67 219.368 688.41 219.302 688.083 219.302C687.819 219.302 687.594 219.347 687.406 219.437C687.219 219.528 687.076 219.663 686.979 219.844C686.882 220.024 686.833 220.253 686.833 220.531H683.323C683.323 220.01 683.437 219.528 683.667 219.083C683.903 218.632 684.236 218.24 684.667 217.906C685.104 217.573 685.625 217.316 686.229 217.135C686.84 216.948 687.521 216.854 688.271 216.854C689.167 216.854 689.965 217.003 690.667 217.302C691.375 217.601 691.934 218.049 692.344 218.646C692.753 219.236 692.958 219.979 692.958 220.875V225.49C692.958 226.226 693 226.785 693.083 227.167C693.167 227.542 693.285 227.872 693.437 228.156V228.333H689.917C689.75 227.986 689.625 227.562 689.542 227.062C689.465 226.556 689.427 226.035 689.427 225.5ZM689.854 221.448L689.875 223.323H688.323C687.997 223.323 687.719 223.368 687.49 223.458C687.267 223.549 687.087 223.674 686.948 223.833C686.816 223.986 686.719 224.16 686.656 224.354C686.601 224.549 686.573 224.753 686.573 224.969C686.573 225.177 686.622 225.365 686.719 225.531C686.823 225.691 686.962 225.816 687.135 225.906C687.309 225.997 687.503 226.042 687.719 226.042C688.108 226.042 688.437 225.969 688.708 225.823C688.986 225.67 689.198 225.486 689.344 225.271C689.49 225.056 689.562 224.854 689.562 224.667L690.333 226.104C690.194 226.382 690.035 226.663 689.854 226.948C689.681 227.233 689.462 227.497 689.198 227.74C688.941 227.976 688.625 228.17 688.25 228.323C687.875 228.469 687.42 228.542 686.885 228.542C686.191 228.542 685.552 228.399 684.969 228.115C684.392 227.83 683.931 227.434 683.583 226.927C683.236 226.413 683.062 225.823 683.062 225.156C683.062 224.573 683.167 224.052 683.375 223.594C683.59 223.135 683.913 222.747 684.344 222.427C684.774 222.108 685.323 221.865 685.99 221.698C686.656 221.531 687.441 221.448 688.344 221.448H689.854ZM700.812 225.167C700.812 224.972 700.747 224.806 700.615 224.667C700.49 224.521 700.267 224.389 699.948 224.271C699.628 224.146 699.181 224.021 698.604 223.896C698.056 223.778 697.538 223.622 697.052 223.427C696.573 223.233 696.153 222.997 695.792 222.719C695.431 222.441 695.146 222.111 694.937 221.729C694.736 221.347 694.635 220.91 694.635 220.417C694.635 219.937 694.736 219.486 694.937 219.062C695.146 218.632 695.448 218.253 695.844 217.927C696.247 217.594 696.736 217.333 697.312 217.146C697.889 216.951 698.545 216.854 699.281 216.854C700.295 216.854 701.17 217.01 701.906 217.323C702.642 217.628 703.208 218.059 703.604 218.615C704.007 219.163 704.208 219.799 704.208 220.521H700.698C700.698 220.236 700.649 219.993 700.552 219.792C700.462 219.59 700.312 219.437 700.104 219.333C699.896 219.222 699.618 219.167 699.271 219.167C699.028 219.167 698.806 219.212 698.604 219.302C698.41 219.392 698.253 219.517 698.135 219.677C698.017 219.837 697.958 220.024 697.958 220.24C697.958 220.392 697.993 220.531 698.062 220.656C698.139 220.774 698.253 220.885 698.406 220.99C698.559 221.087 698.753 221.177 698.99 221.26C699.226 221.337 699.51 221.406 699.844 221.469C700.601 221.608 701.309 221.806 701.969 222.062C702.628 222.319 703.163 222.684 703.573 223.156C703.99 223.628 704.198 224.264 704.198 225.062C704.198 225.562 704.083 226.024 703.854 226.448C703.625 226.865 703.295 227.233 702.865 227.552C702.434 227.865 701.917 228.108 701.312 228.281C700.708 228.455 700.028 228.542 699.271 228.542C698.194 228.542 697.285 228.351 696.542 227.969C695.799 227.58 695.236 227.094 694.854 226.51C694.479 225.92 694.292 225.323 694.292 224.719H697.562C697.576 225.066 697.66 225.351 697.812 225.573C697.972 225.795 698.184 225.958 698.448 226.062C698.712 226.167 699.017 226.219 699.365 226.219C699.684 226.219 699.948 226.174 700.156 226.083C700.372 225.993 700.535 225.872 700.646 225.719C700.757 225.559 700.812 225.375 700.812 225.167ZM711.302 228.542C710.385 228.542 709.566 228.399 708.844 228.115C708.122 227.823 707.51 227.424 707.01 226.917C706.517 226.41 706.139 225.826 705.875 225.167C705.618 224.507 705.49 223.809 705.49 223.073V222.677C705.49 221.851 705.604 221.087 705.833 220.385C706.062 219.677 706.403 219.059 706.854 218.531C707.306 218.003 707.872 217.594 708.552 217.302C709.233 217.003 710.024 216.854 710.927 216.854C711.726 216.854 712.441 216.983 713.073 217.24C713.705 217.497 714.24 217.865 714.677 218.344C715.122 218.823 715.458 219.403 715.687 220.083C715.924 220.764 716.042 221.528 716.042 222.375V223.802H706.833V221.604H712.615V221.333C712.622 220.958 712.556 220.639 712.417 220.375C712.285 220.111 712.09 219.91 711.833 219.771C711.576 219.632 711.264 219.562 710.896 219.562C710.514 219.562 710.198 219.646 709.948 219.812C709.705 219.979 709.514 220.208 709.375 220.5C709.243 220.785 709.149 221.115 709.094 221.49C709.038 221.865 709.01 222.26 709.01 222.677V223.073C709.01 223.49 709.066 223.868 709.177 224.208C709.295 224.549 709.462 224.84 709.677 225.083C709.899 225.319 710.163 225.503 710.469 225.635C710.781 225.767 711.135 225.833 711.531 225.833C712.01 225.833 712.483 225.743 712.948 225.562C713.413 225.382 713.812 225.083 714.146 224.667L715.74 226.562C715.51 226.889 715.184 227.205 714.76 227.51C714.344 227.816 713.844 228.066 713.26 228.26C712.677 228.448 712.024 228.542 711.302 228.542Z" fill="white"/>
<rect x="803" y="196.333" width="208" height="49.3333" rx="4.66667" fill="#888888" stroke="#888888" stroke-width="4"/>
<path d="M882.042 213.167V228.333H878.385V213.167H882.042ZM887.937 219.479V222.292H881V219.479H887.937ZM888.531 213.167V215.99H881V213.167H888.531ZM893.594 217.062V228.333H890.073V217.062H893.594ZM889.865 214.156C889.865 213.656 890.045 213.247 890.406 212.927C890.767 212.608 891.236 212.448 891.812 212.448C892.389 212.448 892.858 212.608 893.219 212.927C893.58 213.247 893.76 213.656 893.76 214.156C893.76 214.656 893.58 215.066 893.219 215.385C892.858 215.705 892.389 215.865 891.812 215.865C891.236 215.865 890.767 215.705 890.406 215.385C890.045 215.066 889.865 214.656 889.865 214.156ZM902.844 217.062H906.031V227.896C906.031 228.937 905.792 229.819 905.312 230.542C904.833 231.271 904.163 231.823 903.302 232.198C902.448 232.58 901.448 232.771 900.302 232.771C899.795 232.771 899.278 232.705 898.75 232.573C898.222 232.448 897.729 232.26 897.271 232.01C896.812 231.76 896.427 231.451 896.115 231.083L897.583 229.021C897.868 229.34 898.226 229.611 898.656 229.833C899.087 230.062 899.594 230.177 900.177 230.177C900.684 230.177 901.108 230.087 901.448 229.906C901.795 229.726 902.059 229.462 902.24 229.115C902.42 228.774 902.51 228.361 902.51 227.875V219.729L902.844 217.062ZM895.354 222.833V222.615C895.354 221.76 895.458 220.983 895.667 220.281C895.882 219.573 896.187 218.965 896.583 218.458C896.986 217.944 897.472 217.549 898.042 217.271C898.611 216.993 899.253 216.854 899.969 216.854C900.74 216.854 901.372 217.003 901.865 217.302C902.365 217.594 902.764 218.003 903.062 218.531C903.368 219.059 903.604 219.677 903.771 220.385C903.944 221.087 904.09 221.844 904.208 222.656V222.917C904.09 223.681 903.927 224.403 903.719 225.083C903.517 225.757 903.253 226.354 902.927 226.875C902.601 227.396 902.191 227.806 901.698 228.104C901.212 228.396 900.628 228.542 899.948 228.542C899.24 228.542 898.601 228.399 898.031 228.115C897.469 227.83 896.986 227.431 896.583 226.917C896.187 226.403 895.882 225.799 895.667 225.104C895.458 224.41 895.354 223.653 895.354 222.833ZM898.865 222.615V222.833C898.865 223.257 898.903 223.649 898.979 224.01C899.062 224.372 899.187 224.691 899.354 224.969C899.521 225.24 899.726 225.451 899.969 225.604C900.219 225.757 900.51 225.833 900.844 225.833C901.351 225.833 901.76 225.726 902.073 225.51C902.385 225.295 902.611 224.99 902.75 224.594C902.889 224.198 902.948 223.733 902.927 223.198V222.375C902.941 221.917 902.91 221.514 902.833 221.167C902.757 220.812 902.635 220.517 902.469 220.281C902.309 220.045 902.094 219.868 901.823 219.75C901.559 219.625 901.24 219.562 900.865 219.562C900.538 219.562 900.25 219.639 900 219.792C899.75 219.944 899.542 220.16 899.375 220.437C899.208 220.708 899.08 221.031 898.99 221.406C898.906 221.774 898.865 222.177 898.865 222.615ZM911.594 219.448V228.333H908.083V217.062H911.375L911.594 219.448ZM911.167 222.312L910.365 222.333C910.365 221.542 910.458 220.812 910.646 220.146C910.833 219.479 911.111 218.899 911.479 218.406C911.847 217.913 912.299 217.531 912.833 217.26C913.375 216.99 914 216.854 914.708 216.854C915.201 216.854 915.649 216.931 916.052 217.083C916.455 217.229 916.802 217.462 917.094 217.781C917.385 218.094 917.608 218.503 917.76 219.01C917.92 219.51 918 220.111 918 220.812V228.333H914.49V221.26C914.49 220.781 914.434 220.42 914.323 220.177C914.219 219.934 914.066 219.771 913.865 219.687C913.663 219.604 913.417 219.562 913.125 219.562C912.819 219.562 912.545 219.632 912.302 219.771C912.059 219.91 911.851 220.104 911.677 220.354C911.51 220.597 911.382 220.885 911.292 221.219C911.208 221.552 911.167 221.917 911.167 222.312ZM917.604 222.312L916.625 222.333C916.625 221.542 916.712 220.812 916.885 220.146C917.066 219.479 917.333 218.899 917.688 218.406C918.049 217.913 918.497 217.531 919.031 217.26C919.566 216.99 920.188 216.854 920.896 216.854C921.41 216.854 921.882 216.931 922.313 217.083C922.743 217.236 923.115 217.483 923.427 217.823C923.74 218.163 923.983 218.615 924.156 219.177C924.33 219.733 924.417 220.42 924.417 221.24V228.333H920.896V221.24C920.896 220.774 920.84 220.424 920.729 220.187C920.625 219.944 920.472 219.781 920.271 219.698C920.069 219.608 919.83 219.562 919.552 219.562C919.219 219.562 918.931 219.632 918.688 219.771C918.444 219.91 918.24 220.104 918.073 220.354C917.913 220.597 917.795 220.885 917.719 221.219C917.642 221.552 917.604 221.917 917.604 222.312ZM932.281 225.5V220.854C932.281 220.535 932.236 220.26 932.146 220.031C932.056 219.802 931.913 219.625 931.719 219.5C931.524 219.368 931.264 219.302 930.938 219.302C930.674 219.302 930.448 219.347 930.26 219.437C930.073 219.528 929.931 219.663 929.833 219.844C929.736 220.024 929.688 220.253 929.688 220.531H926.177C926.177 220.01 926.292 219.528 926.521 219.083C926.757 218.632 927.09 218.24 927.521 217.906C927.958 217.573 928.479 217.316 929.083 217.135C929.694 216.948 930.375 216.854 931.125 216.854C932.021 216.854 932.819 217.003 933.521 217.302C934.229 217.601 934.788 218.049 935.198 218.646C935.608 219.236 935.813 219.979 935.813 220.875V225.49C935.813 226.226 935.854 226.785 935.938 227.167C936.021 227.542 936.139 227.872 936.292 228.156V228.333H932.771C932.604 227.986 932.479 227.562 932.396 227.062C932.319 226.556 932.281 226.035 932.281 225.5ZM932.708 221.448L932.729 223.323H931.177C930.851 223.323 930.573 223.368 930.344 223.458C930.122 223.549 929.941 223.674 929.802 223.833C929.67 223.986 929.573 224.16 929.51 224.354C929.455 224.549 929.427 224.753 929.427 224.969C929.427 225.177 929.476 225.365 929.573 225.531C929.677 225.691 929.816 225.816 929.99 225.906C930.163 225.997 930.358 226.042 930.573 226.042C930.962 226.042 931.292 225.969 931.563 225.823C931.84 225.67 932.052 225.486 932.198 225.271C932.344 225.056 932.417 224.854 932.417 224.667L933.188 226.104C933.049 226.382 932.889 226.663 932.708 226.948C932.535 227.233 932.316 227.497 932.052 227.74C931.795 227.976 931.479 228.17 931.104 228.323C930.729 228.469 930.274 228.542 929.74 228.542C929.045 228.542 928.406 228.399 927.823 228.115C927.247 227.83 926.785 227.434 926.438 226.927C926.09 226.413 925.917 225.823 925.917 225.156C925.917 224.573 926.021 224.052 926.229 223.594C926.444 223.135 926.767 222.747 927.198 222.427C927.628 222.108 928.177 221.865 928.844 221.698C929.51 221.531 930.295 221.448 931.198 221.448H932.708Z" fill="white"/>
</svg>
