<svg width="1363" height="167" viewBox="0 0 1363 167" fill="none" xmlns="http://www.w3.org/2000/svg">
<rect width="1363" height="167" rx="15" fill="#F0F0F0"/>
<path d="M0 15C0 6.71573 6.71573 0 15 0H37V167H15C6.71573 167 0 160.284 0 152V15Z" fill="#424241"/>
<path d="M100.906 54.9219L93.3945 52.2383V49.0859L103.602 53.375V55.6367L100.906 54.9219ZM93.3945 57.1719L100.918 54.4297L103.602 53.7852V56.0352L93.3945 60.3242V57.1719Z" fill="#888888"/>
<path d="M125.459 59.8353V62H114.829V59.8353H125.459ZM115.366 41.9244V62H112.705V41.9244H115.366ZM124.053 50.5558V52.7206H114.829V50.5558H124.053ZM125.321 41.9244V44.103H114.829V41.9244H125.321ZM131.14 40.8214V62H128.575V40.8214H131.14ZM144.639 59.1045V40.8214H147.203V62H144.859L144.639 59.1045ZM134.601 54.7061V54.4165C134.601 53.2767 134.739 52.2426 135.014 51.3142C135.299 50.3766 135.699 49.5723 136.214 48.9012C136.738 48.2302 137.358 47.7155 138.075 47.357C138.802 46.9893 139.61 46.8054 140.502 46.8054C141.44 46.8054 142.258 46.9709 142.956 47.3018C143.664 47.6235 144.262 48.0969 144.749 48.722C145.245 49.3379 145.636 50.0824 145.921 50.9557C146.206 51.8289 146.403 52.8171 146.514 53.9201V55.1886C146.413 56.2825 146.215 57.2661 145.921 58.1393C145.636 59.0126 145.245 59.7571 144.749 60.373C144.262 60.9889 143.664 61.4623 142.956 61.7932C142.249 62.1149 141.421 62.2758 140.475 62.2758C139.601 62.2758 138.802 62.0873 138.075 61.7104C137.358 61.3336 136.738 60.805 136.214 60.1248C135.699 59.4446 135.299 58.6449 135.014 57.7257C134.739 56.7973 134.601 55.7907 134.601 54.7061ZM137.165 54.4165V54.7061C137.165 55.4506 137.239 56.1492 137.386 56.8019C137.542 57.4545 137.781 58.029 138.103 58.5254C138.425 59.0218 138.834 59.4124 139.33 59.6974C139.827 59.9731 140.419 60.111 141.109 60.111C141.954 60.111 142.648 59.9318 143.191 59.5733C143.742 59.2148 144.184 58.7414 144.514 58.1531C144.845 57.5648 145.103 56.926 145.287 56.2365V52.9136C145.176 52.408 145.015 51.9209 144.804 51.4521C144.602 50.9741 144.335 50.5512 144.004 50.1835C143.683 49.8067 143.283 49.5079 142.805 49.2873C142.336 49.0667 141.78 48.9564 141.136 48.9564C140.438 48.9564 139.836 49.1035 139.33 49.3976C138.834 49.6826 138.425 50.0778 138.103 50.5834C137.781 51.0798 137.542 51.6589 137.386 52.3207C137.239 52.9734 137.165 53.672 137.165 54.4165ZM157.365 62.2758C156.326 62.2758 155.384 62.1011 154.538 61.7518C153.702 61.3933 152.98 60.8924 152.374 60.2489C151.776 59.6055 151.317 58.8425 150.995 57.9601C150.673 57.0776 150.512 56.1125 150.512 55.0646V54.4855C150.512 53.2721 150.692 52.192 151.05 51.2452C151.409 50.2893 151.896 49.4803 152.512 48.8185C153.127 48.1567 153.826 47.6557 154.607 47.3156C155.389 46.9755 156.198 46.8054 157.034 46.8054C158.1 46.8054 159.02 46.9893 159.792 47.357C160.573 47.7247 161.212 48.2394 161.708 48.9012C162.205 49.5539 162.572 50.326 162.811 51.2177C163.05 52.1001 163.17 53.0653 163.17 54.1132V55.2576H152.029V53.1756H160.619V52.9825C160.582 52.3207 160.444 51.6773 160.205 51.0522C159.976 50.4271 159.608 49.9124 159.102 49.5079C158.597 49.1035 157.907 48.9012 157.034 48.9012C156.455 48.9012 155.922 49.0253 155.435 49.2735C154.948 49.5125 154.529 49.871 154.18 50.349C153.831 50.827 153.56 51.4107 153.366 52.1001C153.173 52.7895 153.077 53.5846 153.077 54.4855V55.0646C153.077 55.7723 153.173 56.4388 153.366 57.0638C153.569 57.6797 153.858 58.222 154.235 58.6908C154.621 59.1596 155.085 59.5273 155.628 59.7939C156.179 60.0605 156.804 60.1938 157.503 60.1938C158.404 60.1938 159.167 60.0099 159.792 59.6422C160.417 59.2745 160.964 58.7828 161.433 58.1669L162.977 59.394C162.655 59.8812 162.246 60.3454 161.75 60.7866C161.253 61.2279 160.642 61.5864 159.916 61.8621C159.199 62.1379 158.349 62.2758 157.365 62.2758ZM168.699 49.4252V62H166.148V47.0812H168.63L168.699 49.4252ZM173.359 46.9985L173.346 49.37C173.134 49.3241 172.932 49.2965 172.739 49.2873C172.555 49.2689 172.344 49.2597 172.105 49.2597C171.516 49.2597 170.997 49.3517 170.547 49.5355C170.096 49.7193 169.715 49.9767 169.402 50.3076C169.09 50.6386 168.841 51.0338 168.658 51.4934C168.483 51.9438 168.368 52.4402 168.313 52.9825L167.596 53.3962C167.596 52.4954 167.683 51.6497 167.858 50.8592C168.042 50.0686 168.322 49.37 168.699 48.7634C169.076 48.1475 169.554 47.6695 170.133 47.3294C170.721 46.9801 171.42 46.8054 172.229 46.8054C172.413 46.8054 172.624 46.8284 172.863 46.8744C173.102 46.9112 173.267 46.9525 173.359 46.9985ZM180.157 60.4557L184.307 47.0812H187.037L181.053 64.3026C180.915 64.6703 180.731 65.0656 180.502 65.4884C180.281 65.9204 179.996 66.3295 179.647 66.7156C179.297 67.1016 178.875 67.4142 178.378 67.6531C177.891 67.9013 177.307 68.0254 176.627 68.0254C176.425 68.0254 176.168 67.9978 175.855 67.9427C175.542 67.8875 175.322 67.8416 175.193 67.8048L175.179 65.7366C175.253 65.7458 175.368 65.755 175.524 65.7642C175.69 65.7826 175.804 65.7917 175.869 65.7917C176.448 65.7917 176.94 65.7136 177.344 65.5573C177.749 65.4103 178.089 65.1575 178.364 64.799C178.649 64.4497 178.893 63.9671 179.095 63.3512L180.157 60.4557ZM177.11 47.0812L180.984 58.6633L181.646 61.352L179.812 62.2896L174.324 47.0812H177.11ZM208.85 55.6161H211.497C211.359 56.8846 210.996 58.0198 210.408 59.0218C209.82 60.0237 208.988 60.8188 207.912 61.4071C206.837 61.9862 205.495 62.2758 203.886 62.2758C202.71 62.2758 201.639 62.0552 200.674 61.6139C199.718 61.1727 198.895 60.5476 198.206 59.7387C197.516 58.9206 196.983 57.9417 196.606 56.8019C196.238 55.6528 196.055 54.3751 196.055 52.9688V50.9695C196.055 49.5631 196.238 48.29 196.606 47.1502C196.983 46.0011 197.521 45.0176 198.219 44.1995C198.927 43.3814 199.777 42.7517 200.77 42.3105C201.763 41.8693 202.88 41.6487 204.121 41.6487C205.637 41.6487 206.92 41.9336 207.968 42.5035C209.016 43.0735 209.829 43.864 210.408 44.8751C210.996 45.877 211.359 47.0398 211.497 48.3635H208.85C208.721 47.4259 208.482 46.6216 208.133 45.9506C207.784 45.2704 207.287 44.7464 206.644 44.3787C206 44.011 205.159 43.8272 204.121 43.8272C203.229 43.8272 202.443 43.9973 201.763 44.3374C201.092 44.6775 200.527 45.1601 200.067 45.7851C199.617 46.4102 199.276 47.1593 199.047 48.0326C198.817 48.9058 198.702 49.8756 198.702 50.9419V52.9688C198.702 53.9523 198.803 54.8761 199.005 55.7402C199.217 56.6042 199.534 57.3626 199.957 58.0152C200.38 58.6679 200.917 59.1826 201.57 59.5595C202.223 59.9272 202.995 60.111 203.886 60.111C205.017 60.111 205.918 59.9318 206.589 59.5733C207.26 59.2148 207.765 58.7 208.105 58.029C208.455 57.358 208.703 56.5537 208.85 55.6161ZM214.062 54.7061V54.3889C214.062 53.3135 214.218 52.3161 214.531 51.3969C214.843 50.4685 215.294 49.6642 215.882 48.984C216.47 48.2946 217.183 47.7614 218.019 47.3845C218.856 46.9985 219.793 46.8054 220.832 46.8054C221.88 46.8054 222.822 46.9985 223.659 47.3845C224.504 47.7614 225.221 48.2946 225.809 48.984C226.407 49.6642 226.862 50.4685 227.175 51.3969C227.487 52.3161 227.643 53.3135 227.643 54.3889V54.7061C227.643 55.7815 227.487 56.7789 227.175 57.6981C226.862 58.6173 226.407 59.4216 225.809 60.111C225.221 60.7912 224.509 61.3244 223.672 61.7104C222.845 62.0873 221.907 62.2758 220.86 62.2758C219.812 62.2758 218.869 62.0873 218.033 61.7104C217.196 61.3244 216.479 60.7912 215.882 60.111C215.294 59.4216 214.843 58.6173 214.531 57.6981C214.218 56.7789 214.062 55.7815 214.062 54.7061ZM216.613 54.3889V54.7061C216.613 55.4506 216.7 56.1538 216.875 56.8157C217.049 57.4683 217.311 58.0474 217.661 58.553C218.019 59.0585 218.465 59.4584 218.998 59.7525C219.531 60.0375 220.152 60.18 220.86 60.18C221.558 60.18 222.169 60.0375 222.693 59.7525C223.226 59.4584 223.668 59.0585 224.017 58.553C224.366 58.0474 224.628 57.4683 224.803 56.8157C224.987 56.1538 225.079 55.4506 225.079 54.7061V54.3889C225.079 53.6536 224.987 52.9596 224.803 52.3069C224.628 51.6451 224.362 51.0614 224.003 50.5558C223.654 50.0411 223.213 49.6366 222.68 49.3425C222.156 49.0483 221.54 48.9012 220.832 48.9012C220.133 48.9012 219.517 49.0483 218.984 49.3425C218.46 49.6366 218.019 50.0411 217.661 50.5558C217.311 51.0614 217.049 51.6451 216.875 52.3069C216.7 52.9596 216.613 53.6536 216.613 54.3889ZM233.379 50.0457V62H230.815V47.0812H233.241L233.379 50.0457ZM232.855 53.9753L231.669 53.9339C231.679 52.9136 231.812 51.9714 232.069 51.1074C232.327 50.2341 232.708 49.4758 233.214 48.8323C233.719 48.1889 234.349 47.6925 235.103 47.3432C235.856 46.9847 236.73 46.8054 237.722 46.8054C238.421 46.8054 239.064 46.9066 239.653 47.1088C240.241 47.3018 240.751 47.6098 241.183 48.0326C241.615 48.4554 241.951 48.9978 242.19 49.6596C242.429 50.3214 242.548 51.1211 242.548 52.0587V62H239.997V52.1828C239.997 51.4015 239.864 50.7764 239.598 50.3076C239.34 49.8388 238.973 49.4987 238.495 49.2873C238.017 49.0667 237.456 48.9564 236.812 48.9564C236.059 48.9564 235.429 49.0897 234.923 49.3563C234.418 49.6228 234.013 49.9905 233.71 50.4593C233.407 50.9281 233.186 51.4658 233.048 52.0725C232.92 52.67 232.855 53.3043 232.855 53.9753ZM242.521 52.5689L240.811 53.0928C240.82 52.2748 240.953 51.4888 241.211 50.7351C241.477 49.9813 241.859 49.3103 242.355 48.722C242.861 48.1337 243.481 47.6695 244.217 47.3294C244.952 46.9801 245.793 46.8054 246.74 46.8054C247.54 46.8054 248.247 46.9112 248.863 47.1226C249.488 47.334 250.012 47.6603 250.435 48.1015C250.867 48.5336 251.193 49.0897 251.414 49.7699C251.635 50.4501 251.745 51.259 251.745 52.1966V62H249.18V52.169C249.18 51.3326 249.047 50.6845 248.781 50.2249C248.523 49.7561 248.155 49.4298 247.678 49.246C247.209 49.0529 246.648 48.9564 245.995 48.9564C245.435 48.9564 244.938 49.0529 244.506 49.246C244.074 49.439 243.711 49.7056 243.417 50.0457C243.123 50.3766 242.898 50.7581 242.741 51.1901C242.594 51.6221 242.521 52.0817 242.521 52.5689ZM258.157 49.9491V67.7359H255.592V47.0812H257.936L258.157 49.9491ZM268.208 54.4165V54.7061C268.208 55.7907 268.079 56.7973 267.822 57.7257C267.565 58.6449 267.188 59.4446 266.691 60.1248C266.204 60.805 265.602 61.3336 264.885 61.7104C264.168 62.0873 263.345 62.2758 262.417 62.2758C261.47 62.2758 260.634 62.1195 259.908 61.807C259.181 61.4944 258.566 61.0394 258.06 60.4419C257.554 59.8445 257.15 59.1275 256.847 58.291C256.552 57.4545 256.35 56.5123 256.24 55.4644V53.9201C256.35 52.8171 256.557 51.8289 256.86 50.9557C257.164 50.0824 257.564 49.3379 258.06 48.722C258.566 48.0969 259.177 47.6235 259.894 47.3018C260.611 46.9709 261.438 46.8054 262.376 46.8054C263.313 46.8054 264.145 46.9893 264.871 47.357C265.598 47.7155 266.209 48.2302 266.705 48.9012C267.202 49.5723 267.574 50.3766 267.822 51.3142C268.079 52.2426 268.208 53.2767 268.208 54.4165ZM265.643 54.7061V54.4165C265.643 53.672 265.565 52.9734 265.409 52.3207C265.253 51.6589 265.009 51.0798 264.678 50.5834C264.357 50.0778 263.943 49.6826 263.437 49.3976C262.932 49.1035 262.33 48.9564 261.631 48.9564C260.988 48.9564 260.427 49.0667 259.949 49.2873C259.48 49.5079 259.08 49.8067 258.749 50.1835C258.418 50.5512 258.147 50.9741 257.936 51.4521C257.734 51.9209 257.582 52.408 257.481 52.9136V56.4847C257.665 57.1282 257.922 57.7349 258.253 58.3048C258.584 58.8655 259.025 59.3205 259.577 59.6698C260.128 60.0099 260.822 60.18 261.659 60.18C262.348 60.18 262.941 60.0375 263.437 59.7525C263.943 59.4584 264.357 59.0585 264.678 58.553C265.009 58.0474 265.253 57.4683 265.409 56.8157C265.565 56.1538 265.643 55.4506 265.643 54.7061ZM280.259 59.4492V51.7692C280.259 51.1809 280.139 50.6707 279.9 50.2387C279.671 49.7975 279.321 49.4574 278.853 49.2184C278.384 48.9794 277.805 48.8599 277.115 48.8599C276.472 48.8599 275.906 48.9702 275.419 49.1908C274.941 49.4114 274.564 49.701 274.289 50.0595C274.022 50.4179 273.889 50.804 273.889 51.2177H271.338C271.338 50.6845 271.476 50.156 271.752 49.632C272.027 49.1081 272.423 48.6347 272.937 48.2118C273.461 47.7798 274.086 47.4397 274.813 47.1915C275.548 46.9341 276.366 46.8054 277.267 46.8054C278.352 46.8054 279.308 46.9893 280.135 47.357C280.971 47.7247 281.624 48.2808 282.093 49.0253C282.571 49.7607 282.81 50.6845 282.81 51.7968V58.746C282.81 59.2424 282.851 59.7709 282.934 60.3316C283.026 60.8924 283.159 61.3749 283.334 61.7794V62H280.673C280.544 61.7059 280.443 61.3152 280.369 60.828C280.296 60.3316 280.259 59.872 280.259 59.4492ZM280.7 52.955L280.728 54.7474H278.149C277.423 54.7474 276.775 54.8072 276.205 54.9267C275.635 55.037 275.157 55.207 274.771 55.4368C274.385 55.6666 274.091 55.9562 273.889 56.3055C273.687 56.6456 273.585 57.0455 273.585 57.5051C273.585 57.9739 273.691 58.4013 273.903 58.7874C274.114 59.1734 274.431 59.4814 274.854 59.7112C275.286 59.9318 275.815 60.0421 276.44 60.0421C277.221 60.0421 277.91 59.8766 278.508 59.5457C279.105 59.2148 279.579 58.8103 279.928 58.3323C280.287 57.8544 280.48 57.3902 280.507 56.9397L281.596 58.1669C281.532 58.553 281.357 58.9804 281.072 59.4492C280.787 59.918 280.406 60.3684 279.928 60.8004C279.459 61.2233 278.899 61.5772 278.246 61.8621C277.602 62.1379 276.876 62.2758 276.067 62.2758C275.056 62.2758 274.169 62.0781 273.406 61.6829C272.652 61.2876 272.064 60.7591 271.641 60.0972C271.228 59.4262 271.021 58.6771 271.021 57.8498C271.021 57.0501 271.177 56.3469 271.49 55.7402C271.802 55.1243 272.253 54.6141 272.841 54.2097C273.429 53.796 274.137 53.4835 274.964 53.2721C275.792 53.0607 276.715 52.955 277.736 52.955H280.7ZM289.373 50.2663V62H286.822V47.0812H289.235L289.373 50.2663ZM288.766 53.9753L287.705 53.9339C287.714 52.9136 287.865 51.9714 288.16 51.1074C288.454 50.2341 288.867 49.4758 289.4 48.8323C289.934 48.1889 290.568 47.6925 291.303 47.3432C292.048 46.9847 292.87 46.8054 293.771 46.8054C294.507 46.8054 295.169 46.9066 295.757 47.1088C296.345 47.3018 296.846 47.6144 297.26 48.0464C297.683 48.4784 298.004 49.0391 298.225 49.7285C298.446 50.4088 298.556 51.2406 298.556 52.2242V62H295.991V52.1966C295.991 51.4153 295.876 50.7902 295.647 50.3214C295.417 49.8434 295.081 49.4987 294.64 49.2873C294.199 49.0667 293.656 48.9564 293.013 48.9564C292.379 48.9564 291.8 49.0897 291.276 49.3563C290.761 49.6228 290.315 49.9905 289.938 50.4593C289.571 50.9281 289.281 51.4658 289.07 52.0725C288.867 52.67 288.766 53.3043 288.766 53.9753ZM305.202 47.0812V62H302.637V47.0812H305.202ZM302.444 43.124C302.444 42.7104 302.568 42.3611 302.816 42.0761C303.074 41.7912 303.451 41.6487 303.947 41.6487C304.434 41.6487 304.806 41.7912 305.064 42.0761C305.33 42.3611 305.464 42.7104 305.464 43.124C305.464 43.5193 305.33 43.8594 305.064 44.1443C304.806 44.4201 304.434 44.558 303.947 44.558C303.451 44.558 303.074 44.4201 302.816 44.1443C302.568 43.8594 302.444 43.5193 302.444 43.124ZM308.621 54.7061V54.3889C308.621 53.3135 308.777 52.3161 309.09 51.3969C309.403 50.4685 309.853 49.6642 310.441 48.984C311.03 48.2946 311.742 47.7614 312.578 47.3845C313.415 46.9985 314.352 46.8054 315.391 46.8054C316.439 46.8054 317.381 46.9985 318.218 47.3845C319.063 47.7614 319.78 48.2946 320.369 48.984C320.966 49.6642 321.421 50.4685 321.734 51.3969C322.046 52.3161 322.203 53.3135 322.203 54.3889V54.7061C322.203 55.7815 322.046 56.7789 321.734 57.6981C321.421 58.6173 320.966 59.4216 320.369 60.111C319.78 60.7912 319.068 61.3244 318.232 61.7104C317.404 62.0873 316.467 62.2758 315.419 62.2758C314.371 62.2758 313.429 62.0873 312.592 61.7104C311.756 61.3244 311.039 60.7912 310.441 60.111C309.853 59.4216 309.403 58.6173 309.09 57.6981C308.777 56.7789 308.621 55.7815 308.621 54.7061ZM311.172 54.3889V54.7061C311.172 55.4506 311.259 56.1538 311.434 56.8157C311.609 57.4683 311.871 58.0474 312.22 58.553C312.578 59.0585 313.024 59.4584 313.557 59.7525C314.09 60.0375 314.711 60.18 315.419 60.18C316.117 60.18 316.729 60.0375 317.253 59.7525C317.786 59.4584 318.227 59.0585 318.576 58.553C318.926 58.0474 319.187 57.4683 319.362 56.8157C319.546 56.1538 319.638 55.4506 319.638 54.7061V54.3889C319.638 53.6536 319.546 52.9596 319.362 52.3069C319.187 51.6451 318.921 51.0614 318.562 50.5558C318.213 50.0411 317.772 49.6366 317.239 49.3425C316.715 49.0483 316.099 48.9012 315.391 48.9012C314.693 48.9012 314.077 49.0483 313.544 49.3425C313.02 49.6366 312.578 50.0411 312.22 50.5558C311.871 51.0614 311.609 51.6451 311.434 52.3069C311.259 52.9596 311.172 53.6536 311.172 54.3889ZM327.952 50.2663V62H325.401V47.0812H327.814L327.952 50.2663ZM327.346 53.9753L326.284 53.9339C326.293 52.9136 326.445 51.9714 326.739 51.1074C327.033 50.2341 327.447 49.4758 327.98 48.8323C328.513 48.1889 329.147 47.6925 329.883 47.3432C330.627 46.9847 331.45 46.8054 332.351 46.8054C333.086 46.8054 333.748 46.9066 334.336 47.1088C334.924 47.3018 335.425 47.6144 335.839 48.0464C336.262 48.4784 336.584 49.0391 336.804 49.7285C337.025 50.4088 337.135 51.2406 337.135 52.2242V62H334.571V52.1966C334.571 51.4153 334.456 50.7902 334.226 50.3214C333.996 49.8434 333.66 49.4987 333.219 49.2873C332.778 49.0667 332.236 48.9564 331.592 48.9564C330.958 48.9564 330.379 49.0897 329.855 49.3563C329.34 49.6228 328.894 49.9905 328.517 50.4593C328.15 50.9281 327.86 51.4658 327.649 52.0725C327.447 52.67 327.346 53.3043 327.346 53.9753Z" fill="#424241"/>
<path d="M109.93 86.0078V118H102.217V86.0078H109.93ZM119.554 86.0078V91.9624H92.813V86.0078H119.554ZM132.012 118.439C130.079 118.439 128.35 118.139 126.827 117.539C125.303 116.923 124.014 116.081 122.959 115.012C121.919 113.942 121.121 112.712 120.564 111.32C120.022 109.929 119.751 108.457 119.751 106.904V106.069C119.751 104.326 119.993 102.714 120.477 101.235C120.96 99.7407 121.678 98.437 122.63 97.3237C123.582 96.2104 124.776 95.3462 126.211 94.731C127.647 94.1011 129.317 93.7861 131.221 93.7861C132.906 93.7861 134.415 94.0571 135.748 94.5991C137.081 95.1411 138.208 95.9175 139.131 96.9282C140.069 97.939 140.779 99.1621 141.263 100.598C141.761 102.033 142.01 103.645 142.01 105.432V108.442H122.586V103.806H134.781V103.234C134.795 102.443 134.656 101.77 134.363 101.213C134.085 100.656 133.675 100.231 133.133 99.9385C132.591 99.6455 131.932 99.499 131.155 99.499C130.35 99.499 129.683 99.6748 129.156 100.026C128.643 100.378 128.24 100.861 127.947 101.477C127.669 102.077 127.471 102.773 127.354 103.564C127.237 104.355 127.178 105.19 127.178 106.069V106.904C127.178 107.783 127.295 108.581 127.53 109.299C127.779 110.017 128.13 110.632 128.584 111.145C129.053 111.643 129.61 112.031 130.254 112.309C130.914 112.587 131.661 112.727 132.496 112.727C133.506 112.727 134.502 112.536 135.484 112.155C136.465 111.774 137.308 111.145 138.011 110.266L141.373 114.265C140.889 114.953 140.201 115.62 139.307 116.264C138.428 116.909 137.374 117.436 136.143 117.846C134.913 118.242 133.536 118.439 132.012 118.439ZM155.062 112.727C155.75 112.727 156.336 112.602 156.819 112.353C157.317 112.089 157.691 111.723 157.94 111.254C158.204 110.771 158.328 110.192 158.313 109.519H165.279C165.293 111.306 164.854 112.873 163.96 114.221C163.082 115.554 161.88 116.594 160.357 117.341C158.848 118.073 157.142 118.439 155.237 118.439C153.377 118.439 151.751 118.139 150.359 117.539C148.968 116.923 147.803 116.074 146.866 114.99C145.943 113.891 145.247 112.609 144.778 111.145C144.324 109.68 144.097 108.09 144.097 106.376V105.871C144.097 104.157 144.324 102.568 144.778 101.103C145.247 99.6235 145.943 98.3418 146.866 97.2578C147.803 96.1592 148.96 95.3096 150.337 94.709C151.729 94.0938 153.348 93.7861 155.193 93.7861C157.171 93.7861 158.914 94.1597 160.423 94.9067C161.946 95.6538 163.14 96.7378 164.004 98.1587C164.869 99.5796 165.293 101.301 165.279 103.322H158.313C158.328 102.604 158.218 101.96 157.984 101.389C157.75 100.817 157.383 100.363 156.885 100.026C156.402 99.6748 155.779 99.499 155.018 99.499C154.256 99.499 153.641 99.6675 153.172 100.004C152.703 100.341 152.344 100.81 152.095 101.411C151.861 101.997 151.7 102.67 151.612 103.432C151.539 104.194 151.502 105.007 151.502 105.871V106.376C151.502 107.255 151.539 108.083 151.612 108.859C151.7 109.621 151.868 110.295 152.117 110.881C152.366 111.452 152.725 111.906 153.194 112.243C153.663 112.565 154.285 112.727 155.062 112.727ZM175.694 84.25V118H168.289V84.25H175.694ZM174.815 105.3L173.079 105.344C173.079 103.674 173.284 102.136 173.694 100.729C174.104 99.3232 174.69 98.1001 175.452 97.0601C176.214 96.02 177.129 95.2144 178.199 94.6431C179.268 94.0718 180.455 93.7861 181.758 93.7861C182.93 93.7861 184 93.9546 184.966 94.2915C185.948 94.6284 186.79 95.1704 187.493 95.9175C188.211 96.6646 188.76 97.6387 189.141 98.8398C189.537 100.041 189.734 101.506 189.734 103.234V118H182.286V103.19C182.286 102.224 182.146 101.477 181.868 100.949C181.604 100.407 181.224 100.034 180.726 99.8286C180.228 99.6089 179.62 99.499 178.902 99.499C178.038 99.499 177.334 99.6455 176.792 99.9385C176.25 100.231 175.833 100.642 175.54 101.169C175.262 101.682 175.071 102.29 174.969 102.993C174.866 103.696 174.815 104.465 174.815 105.3ZM221.88 109.497C221.88 108.999 221.807 108.552 221.661 108.156C221.514 107.746 221.243 107.365 220.848 107.014C220.452 106.662 219.881 106.311 219.134 105.959C218.401 105.593 217.435 105.212 216.233 104.816C214.827 104.348 213.472 103.82 212.168 103.234C210.865 102.634 209.7 101.938 208.675 101.147C207.649 100.341 206.836 99.4038 206.236 98.3345C205.635 97.2505 205.335 95.9907 205.335 94.5552C205.335 93.1782 205.643 91.9404 206.258 90.8418C206.873 89.7285 207.73 88.7837 208.829 88.0073C209.942 87.2163 211.246 86.6157 212.74 86.2056C214.234 85.7808 215.867 85.5684 217.64 85.5684C219.983 85.5684 222.049 85.9785 223.836 86.7988C225.638 87.6045 227.044 88.7544 228.055 90.2485C229.08 91.728 229.593 93.4785 229.593 95.5H221.924C221.924 94.6943 221.756 93.9839 221.419 93.3687C221.097 92.7534 220.606 92.27 219.947 91.9185C219.288 91.5669 218.46 91.3911 217.464 91.3911C216.497 91.3911 215.684 91.5376 215.025 91.8306C214.366 92.1235 213.868 92.519 213.531 93.0171C213.194 93.5005 213.025 94.0352 213.025 94.6211C213.025 95.1045 213.157 95.5439 213.421 95.9395C213.699 96.3203 214.087 96.6792 214.585 97.0161C215.098 97.353 215.713 97.6753 216.431 97.9829C217.164 98.2905 217.984 98.5908 218.892 98.8838C220.591 99.4258 222.1 100.034 223.418 100.708C224.751 101.367 225.872 102.121 226.78 102.971C227.703 103.806 228.399 104.758 228.868 105.827C229.351 106.896 229.593 108.105 229.593 109.453C229.593 110.888 229.314 112.163 228.758 113.276C228.201 114.389 227.403 115.334 226.363 116.11C225.323 116.872 224.078 117.451 222.627 117.846C221.177 118.242 219.559 118.439 217.771 118.439C216.131 118.439 214.512 118.234 212.916 117.824C211.333 117.399 209.898 116.755 208.609 115.891C207.32 115.012 206.287 113.891 205.511 112.529C204.749 111.152 204.368 109.519 204.368 107.629H212.103C212.103 108.566 212.227 109.357 212.476 110.002C212.725 110.646 213.091 111.167 213.575 111.562C214.058 111.943 214.651 112.221 215.354 112.397C216.058 112.558 216.863 112.639 217.771 112.639C218.753 112.639 219.544 112.5 220.145 112.221C220.745 111.928 221.185 111.547 221.463 111.079C221.741 110.595 221.88 110.068 221.88 109.497ZM245.743 94.2256V99.3672H231.417V94.2256H245.743ZM234.427 88.3149H241.832V110.244C241.832 110.874 241.905 111.364 242.051 111.716C242.198 112.053 242.447 112.294 242.798 112.441C243.165 112.573 243.648 112.639 244.249 112.639C244.673 112.639 245.025 112.631 245.303 112.617C245.582 112.587 245.845 112.551 246.094 112.507V117.802C245.464 118.007 244.805 118.161 244.117 118.264C243.428 118.381 242.696 118.439 241.919 118.439C240.337 118.439 238.982 118.19 237.854 117.692C236.741 117.194 235.892 116.411 235.306 115.341C234.72 114.272 234.427 112.88 234.427 111.167V88.3149ZM261.036 112.023V102.224C261.036 101.55 260.94 100.971 260.75 100.488C260.56 100.004 260.259 99.6309 259.849 99.3672C259.439 99.0889 258.89 98.9497 258.201 98.9497C257.645 98.9497 257.168 99.0449 256.773 99.2354C256.377 99.4258 256.077 99.7114 255.872 100.092C255.667 100.473 255.564 100.957 255.564 101.542H248.16C248.16 100.444 248.401 99.4258 248.885 98.4883C249.383 97.5361 250.086 96.7085 250.994 96.0054C251.917 95.3022 253.016 94.7603 254.29 94.3794C255.579 93.9839 257.015 93.7861 258.597 93.7861C260.486 93.7861 262.171 94.1011 263.65 94.731C265.145 95.3608 266.324 96.3057 267.188 97.5654C268.052 98.8105 268.484 100.378 268.484 102.268V112.001C268.484 113.554 268.572 114.733 268.748 115.539C268.924 116.33 269.173 117.026 269.495 117.626V118H262.068C261.717 117.268 261.453 116.374 261.277 115.319C261.116 114.25 261.036 113.151 261.036 112.023ZM261.937 103.476L261.98 107.431H258.707C258.018 107.431 257.432 107.526 256.949 107.717C256.48 107.907 256.099 108.171 255.806 108.508C255.528 108.83 255.323 109.196 255.191 109.606C255.074 110.017 255.015 110.449 255.015 110.903C255.015 111.342 255.118 111.738 255.323 112.089C255.542 112.426 255.835 112.69 256.202 112.88C256.568 113.071 256.978 113.166 257.432 113.166C258.252 113.166 258.948 113.012 259.52 112.705C260.105 112.382 260.552 111.994 260.86 111.54C261.167 111.086 261.321 110.661 261.321 110.266L262.947 113.298C262.654 113.884 262.317 114.477 261.937 115.078C261.57 115.678 261.109 116.235 260.552 116.748C260.01 117.246 259.344 117.656 258.553 117.978C257.762 118.286 256.802 118.439 255.674 118.439C254.209 118.439 252.862 118.139 251.631 117.539C250.416 116.938 249.441 116.103 248.709 115.034C247.977 113.95 247.61 112.705 247.61 111.298C247.61 110.068 247.83 108.969 248.27 108.002C248.724 107.036 249.405 106.215 250.313 105.542C251.221 104.868 252.378 104.355 253.785 104.003C255.191 103.652 256.846 103.476 258.75 103.476H261.937ZM282.635 112.727C283.323 112.727 283.909 112.602 284.393 112.353C284.891 112.089 285.264 111.723 285.513 111.254C285.777 110.771 285.901 110.192 285.887 109.519H292.852C292.867 111.306 292.427 112.873 291.534 114.221C290.655 115.554 289.454 116.594 287.93 117.341C286.421 118.073 284.715 118.439 282.811 118.439C280.95 118.439 279.324 118.139 277.933 117.539C276.541 116.923 275.376 116.074 274.439 114.99C273.516 113.891 272.82 112.609 272.352 111.145C271.897 109.68 271.67 108.09 271.67 106.376V105.871C271.67 104.157 271.897 102.568 272.352 101.103C272.82 99.6235 273.516 98.3418 274.439 97.2578C275.376 96.1592 276.534 95.3096 277.911 94.709C279.302 94.0938 280.921 93.7861 282.767 93.7861C284.744 93.7861 286.487 94.1597 287.996 94.9067C289.52 95.6538 290.713 96.7378 291.578 98.1587C292.442 99.5796 292.867 101.301 292.852 103.322H285.887C285.901 102.604 285.792 101.96 285.557 101.389C285.323 100.817 284.957 100.363 284.458 100.026C283.975 99.6748 283.353 99.499 282.591 99.499C281.829 99.499 281.214 99.6675 280.745 100.004C280.276 100.341 279.917 100.81 279.668 101.411C279.434 101.997 279.273 102.67 279.185 103.432C279.112 104.194 279.075 105.007 279.075 105.871V106.376C279.075 107.255 279.112 108.083 279.185 108.859C279.273 109.621 279.441 110.295 279.69 110.881C279.939 111.452 280.298 111.906 280.767 112.243C281.236 112.565 281.858 112.727 282.635 112.727ZM303.487 84.228V118H296.082V84.228H303.487ZM318.692 94.2256L308.365 106.333L302.959 111.738L299.729 107.036L304.234 101.169L309.815 94.2256H318.692ZM310.76 118L304.41 107.167L309.881 103.278L319.241 118H310.76Z" fill="#424241"/>
<path d="M1363 15C1363 6.71573 1356.28 0 1348 0H1134V167H1348C1356.28 167 1363 160.284 1363 152V15Z" fill="#1A75BC"/>
<path fill-rule="evenodd" clip-rule="evenodd" d="M1218.5 55C1218.37 55 1218.24 55.0527 1218.15 55.1464C1218.05 55.2402 1218 55.3674 1218 55.5V111.5C1218 111.633 1218.05 111.76 1218.15 111.854C1218.24 111.947 1218.37 112 1218.5 112H1278C1278.13 112 1278.26 111.947 1278.35 111.854C1278.45 111.76 1278.5 111.633 1278.5 111.5V66C1278.5 65.8674 1278.45 65.7402 1278.35 65.6464C1278.26 65.5527 1278.13 65.5 1278 65.5H1248.25C1247.36 65.5 1246.52 65.1045 1245.95 64.4206L1238.09 55H1218.5ZM1213.9 50.9038C1215.12 49.6848 1216.78 49 1218.5 49H1239.5C1240.39 49 1241.23 49.3955 1241.8 50.0794L1249.66 59.5H1278C1279.72 59.5 1281.38 60.1848 1282.6 61.4038C1283.82 62.6228 1284.5 64.2761 1284.5 66V111.5C1284.5 113.224 1283.82 114.877 1282.6 116.096C1281.38 117.315 1279.72 118 1278 118H1218.5C1216.78 118 1215.12 117.315 1213.9 116.096C1212.68 114.877 1212 113.224 1212 111.5V55.5C1212 53.7761 1212.68 52.1228 1213.9 50.9038Z" fill="white"/>
<path fill-rule="evenodd" clip-rule="evenodd" d="M1243.72 77.5251C1245.09 78.892 1245.09 81.108 1243.72 82.4749L1237.45 88.75L1243.72 95.0251C1245.09 96.392 1245.09 98.608 1243.72 99.9749C1242.36 101.342 1240.14 101.342 1238.78 99.9749L1230.03 91.2249C1228.66 89.858 1228.66 87.642 1230.03 86.2751L1238.78 77.5251C1240.14 76.1583 1242.36 76.1583 1243.72 77.5251Z" fill="white"/>
<path fill-rule="evenodd" clip-rule="evenodd" d="M1252.03 99.9749C1250.66 98.608 1250.66 96.392 1252.03 95.0251L1258.3 88.75L1252.03 82.4749C1250.66 81.108 1250.66 78.892 1252.03 77.5251C1253.39 76.1583 1255.61 76.1583 1256.97 77.5251L1265.72 86.2751C1267.09 87.642 1267.09 89.858 1265.72 91.2249L1256.97 99.9749C1255.61 101.342 1253.39 101.342 1252.03 99.9749Z" fill="white"/>
</svg>
