<svg width="1363" height="167" viewBox="0 0 1363 167" fill="none" xmlns="http://www.w3.org/2000/svg">
<rect width="1363" height="167" rx="15" fill="#F0F0F0"/>
<path d="M0 15C0 6.71573 6.71573 0 15 0H37V167H15C6.71573 167 0 160.284 0 152V15Z" fill="#424241"/>
<path d="M100.906 54.9219L93.3945 52.2383V49.0859L103.602 53.375V55.6367L100.906 54.9219ZM93.3945 57.1719L100.918 54.4297L103.602 53.7852V56.0352L93.3945 60.3242V57.1719ZM123.348 59.2578V62H114.266V59.2578H123.348ZM115.414 44.9375V62H111.898V44.9375H115.414ZM122.164 51.8867V54.5586H114.266V51.8867H122.164ZM123.336 44.9375V47.6914H114.266V44.9375H123.336ZM128.75 44V62H125.363V44H128.75ZM139.027 59.2344V44H142.426V62H139.367L139.027 59.2344ZM131.012 55.8125V55.5664C131.012 54.5977 131.121 53.7188 131.34 52.9297C131.559 52.1328 131.879 51.4492 132.301 50.8789C132.723 50.3086 133.242 49.8672 133.859 49.5547C134.477 49.2422 135.18 49.0859 135.969 49.0859C136.711 49.0859 137.359 49.2422 137.914 49.5547C138.477 49.8672 138.953 50.3125 139.344 50.8906C139.742 51.4609 140.062 52.1367 140.305 52.918C140.547 53.6914 140.723 54.5391 140.832 55.4609V56C140.723 56.8828 140.547 57.7031 140.305 58.4609C140.062 59.2188 139.742 59.8828 139.344 60.4531C138.953 61.0156 138.477 61.4531 137.914 61.7656C137.352 62.0781 136.695 62.2344 135.945 62.2344C135.156 62.2344 134.453 62.0742 133.836 61.7539C133.227 61.4336 132.711 60.9844 132.289 60.4062C131.875 59.8281 131.559 59.1484 131.34 58.3672C131.121 57.5859 131.012 56.7344 131.012 55.8125ZM134.387 55.5664V55.8125C134.387 56.3359 134.426 56.8242 134.504 57.2773C134.59 57.7305 134.727 58.1328 134.914 58.4844C135.109 58.8281 135.359 59.0977 135.664 59.293C135.977 59.4805 136.355 59.5742 136.801 59.5742C137.379 59.5742 137.855 59.4453 138.23 59.1875C138.605 58.9219 138.891 58.5586 139.086 58.0977C139.289 57.6367 139.406 57.1055 139.438 56.5039V54.9688C139.414 54.4766 139.344 54.0352 139.227 53.6445C139.117 53.2461 138.953 52.9062 138.734 52.625C138.523 52.3438 138.258 52.125 137.938 51.9688C137.625 51.8125 137.254 51.7344 136.824 51.7344C136.387 51.7344 136.012 51.8359 135.699 52.0391C135.387 52.2344 135.133 52.5039 134.938 52.8477C134.75 53.1914 134.609 53.5977 134.516 54.0664C134.43 54.5273 134.387 55.0273 134.387 55.5664ZM150.898 62.2344C149.914 62.2344 149.031 62.0781 148.25 61.7656C147.469 61.4453 146.805 61.0039 146.258 60.4414C145.719 59.8789 145.305 59.2266 145.016 58.4844C144.727 57.7344 144.582 56.9375 144.582 56.0938V55.625C144.582 54.6641 144.719 53.7852 144.992 52.9883C145.266 52.1914 145.656 51.5 146.164 50.9141C146.68 50.3281 147.305 49.8789 148.039 49.5664C148.773 49.2461 149.602 49.0859 150.523 49.0859C151.422 49.0859 152.219 49.2344 152.914 49.5312C153.609 49.8281 154.191 50.25 154.66 50.7969C155.137 51.3438 155.496 52 155.738 52.7656C155.98 53.5234 156.102 54.3672 156.102 55.2969V56.7031H146.023V54.4531H152.785V54.1953C152.785 53.7266 152.699 53.3086 152.527 52.9414C152.363 52.5664 152.113 52.2695 151.777 52.0508C151.441 51.832 151.012 51.7227 150.488 51.7227C150.043 51.7227 149.66 51.8203 149.34 52.0156C149.02 52.2109 148.758 52.4844 148.555 52.8359C148.359 53.1875 148.211 53.6016 148.109 54.0781C148.016 54.5469 147.969 55.0625 147.969 55.625V56.0938C147.969 56.6016 148.039 57.0703 148.18 57.5C148.328 57.9297 148.535 58.3008 148.801 58.6133C149.074 58.9258 149.402 59.168 149.785 59.3398C150.176 59.5117 150.617 59.5977 151.109 59.5977C151.719 59.5977 152.285 59.4805 152.809 59.2461C153.34 59.0039 153.797 58.6406 154.18 58.1562L155.82 59.9375C155.555 60.3203 155.191 60.6875 154.73 61.0391C154.277 61.3906 153.73 61.6797 153.09 61.9062C152.449 62.125 151.719 62.2344 150.898 62.2344ZM161.398 52.0859V62H158.023V49.3203H161.199L161.398 52.0859ZM165.219 49.2383L165.16 52.3672C164.996 52.3438 164.797 52.3242 164.562 52.3086C164.336 52.2852 164.129 52.2734 163.941 52.2734C163.465 52.2734 163.051 52.3359 162.699 52.4609C162.355 52.5781 162.066 52.7539 161.832 52.9883C161.605 53.2227 161.434 53.5078 161.316 53.8438C161.207 54.1797 161.145 54.5625 161.129 54.9922L160.449 54.7812C160.449 53.9609 160.531 53.207 160.695 52.5195C160.859 51.8242 161.098 51.2188 161.41 50.7031C161.73 50.1875 162.121 49.7891 162.582 49.5078C163.043 49.2266 163.57 49.0859 164.164 49.0859C164.352 49.0859 164.543 49.1016 164.738 49.1328C164.934 49.1562 165.094 49.1914 165.219 49.2383ZM170.375 44V62H166.988V44H170.375ZM176.926 60.5703L180.289 49.3203H183.91L178.812 63.9102C178.703 64.2305 178.555 64.5742 178.367 64.9414C178.188 65.3086 177.941 65.6562 177.629 65.9844C177.324 66.3203 176.938 66.5938 176.469 66.8047C176.008 67.0156 175.441 67.1211 174.77 67.1211C174.449 67.1211 174.188 67.1016 173.984 67.0625C173.781 67.0234 173.539 66.9688 173.258 66.8984V64.4258C173.344 64.4258 173.434 64.4258 173.527 64.4258C173.621 64.4336 173.711 64.4375 173.797 64.4375C174.242 64.4375 174.605 64.3867 174.887 64.2852C175.168 64.1836 175.395 64.0273 175.566 63.8164C175.738 63.6133 175.875 63.3477 175.977 63.0195L176.926 60.5703ZM175.52 49.3203L178.273 58.5078L178.754 62.082L176.457 62.3281L171.898 49.3203H175.52ZM201.336 56.3398H204.84C204.77 57.4883 204.453 58.5078 203.891 59.3984C203.336 60.2891 202.559 60.9844 201.559 61.4844C200.566 61.9844 199.371 62.2344 197.973 62.2344C196.879 62.2344 195.898 62.0469 195.031 61.6719C194.164 61.2891 193.422 60.7422 192.805 60.0312C192.195 59.3203 191.73 58.4609 191.41 57.4531C191.09 56.4453 190.93 55.3164 190.93 54.0664V52.8828C190.93 51.6328 191.094 50.5039 191.422 49.4961C191.758 48.4805 192.234 47.6172 192.852 46.9062C193.477 46.1953 194.223 45.6484 195.09 45.2656C195.957 44.8828 196.926 44.6914 197.996 44.6914C199.418 44.6914 200.617 44.9492 201.594 45.4648C202.578 45.9805 203.34 46.6914 203.879 47.5977C204.426 48.5039 204.754 49.5352 204.863 50.6914H201.348C201.309 50.0039 201.172 49.4219 200.938 48.9453C200.703 48.4609 200.348 48.0977 199.871 47.8555C199.402 47.6055 198.777 47.4805 197.996 47.4805C197.41 47.4805 196.898 47.5898 196.461 47.8086C196.023 48.0273 195.656 48.3594 195.359 48.8047C195.062 49.25 194.84 49.8125 194.691 50.4922C194.551 51.1641 194.48 51.9531 194.48 52.8594V54.0664C194.48 54.9492 194.547 55.7266 194.68 56.3984C194.812 57.0625 195.016 57.625 195.289 58.0859C195.57 58.5391 195.93 58.8828 196.367 59.1172C196.812 59.3438 197.348 59.457 197.973 59.457C198.707 59.457 199.312 59.3398 199.789 59.1055C200.266 58.8711 200.629 58.5234 200.879 58.0625C201.137 57.6016 201.289 57.0273 201.336 56.3398ZM206.398 55.7891V55.543C206.398 54.6133 206.531 53.7578 206.797 52.9766C207.062 52.1875 207.449 51.5039 207.957 50.9258C208.465 50.3477 209.09 49.8984 209.832 49.5781C210.574 49.25 211.426 49.0859 212.387 49.0859C213.348 49.0859 214.203 49.25 214.953 49.5781C215.703 49.8984 216.332 50.3477 216.84 50.9258C217.355 51.5039 217.746 52.1875 218.012 52.9766C218.277 53.7578 218.41 54.6133 218.41 55.543V55.7891C218.41 56.7109 218.277 57.5664 218.012 58.3555C217.746 59.1367 217.355 59.8203 216.84 60.4062C216.332 60.9844 215.707 61.4336 214.965 61.7539C214.223 62.0742 213.371 62.2344 212.41 62.2344C211.449 62.2344 210.594 62.0742 209.844 61.7539C209.102 61.4336 208.473 60.9844 207.957 60.4062C207.449 59.8203 207.062 59.1367 206.797 58.3555C206.531 57.5664 206.398 56.7109 206.398 55.7891ZM209.773 55.543V55.7891C209.773 56.3203 209.82 56.8164 209.914 57.2773C210.008 57.7383 210.156 58.1445 210.359 58.4961C210.57 58.8398 210.844 59.1094 211.18 59.3047C211.516 59.5 211.926 59.5977 212.41 59.5977C212.879 59.5977 213.281 59.5 213.617 59.3047C213.953 59.1094 214.223 58.8398 214.426 58.4961C214.629 58.1445 214.777 57.7383 214.871 57.2773C214.973 56.8164 215.023 56.3203 215.023 55.7891V55.543C215.023 55.0273 214.973 54.543 214.871 54.0898C214.777 53.6289 214.625 53.2227 214.414 52.8711C214.211 52.5117 213.941 52.2305 213.605 52.0273C213.27 51.8242 212.863 51.7227 212.387 51.7227C211.91 51.7227 211.504 51.8242 211.168 52.0273C210.84 52.2305 210.57 52.5117 210.359 52.8711C210.156 53.2227 210.008 53.6289 209.914 54.0898C209.82 54.543 209.773 55.0273 209.773 55.543ZM223.859 51.9453V62H220.473V49.3203H223.648L223.859 51.9453ZM223.391 55.2148H222.453C222.453 54.332 222.559 53.5195 222.77 52.7773C222.988 52.0273 223.305 51.3789 223.719 50.832C224.141 50.2773 224.66 49.8477 225.277 49.543C225.895 49.2383 226.609 49.0859 227.422 49.0859C227.984 49.0859 228.5 49.1719 228.969 49.3438C229.438 49.5078 229.84 49.7695 230.176 50.1289C230.52 50.4805 230.785 50.9414 230.973 51.5117C231.16 52.0742 231.254 52.75 231.254 53.5391V62H227.879V53.9141C227.879 53.3359 227.801 52.8906 227.645 52.5781C227.488 52.2656 227.266 52.0469 226.977 51.9219C226.695 51.7969 226.355 51.7344 225.957 51.7344C225.52 51.7344 225.137 51.8242 224.809 52.0039C224.488 52.1836 224.223 52.4336 224.012 52.7539C223.801 53.0664 223.645 53.4336 223.543 53.8555C223.441 54.2773 223.391 54.7305 223.391 55.2148ZM230.938 54.8281L229.73 54.9805C229.73 54.1523 229.832 53.3828 230.035 52.6719C230.246 51.9609 230.555 51.3359 230.961 50.7969C231.375 50.2578 231.887 49.8398 232.496 49.543C233.105 49.2383 233.809 49.0859 234.605 49.0859C235.215 49.0859 235.77 49.1758 236.27 49.3555C236.77 49.5273 237.195 49.8047 237.547 50.1875C237.906 50.5625 238.18 51.0547 238.367 51.6641C238.562 52.2734 238.66 53.0195 238.66 53.9023V62H235.273V53.9023C235.273 53.3164 235.195 52.8711 235.039 52.5664C234.891 52.2539 234.672 52.0391 234.383 51.9219C234.102 51.7969 233.766 51.7344 233.375 51.7344C232.969 51.7344 232.613 51.8164 232.309 51.9805C232.004 52.1367 231.75 52.3555 231.547 52.6367C231.344 52.918 231.191 53.2461 231.09 53.6211C230.988 53.9883 230.938 54.3906 230.938 54.8281ZM244.648 51.7578V66.875H241.273V49.3203H244.402L244.648 51.7578ZM252.676 55.5195V55.7656C252.676 56.6875 252.566 57.543 252.348 58.332C252.137 59.1211 251.824 59.8086 251.41 60.3945C250.996 60.9727 250.48 61.4258 249.863 61.7539C249.254 62.0742 248.551 62.2344 247.754 62.2344C246.98 62.2344 246.309 62.0781 245.738 61.7656C245.168 61.4531 244.688 61.0156 244.297 60.4531C243.914 59.8828 243.605 59.2227 243.371 58.4727C243.137 57.7227 242.957 56.918 242.832 56.0586V55.4141C242.957 54.4922 243.137 53.6484 243.371 52.8828C243.605 52.1094 243.914 51.4414 244.297 50.8789C244.688 50.3086 245.164 49.8672 245.727 49.5547C246.297 49.2422 246.965 49.0859 247.73 49.0859C248.535 49.0859 249.242 49.2383 249.852 49.543C250.469 49.8477 250.984 50.2852 251.398 50.8555C251.82 51.4258 252.137 52.1055 252.348 52.8945C252.566 53.6836 252.676 54.5586 252.676 55.5195ZM249.289 55.7656V55.5195C249.289 54.9805 249.242 54.4844 249.148 54.0312C249.062 53.5703 248.922 53.168 248.727 52.8242C248.539 52.4805 248.289 52.2148 247.977 52.0273C247.672 51.832 247.301 51.7344 246.863 51.7344C246.402 51.7344 246.008 51.8086 245.68 51.957C245.359 52.1055 245.098 52.3203 244.895 52.6016C244.691 52.8828 244.539 53.2188 244.438 53.6094C244.336 54 244.273 54.4414 244.25 54.9336V56.5625C244.289 57.1406 244.398 57.6602 244.578 58.1211C244.758 58.5742 245.035 58.9336 245.41 59.1992C245.785 59.4648 246.277 59.5977 246.887 59.5977C247.332 59.5977 247.707 59.5 248.012 59.3047C248.316 59.1016 248.562 58.8242 248.75 58.4727C248.945 58.1211 249.082 57.7148 249.16 57.2539C249.246 56.793 249.289 56.2969 249.289 55.7656ZM261.617 59.1406V53.4922C261.617 53.0859 261.551 52.7383 261.418 52.4492C261.285 52.1523 261.078 51.9219 260.797 51.7578C260.523 51.5938 260.168 51.5117 259.73 51.5117C259.355 51.5117 259.031 51.5781 258.758 51.7109C258.484 51.8359 258.273 52.0195 258.125 52.2617C257.977 52.4961 257.902 52.7734 257.902 53.0938H254.527C254.527 52.5547 254.652 52.043 254.902 51.5586C255.152 51.0742 255.516 50.6484 255.992 50.2812C256.469 49.9062 257.035 49.6133 257.691 49.4023C258.355 49.1914 259.098 49.0859 259.918 49.0859C260.902 49.0859 261.777 49.25 262.543 49.5781C263.309 49.9062 263.91 50.3984 264.348 51.0547C264.793 51.7109 265.016 52.5312 265.016 53.5156V58.9414C265.016 59.6367 265.059 60.207 265.145 60.6523C265.23 61.0898 265.355 61.4727 265.52 61.8008V62H262.109C261.945 61.6562 261.82 61.2266 261.734 60.7109C261.656 60.1875 261.617 59.6641 261.617 59.1406ZM262.062 54.2773L262.086 56.1875H260.199C259.754 56.1875 259.367 56.2383 259.039 56.3398C258.711 56.4414 258.441 56.5859 258.23 56.7734C258.02 56.9531 257.863 57.1641 257.762 57.4062C257.668 57.6484 257.621 57.9141 257.621 58.2031C257.621 58.4922 257.688 58.7539 257.82 58.9883C257.953 59.2148 258.145 59.3945 258.395 59.5273C258.645 59.6523 258.938 59.7148 259.273 59.7148C259.781 59.7148 260.223 59.6133 260.598 59.4102C260.973 59.207 261.262 58.957 261.465 58.6602C261.676 58.3633 261.785 58.082 261.793 57.8164L262.684 59.2461C262.559 59.5664 262.387 59.8984 262.168 60.2422C261.957 60.5859 261.688 60.9102 261.359 61.2148C261.031 61.5117 260.637 61.7578 260.176 61.9531C259.715 62.1406 259.168 62.2344 258.535 62.2344C257.73 62.2344 257 62.0742 256.344 61.7539C255.695 61.4258 255.18 60.9766 254.797 60.4062C254.422 59.8281 254.234 59.1719 254.234 58.4375C254.234 57.7734 254.359 57.1836 254.609 56.668C254.859 56.1523 255.227 55.7188 255.711 55.3672C256.203 55.0078 256.816 54.7383 257.551 54.5586C258.285 54.3711 259.137 54.2773 260.105 54.2773H262.062ZM270.922 52.0273V62H267.547V49.3203H270.711L270.922 52.0273ZM270.43 55.2148H269.516C269.516 54.2773 269.637 53.4336 269.879 52.6836C270.121 51.9258 270.461 51.2812 270.898 50.75C271.336 50.2109 271.855 49.8008 272.457 49.5195C273.066 49.2305 273.746 49.0859 274.496 49.0859C275.09 49.0859 275.633 49.1719 276.125 49.3438C276.617 49.5156 277.039 49.7891 277.391 50.1641C277.75 50.5391 278.023 51.0352 278.211 51.6523C278.406 52.2695 278.504 53.0234 278.504 53.9141V62H275.105V53.9023C275.105 53.3398 275.027 52.9023 274.871 52.5898C274.715 52.2773 274.484 52.0586 274.18 51.9336C273.883 51.8008 273.516 51.7344 273.078 51.7344C272.625 51.7344 272.23 51.8242 271.895 52.0039C271.566 52.1836 271.293 52.4336 271.074 52.7539C270.863 53.0664 270.703 53.4336 270.594 53.8555C270.484 54.2773 270.43 54.7305 270.43 55.2148ZM284.633 49.3203V62H281.246V49.3203H284.633ZM281.035 46.0156C281.035 45.5234 281.207 45.1172 281.551 44.7969C281.895 44.4766 282.355 44.3164 282.934 44.3164C283.504 44.3164 283.961 44.4766 284.305 44.7969C284.656 45.1172 284.832 45.5234 284.832 46.0156C284.832 46.5078 284.656 46.9141 284.305 47.2344C283.961 47.5547 283.504 47.7148 282.934 47.7148C282.355 47.7148 281.895 47.5547 281.551 47.2344C281.207 46.9141 281.035 46.5078 281.035 46.0156ZM286.883 55.7891V55.543C286.883 54.6133 287.016 53.7578 287.281 52.9766C287.547 52.1875 287.934 51.5039 288.441 50.9258C288.949 50.3477 289.574 49.8984 290.316 49.5781C291.059 49.25 291.91 49.0859 292.871 49.0859C293.832 49.0859 294.688 49.25 295.438 49.5781C296.188 49.8984 296.816 50.3477 297.324 50.9258C297.84 51.5039 298.23 52.1875 298.496 52.9766C298.762 53.7578 298.895 54.6133 298.895 55.543V55.7891C298.895 56.7109 298.762 57.5664 298.496 58.3555C298.23 59.1367 297.84 59.8203 297.324 60.4062C296.816 60.9844 296.191 61.4336 295.449 61.7539C294.707 62.0742 293.855 62.2344 292.895 62.2344C291.934 62.2344 291.078 62.0742 290.328 61.7539C289.586 61.4336 288.957 60.9844 288.441 60.4062C287.934 59.8203 287.547 59.1367 287.281 58.3555C287.016 57.5664 286.883 56.7109 286.883 55.7891ZM290.258 55.543V55.7891C290.258 56.3203 290.305 56.8164 290.398 57.2773C290.492 57.7383 290.641 58.1445 290.844 58.4961C291.055 58.8398 291.328 59.1094 291.664 59.3047C292 59.5 292.41 59.5977 292.895 59.5977C293.363 59.5977 293.766 59.5 294.102 59.3047C294.438 59.1094 294.707 58.8398 294.91 58.4961C295.113 58.1445 295.262 57.7383 295.355 57.2773C295.457 56.8164 295.508 56.3203 295.508 55.7891V55.543C295.508 55.0273 295.457 54.543 295.355 54.0898C295.262 53.6289 295.109 53.2227 294.898 52.8711C294.695 52.5117 294.426 52.2305 294.09 52.0273C293.754 51.8242 293.348 51.7227 292.871 51.7227C292.395 51.7227 291.988 51.8242 291.652 52.0273C291.324 52.2305 291.055 52.5117 290.844 52.8711C290.641 53.2227 290.492 53.6289 290.398 54.0898C290.305 54.543 290.258 55.0273 290.258 55.543ZM304.273 52.0273V62H300.898V49.3203H304.062L304.273 52.0273ZM303.781 55.2148H302.867C302.867 54.2773 302.988 53.4336 303.23 52.6836C303.473 51.9258 303.812 51.2812 304.25 50.75C304.688 50.2109 305.207 49.8008 305.809 49.5195C306.418 49.2305 307.098 49.0859 307.848 49.0859C308.441 49.0859 308.984 49.1719 309.477 49.3438C309.969 49.5156 310.391 49.7891 310.742 50.1641C311.102 50.5391 311.375 51.0352 311.562 51.6523C311.758 52.2695 311.855 53.0234 311.855 53.9141V62H308.457V53.9023C308.457 53.3398 308.379 52.9023 308.223 52.5898C308.066 52.2773 307.836 52.0586 307.531 51.9336C307.234 51.8008 306.867 51.7344 306.43 51.7344C305.977 51.7344 305.582 51.8242 305.246 52.0039C304.918 52.1836 304.645 52.4336 304.426 52.7539C304.215 53.0664 304.055 53.4336 303.945 53.8555C303.836 54.2773 303.781 54.7305 303.781 55.2148Z" fill="#888888"/>
<path d="M102.635 86.0078V118H94.9443V86.0078H102.635ZM115.181 99.2573V118H107.776V94.2256H114.72L115.181 99.2573ZM114.28 105.3L112.588 105.344C112.588 103.674 112.786 102.136 113.182 100.729C113.577 99.3232 114.163 98.1001 114.939 97.0601C115.716 96.02 116.668 95.2144 117.796 94.6431C118.938 94.0718 120.257 93.7861 121.751 93.7861C122.791 93.7861 123.736 93.9473 124.585 94.2695C125.435 94.5771 126.167 95.0679 126.783 95.7417C127.398 96.4009 127.867 97.2651 128.189 98.3345C128.526 99.3892 128.694 100.656 128.694 102.136V118H121.29V103.081C121.29 102.07 121.172 101.308 120.938 100.795C120.718 100.283 120.396 99.9385 119.971 99.7627C119.546 99.5869 119.026 99.499 118.411 99.499C117.767 99.499 117.188 99.6455 116.675 99.9385C116.163 100.231 115.723 100.642 115.357 101.169C115.005 101.682 114.734 102.29 114.544 102.993C114.368 103.696 114.28 104.465 114.28 105.3ZM127.859 105.3L125.794 105.344C125.794 103.674 125.977 102.136 126.343 100.729C126.724 99.3232 127.288 98.1001 128.035 97.0601C128.797 96.02 129.742 95.2144 130.87 94.6431C131.998 94.0718 133.309 93.7861 134.803 93.7861C135.887 93.7861 136.883 93.9473 137.791 94.2695C138.699 94.5918 139.483 95.1118 140.142 95.8296C140.801 96.5474 141.314 97.4995 141.68 98.686C142.046 99.8579 142.229 101.308 142.229 103.037V118H134.803V103.037C134.803 102.055 134.686 101.315 134.451 100.817C134.231 100.305 133.909 99.9604 133.484 99.7847C133.06 99.5942 132.554 99.499 131.968 99.499C131.265 99.499 130.657 99.6455 130.145 99.9385C129.632 100.231 129.2 100.642 128.848 101.169C128.511 101.682 128.262 102.29 128.101 102.993C127.94 103.696 127.859 104.465 127.859 105.3ZM153.941 98.7959V127.141H146.536V94.2256H153.436L153.941 98.7959ZM168.531 105.827V106.289C168.531 108.017 168.333 109.621 167.938 111.101C167.542 112.58 166.956 113.869 166.18 114.968C165.403 116.066 164.437 116.923 163.279 117.539C162.137 118.139 160.811 118.439 159.302 118.439C157.881 118.439 156.658 118.125 155.633 117.495C154.607 116.865 153.75 115.993 153.062 114.88C152.374 113.767 151.817 112.492 151.392 111.057C150.967 109.621 150.63 108.105 150.381 106.508V105.915C150.63 104.201 150.967 102.612 151.392 101.147C151.817 99.6675 152.374 98.3784 153.062 97.2798C153.75 96.1812 154.6 95.3242 155.611 94.709C156.636 94.0938 157.859 93.7861 159.28 93.7861C160.789 93.7861 162.115 94.0718 163.257 94.6431C164.415 95.2144 165.381 96.0347 166.158 97.104C166.949 98.1587 167.542 99.4258 167.938 100.905C168.333 102.385 168.531 104.025 168.531 105.827ZM161.126 106.289V105.827C161.126 104.904 161.06 104.062 160.928 103.3C160.796 102.524 160.584 101.85 160.291 101.279C160.013 100.708 159.639 100.268 159.17 99.9604C158.702 99.6528 158.123 99.499 157.435 99.499C156.644 99.499 155.977 99.6235 155.435 99.8726C154.908 100.107 154.483 100.473 154.161 100.971C153.853 101.455 153.633 102.062 153.501 102.795C153.384 103.513 153.333 104.355 153.348 105.322V107.124C153.318 108.237 153.428 109.218 153.677 110.068C153.926 110.903 154.358 111.555 154.974 112.023C155.589 112.492 156.424 112.727 157.479 112.727C158.182 112.727 158.768 112.565 159.236 112.243C159.705 111.906 160.079 111.445 160.357 110.859C160.635 110.258 160.833 109.57 160.95 108.793C161.067 108.017 161.126 107.182 161.126 106.289ZM179.649 84.25V118H172.222V84.25H179.649ZM195.733 118.439C193.799 118.439 192.071 118.139 190.547 117.539C189.024 116.923 187.735 116.081 186.68 115.012C185.64 113.942 184.842 112.712 184.285 111.32C183.743 109.929 183.472 108.457 183.472 106.904V106.069C183.472 104.326 183.714 102.714 184.197 101.235C184.681 99.7407 185.398 98.437 186.351 97.3237C187.303 96.2104 188.497 95.3462 189.932 94.731C191.368 94.1011 193.038 93.7861 194.942 93.7861C196.626 93.7861 198.135 94.0571 199.468 94.5991C200.801 95.1411 201.929 95.9175 202.852 96.9282C203.79 97.939 204.5 99.1621 204.983 100.598C205.481 102.033 205.73 103.645 205.73 105.432V108.442H186.307V103.806H198.501V103.234C198.516 102.443 198.377 101.77 198.084 101.213C197.806 100.656 197.396 100.231 196.854 99.9385C196.312 99.6455 195.652 99.499 194.876 99.499C194.07 99.499 193.404 99.6748 192.876 100.026C192.364 100.378 191.961 100.861 191.668 101.477C191.39 102.077 191.192 102.773 191.075 103.564C190.958 104.355 190.899 105.19 190.899 106.069V106.904C190.899 107.783 191.016 108.581 191.25 109.299C191.5 110.017 191.851 110.632 192.305 111.145C192.774 111.643 193.331 112.031 193.975 112.309C194.634 112.587 195.381 112.727 196.216 112.727C197.227 112.727 198.223 112.536 199.205 112.155C200.186 111.774 201.028 111.145 201.731 110.266L205.093 114.265C204.61 114.953 203.921 115.62 203.028 116.264C202.149 116.909 201.094 117.436 199.864 117.846C198.633 118.242 197.256 118.439 195.733 118.439ZM216.211 99.2573V118H208.807V94.2256H215.75L216.211 99.2573ZM215.311 105.3L213.619 105.344C213.619 103.674 213.816 102.136 214.212 100.729C214.607 99.3232 215.193 98.1001 215.97 97.0601C216.746 96.02 217.698 95.2144 218.826 94.6431C219.969 94.0718 221.287 93.7861 222.781 93.7861C223.821 93.7861 224.766 93.9473 225.616 94.2695C226.465 94.5771 227.198 95.0679 227.813 95.7417C228.428 96.4009 228.897 97.2651 229.219 98.3345C229.556 99.3892 229.725 100.656 229.725 102.136V118H222.32V103.081C222.32 102.07 222.203 101.308 221.968 100.795C221.749 100.283 221.426 99.9385 221.001 99.7627C220.577 99.5869 220.057 99.499 219.441 99.499C218.797 99.499 218.218 99.6455 217.706 99.9385C217.193 100.231 216.753 100.642 216.387 101.169C216.036 101.682 215.765 102.29 215.574 102.993C215.398 103.696 215.311 104.465 215.311 105.3ZM228.89 105.3L226.824 105.344C226.824 103.674 227.007 102.136 227.374 100.729C227.754 99.3232 228.318 98.1001 229.065 97.0601C229.827 96.02 230.772 95.2144 231.9 94.6431C233.028 94.0718 234.339 93.7861 235.833 93.7861C236.917 93.7861 237.913 93.9473 238.821 94.2695C239.729 94.5918 240.513 95.1118 241.172 95.8296C241.832 96.5474 242.344 97.4995 242.71 98.686C243.077 99.8579 243.26 101.308 243.26 103.037V118H235.833V103.037C235.833 102.055 235.716 101.315 235.481 100.817C235.262 100.305 234.939 99.9604 234.515 99.7847C234.09 99.5942 233.584 99.499 232.999 99.499C232.295 99.499 231.688 99.6455 231.175 99.9385C230.662 100.231 230.23 100.642 229.878 101.169C229.542 101.682 229.292 102.29 229.131 102.993C228.97 103.696 228.89 104.465 228.89 105.3ZM259.014 118.439C257.081 118.439 255.352 118.139 253.829 117.539C252.305 116.923 251.016 116.081 249.961 115.012C248.921 113.942 248.123 112.712 247.566 111.32C247.024 109.929 246.753 108.457 246.753 106.904V106.069C246.753 104.326 246.995 102.714 247.479 101.235C247.962 99.7407 248.68 98.437 249.632 97.3237C250.584 96.2104 251.778 95.3462 253.213 94.731C254.649 94.1011 256.319 93.7861 258.223 93.7861C259.908 93.7861 261.417 94.0571 262.75 94.5991C264.083 95.1411 265.21 95.9175 266.133 96.9282C267.071 97.939 267.781 99.1621 268.265 100.598C268.763 102.033 269.012 103.645 269.012 105.432V108.442H249.588V103.806H261.783V103.234C261.797 102.443 261.658 101.77 261.365 101.213C261.087 100.656 260.677 100.231 260.135 99.9385C259.593 99.6455 258.934 99.499 258.157 99.499C257.352 99.499 256.685 99.6748 256.158 100.026C255.645 100.378 255.242 100.861 254.949 101.477C254.671 102.077 254.473 102.773 254.356 103.564C254.239 104.355 254.18 105.19 254.18 106.069V106.904C254.18 107.783 254.297 108.581 254.532 109.299C254.781 110.017 255.132 110.632 255.586 111.145C256.055 111.643 256.612 112.031 257.256 112.309C257.916 112.587 258.663 112.727 259.498 112.727C260.508 112.727 261.504 112.536 262.486 112.155C263.467 111.774 264.31 111.145 265.013 110.266L268.375 114.265C267.891 114.953 267.203 115.62 266.309 116.264C265.43 116.909 264.375 117.436 263.145 117.846C261.915 118.242 260.538 118.439 259.014 118.439ZM279.295 99.3013V118H271.89V94.2256H278.833L279.295 99.3013ZM278.416 105.3L276.68 105.344C276.68 103.527 276.9 101.909 277.339 100.488C277.779 99.0522 278.401 97.8364 279.207 96.8403C280.013 95.8442 280.972 95.0898 282.085 94.5771C283.213 94.0498 284.466 93.7861 285.843 93.7861C286.941 93.7861 287.945 93.9473 288.853 94.2695C289.776 94.5918 290.567 95.1118 291.226 95.8296C291.9 96.5474 292.413 97.4995 292.764 98.686C293.13 99.8579 293.313 101.308 293.313 103.037V118H285.865V103.015C285.865 102.062 285.733 101.337 285.469 100.839C285.206 100.327 284.825 99.9751 284.327 99.7847C283.829 99.5942 283.221 99.499 282.503 99.499C281.741 99.499 281.097 99.6455 280.569 99.9385C280.042 100.231 279.617 100.642 279.295 101.169C278.987 101.682 278.76 102.29 278.614 102.993C278.482 103.696 278.416 104.465 278.416 105.3ZM309.947 94.2256V99.3672H295.621V94.2256H309.947ZM298.631 88.3149H306.036V110.244C306.036 110.874 306.109 111.364 306.255 111.716C306.402 112.053 306.651 112.294 307.002 112.441C307.369 112.573 307.852 112.639 308.453 112.639C308.877 112.639 309.229 112.631 309.507 112.617C309.786 112.587 310.049 112.551 310.298 112.507V117.802C309.668 118.007 309.009 118.161 308.321 118.264C307.632 118.381 306.9 118.439 306.124 118.439C304.542 118.439 303.187 118.19 302.059 117.692C300.945 117.194 300.096 116.411 299.51 115.341C298.924 114.272 298.631 112.88 298.631 111.167V88.3149ZM325.24 112.023V102.224C325.24 101.55 325.145 100.971 324.954 100.488C324.764 100.004 324.463 99.6309 324.053 99.3672C323.643 99.0889 323.094 98.9497 322.405 98.9497C321.849 98.9497 321.373 99.0449 320.977 99.2354C320.582 99.4258 320.281 99.7114 320.076 100.092C319.871 100.473 319.769 100.957 319.769 101.542H312.364C312.364 100.444 312.605 99.4258 313.089 98.4883C313.587 97.5361 314.29 96.7085 315.198 96.0054C316.121 95.3022 317.22 94.7603 318.494 94.3794C319.783 93.9839 321.219 93.7861 322.801 93.7861C324.69 93.7861 326.375 94.1011 327.854 94.731C329.349 95.3608 330.528 96.3057 331.392 97.5654C332.256 98.8105 332.688 100.378 332.688 102.268V112.001C332.688 113.554 332.776 114.733 332.952 115.539C333.128 116.33 333.377 117.026 333.699 117.626V118H326.272C325.921 117.268 325.657 116.374 325.481 115.319C325.32 114.25 325.24 113.151 325.24 112.023ZM326.141 103.476L326.185 107.431H322.911C322.222 107.431 321.636 107.526 321.153 107.717C320.684 107.907 320.303 108.171 320.01 108.508C319.732 108.83 319.527 109.196 319.395 109.606C319.278 110.017 319.219 110.449 319.219 110.903C319.219 111.342 319.322 111.738 319.527 112.089C319.747 112.426 320.04 112.69 320.406 112.88C320.772 113.071 321.182 113.166 321.636 113.166C322.457 113.166 323.152 113.012 323.724 112.705C324.31 112.382 324.756 111.994 325.064 111.54C325.372 111.086 325.525 110.661 325.525 110.266L327.151 113.298C326.858 113.884 326.521 114.477 326.141 115.078C325.774 115.678 325.313 116.235 324.756 116.748C324.214 117.246 323.548 117.656 322.757 117.978C321.966 118.286 321.006 118.439 319.878 118.439C318.414 118.439 317.066 118.139 315.835 117.539C314.62 116.938 313.646 116.103 312.913 115.034C312.181 113.95 311.814 112.705 311.814 111.298C311.814 110.068 312.034 108.969 312.474 108.002C312.928 107.036 313.609 106.215 314.517 105.542C315.425 104.868 316.583 104.355 317.989 104.003C319.395 103.652 321.05 103.476 322.955 103.476H326.141ZM349.322 94.2256V99.3672H334.996V94.2256H349.322ZM338.006 88.3149H345.411V110.244C345.411 110.874 345.484 111.364 345.63 111.716C345.777 112.053 346.026 112.294 346.377 112.441C346.744 112.573 347.227 112.639 347.828 112.639C348.252 112.639 348.604 112.631 348.882 112.617C349.161 112.587 349.424 112.551 349.673 112.507V117.802C349.043 118.007 348.384 118.161 347.696 118.264C347.007 118.381 346.275 118.439 345.499 118.439C343.917 118.439 342.562 118.19 341.434 117.692C340.32 117.194 339.471 116.411 338.885 115.341C338.299 114.272 338.006 112.88 338.006 111.167V88.3149ZM360.088 94.2256V118H352.662V94.2256H360.088ZM352.222 88.0952C352.222 87.0405 352.603 86.1763 353.365 85.5024C354.126 84.8286 355.115 84.4917 356.331 84.4917C357.547 84.4917 358.536 84.8286 359.297 85.5024C360.059 86.1763 360.44 87.0405 360.44 88.0952C360.44 89.1499 360.059 90.0142 359.297 90.688C358.536 91.3618 357.547 91.6987 356.331 91.6987C355.115 91.6987 354.126 91.3618 353.365 90.688C352.603 90.0142 352.222 89.1499 352.222 88.0952ZM363.736 106.354V105.893C363.736 104.15 363.985 102.546 364.483 101.081C364.981 99.6016 365.713 98.3198 366.68 97.2358C367.647 96.1519 368.841 95.3096 370.262 94.709C371.683 94.0938 373.323 93.7861 375.184 93.7861C377.059 93.7861 378.707 94.0938 380.127 94.709C381.563 95.3096 382.764 96.1519 383.731 97.2358C384.698 98.3198 385.43 99.6016 385.928 101.081C386.426 102.546 386.675 104.15 386.675 105.893V106.354C386.675 108.083 386.426 109.687 385.928 111.167C385.43 112.631 384.698 113.913 383.731 115.012C382.764 116.096 381.57 116.938 380.149 117.539C378.729 118.139 377.088 118.439 375.228 118.439C373.367 118.439 371.719 118.139 370.284 117.539C368.848 116.938 367.647 116.096 366.68 115.012C365.713 113.913 364.981 112.631 364.483 111.167C363.985 109.687 363.736 108.083 363.736 106.354ZM371.141 105.893V106.354C371.141 107.248 371.207 108.083 371.338 108.859C371.47 109.636 371.69 110.317 371.998 110.903C372.305 111.474 372.723 111.921 373.25 112.243C373.777 112.565 374.437 112.727 375.228 112.727C376.004 112.727 376.648 112.565 377.161 112.243C377.688 111.921 378.106 111.474 378.414 110.903C378.721 110.317 378.941 109.636 379.073 108.859C379.205 108.083 379.271 107.248 379.271 106.354V105.893C379.271 105.029 379.205 104.216 379.073 103.454C378.941 102.678 378.721 101.997 378.414 101.411C378.106 100.81 377.688 100.341 377.161 100.004C376.634 99.6675 375.975 99.499 375.184 99.499C374.407 99.499 373.755 99.6675 373.228 100.004C372.715 100.341 372.305 100.81 371.998 101.411C371.69 101.997 371.47 102.678 371.338 103.454C371.207 104.216 371.141 105.029 371.141 105.893ZM397.244 99.3013V118H389.839V94.2256H396.783L397.244 99.3013ZM396.365 105.3L394.629 105.344C394.629 103.527 394.849 101.909 395.289 100.488C395.728 99.0522 396.351 97.8364 397.156 96.8403C397.962 95.8442 398.921 95.0898 400.035 94.5771C401.163 94.0498 402.415 93.7861 403.792 93.7861C404.891 93.7861 405.894 93.9473 406.802 94.2695C407.725 94.5918 408.516 95.1118 409.175 95.8296C409.849 96.5474 410.362 97.4995 410.713 98.686C411.08 99.8579 411.263 101.308 411.263 103.037V118H403.814V103.015C403.814 102.062 403.682 101.337 403.418 100.839C403.155 100.327 402.774 99.9751 402.276 99.7847C401.778 99.5942 401.17 99.499 400.452 99.499C399.69 99.499 399.046 99.6455 398.519 99.9385C397.991 100.231 397.566 100.642 397.244 101.169C396.937 101.682 396.709 102.29 396.563 102.993C396.431 103.696 396.365 104.465 396.365 105.3Z" fill="#424241"/>
<path d="M1363 15C1363 6.71573 1356.28 0 1348 0H1134V167H1348C1356.28 167 1363 160.284 1363 152V15Z" fill="#1A75BC"/>
<path d="M1281.5 49H1216.5L1214 51.5V116.5L1216.5 119H1281.5L1284 116.5V51.5L1281.5 49ZM1279 114H1234V104H1245.5C1247 107 1250.5 109 1254 109C1259.5 109 1264 104.5 1264 99C1264 93.5 1259.5 89 1254 89C1248.5 89 1244 93.5 1244 99H1229V114H1219V54H1229V65.5C1226 67 1224 70.5 1224 74C1224 79.5 1228.5 84 1234 84C1239.5 84 1244 79.5 1244 74H1254C1254 79.5 1258.5 84 1264 84C1269.5 84 1274 79.5 1274 74C1274 68.5 1269.5 64 1264 64C1260.5 64 1257 66 1255.5 69H1242.5C1241 66 1237.5 64 1234 64V54H1279V114ZM1249 99C1249 96 1251 94 1254 94C1257 94 1259 96 1259 99C1259 102 1257 104 1254 104C1251 104 1249 102 1249 99ZM1234 69C1237 69 1239 71 1239 74C1239 77 1237 79 1234 79C1231 79 1229 77 1229 74C1229 71 1231 69 1234 69ZM1264 69C1267 69 1269 71 1269 74C1269 77 1267 79 1264 79C1261 79 1259 77 1259 74C1259 71 1261 69 1264 69Z" fill="white"/>
</svg>
