<svg width="1363" height="167" viewBox="0 0 1363 167" fill="none" xmlns="http://www.w3.org/2000/svg">
<rect width="1363" height="167" rx="15" fill="#F0F0F0"/>
<path d="M0 15C0 6.71573 6.71573 0 15 0H37V167H15C6.71573 167 0 160.284 0 152V15Z" fill="#424241"/>
<path d="M100.906 50.9219L93.3945 48.2383V45.0859L103.602 49.375V51.6367L100.906 50.9219ZM93.3945 53.1719L100.918 50.4297L103.602 49.7852V52.0352L93.3945 56.3242V53.1719ZM123.348 55.2578V58H114.266V55.2578H123.348ZM115.414 40.9375V58H111.898V40.9375H115.414ZM122.164 47.8867V50.5586H114.266V47.8867H122.164ZM123.336 40.9375V43.6914H114.266V40.9375H123.336ZM128.75 40V58H125.363V40H128.75ZM139.027 55.2344V40H142.426V58H139.367L139.027 55.2344ZM131.012 51.8125V51.5664C131.012 50.5977 131.121 49.7188 131.34 48.9297C131.559 48.1328 131.879 47.4492 132.301 46.8789C132.723 46.3086 133.242 45.8672 133.859 45.5547C134.477 45.2422 135.18 45.0859 135.969 45.0859C136.711 45.0859 137.359 45.2422 137.914 45.5547C138.477 45.8672 138.953 46.3125 139.344 46.8906C139.742 47.4609 140.062 48.1367 140.305 48.918C140.547 49.6914 140.723 50.5391 140.832 51.4609V52C140.723 52.8828 140.547 53.7031 140.305 54.4609C140.062 55.2188 139.742 55.8828 139.344 56.4531C138.953 57.0156 138.477 57.4531 137.914 57.7656C137.352 58.0781 136.695 58.2344 135.945 58.2344C135.156 58.2344 134.453 58.0742 133.836 57.7539C133.227 57.4336 132.711 56.9844 132.289 56.4062C131.875 55.8281 131.559 55.1484 131.34 54.3672C131.121 53.5859 131.012 52.7344 131.012 51.8125ZM134.387 51.5664V51.8125C134.387 52.3359 134.426 52.8242 134.504 53.2773C134.59 53.7305 134.727 54.1328 134.914 54.4844C135.109 54.8281 135.359 55.0977 135.664 55.293C135.977 55.4805 136.355 55.5742 136.801 55.5742C137.379 55.5742 137.855 55.4453 138.23 55.1875C138.605 54.9219 138.891 54.5586 139.086 54.0977C139.289 53.6367 139.406 53.1055 139.438 52.5039V50.9688C139.414 50.4766 139.344 50.0352 139.227 49.6445C139.117 49.2461 138.953 48.9062 138.734 48.625C138.523 48.3438 138.258 48.125 137.938 47.9688C137.625 47.8125 137.254 47.7344 136.824 47.7344C136.387 47.7344 136.012 47.8359 135.699 48.0391C135.387 48.2344 135.133 48.5039 134.938 48.8477C134.75 49.1914 134.609 49.5977 134.516 50.0664C134.43 50.5273 134.387 51.0273 134.387 51.5664ZM150.898 58.2344C149.914 58.2344 149.031 58.0781 148.25 57.7656C147.469 57.4453 146.805 57.0039 146.258 56.4414C145.719 55.8789 145.305 55.2266 145.016 54.4844C144.727 53.7344 144.582 52.9375 144.582 52.0938V51.625C144.582 50.6641 144.719 49.7852 144.992 48.9883C145.266 48.1914 145.656 47.5 146.164 46.9141C146.68 46.3281 147.305 45.8789 148.039 45.5664C148.773 45.2461 149.602 45.0859 150.523 45.0859C151.422 45.0859 152.219 45.2344 152.914 45.5312C153.609 45.8281 154.191 46.25 154.66 46.7969C155.137 47.3438 155.496 48 155.738 48.7656C155.98 49.5234 156.102 50.3672 156.102 51.2969V52.7031H146.023V50.4531H152.785V50.1953C152.785 49.7266 152.699 49.3086 152.527 48.9414C152.363 48.5664 152.113 48.2695 151.777 48.0508C151.441 47.832 151.012 47.7227 150.488 47.7227C150.043 47.7227 149.66 47.8203 149.34 48.0156C149.02 48.2109 148.758 48.4844 148.555 48.8359C148.359 49.1875 148.211 49.6016 148.109 50.0781C148.016 50.5469 147.969 51.0625 147.969 51.625V52.0938C147.969 52.6016 148.039 53.0703 148.18 53.5C148.328 53.9297 148.535 54.3008 148.801 54.6133C149.074 54.9258 149.402 55.168 149.785 55.3398C150.176 55.5117 150.617 55.5977 151.109 55.5977C151.719 55.5977 152.285 55.4805 152.809 55.2461C153.34 55.0039 153.797 54.6406 154.18 54.1562L155.82 55.9375C155.555 56.3203 155.191 56.6875 154.73 57.0391C154.277 57.3906 153.73 57.6797 153.09 57.9062C152.449 58.125 151.719 58.2344 150.898 58.2344ZM161.398 48.0859V58H158.023V45.3203H161.199L161.398 48.0859ZM165.219 45.2383L165.16 48.3672C164.996 48.3438 164.797 48.3242 164.562 48.3086C164.336 48.2852 164.129 48.2734 163.941 48.2734C163.465 48.2734 163.051 48.3359 162.699 48.4609C162.355 48.5781 162.066 48.7539 161.832 48.9883C161.605 49.2227 161.434 49.5078 161.316 49.8438C161.207 50.1797 161.145 50.5625 161.129 50.9922L160.449 50.7812C160.449 49.9609 160.531 49.207 160.695 48.5195C160.859 47.8242 161.098 47.2188 161.41 46.7031C161.73 46.1875 162.121 45.7891 162.582 45.5078C163.043 45.2266 163.57 45.0859 164.164 45.0859C164.352 45.0859 164.543 45.1016 164.738 45.1328C164.934 45.1562 165.094 45.1914 165.219 45.2383ZM170.375 40V58H166.988V40H170.375ZM176.926 56.5703L180.289 45.3203H183.91L178.812 59.9102C178.703 60.2305 178.555 60.5742 178.367 60.9414C178.188 61.3086 177.941 61.6562 177.629 61.9844C177.324 62.3203 176.938 62.5938 176.469 62.8047C176.008 63.0156 175.441 63.1211 174.77 63.1211C174.449 63.1211 174.188 63.1016 173.984 63.0625C173.781 63.0234 173.539 62.9688 173.258 62.8984V60.4258C173.344 60.4258 173.434 60.4258 173.527 60.4258C173.621 60.4336 173.711 60.4375 173.797 60.4375C174.242 60.4375 174.605 60.3867 174.887 60.2852C175.168 60.1836 175.395 60.0273 175.566 59.8164C175.738 59.6133 175.875 59.3477 175.977 59.0195L176.926 56.5703ZM175.52 45.3203L178.273 54.5078L178.754 58.082L176.457 58.3281L171.898 45.3203H175.52ZM201.336 52.3398H204.84C204.77 53.4883 204.453 54.5078 203.891 55.3984C203.336 56.2891 202.559 56.9844 201.559 57.4844C200.566 57.9844 199.371 58.2344 197.973 58.2344C196.879 58.2344 195.898 58.0469 195.031 57.6719C194.164 57.2891 193.422 56.7422 192.805 56.0312C192.195 55.3203 191.73 54.4609 191.41 53.4531C191.09 52.4453 190.93 51.3164 190.93 50.0664V48.8828C190.93 47.6328 191.094 46.5039 191.422 45.4961C191.758 44.4805 192.234 43.6172 192.852 42.9062C193.477 42.1953 194.223 41.6484 195.09 41.2656C195.957 40.8828 196.926 40.6914 197.996 40.6914C199.418 40.6914 200.617 40.9492 201.594 41.4648C202.578 41.9805 203.34 42.6914 203.879 43.5977C204.426 44.5039 204.754 45.5352 204.863 46.6914H201.348C201.309 46.0039 201.172 45.4219 200.938 44.9453C200.703 44.4609 200.348 44.0977 199.871 43.8555C199.402 43.6055 198.777 43.4805 197.996 43.4805C197.41 43.4805 196.898 43.5898 196.461 43.8086C196.023 44.0273 195.656 44.3594 195.359 44.8047C195.062 45.25 194.84 45.8125 194.691 46.4922C194.551 47.1641 194.48 47.9531 194.48 48.8594V50.0664C194.48 50.9492 194.547 51.7266 194.68 52.3984C194.812 53.0625 195.016 53.625 195.289 54.0859C195.57 54.5391 195.93 54.8828 196.367 55.1172C196.812 55.3438 197.348 55.457 197.973 55.457C198.707 55.457 199.312 55.3398 199.789 55.1055C200.266 54.8711 200.629 54.5234 200.879 54.0625C201.137 53.6016 201.289 53.0273 201.336 52.3398ZM206.398 51.7891V51.543C206.398 50.6133 206.531 49.7578 206.797 48.9766C207.062 48.1875 207.449 47.5039 207.957 46.9258C208.465 46.3477 209.09 45.8984 209.832 45.5781C210.574 45.25 211.426 45.0859 212.387 45.0859C213.348 45.0859 214.203 45.25 214.953 45.5781C215.703 45.8984 216.332 46.3477 216.84 46.9258C217.355 47.5039 217.746 48.1875 218.012 48.9766C218.277 49.7578 218.41 50.6133 218.41 51.543V51.7891C218.41 52.7109 218.277 53.5664 218.012 54.3555C217.746 55.1367 217.355 55.8203 216.84 56.4062C216.332 56.9844 215.707 57.4336 214.965 57.7539C214.223 58.0742 213.371 58.2344 212.41 58.2344C211.449 58.2344 210.594 58.0742 209.844 57.7539C209.102 57.4336 208.473 56.9844 207.957 56.4062C207.449 55.8203 207.062 55.1367 206.797 54.3555C206.531 53.5664 206.398 52.7109 206.398 51.7891ZM209.773 51.543V51.7891C209.773 52.3203 209.82 52.8164 209.914 53.2773C210.008 53.7383 210.156 54.1445 210.359 54.4961C210.57 54.8398 210.844 55.1094 211.18 55.3047C211.516 55.5 211.926 55.5977 212.41 55.5977C212.879 55.5977 213.281 55.5 213.617 55.3047C213.953 55.1094 214.223 54.8398 214.426 54.4961C214.629 54.1445 214.777 53.7383 214.871 53.2773C214.973 52.8164 215.023 52.3203 215.023 51.7891V51.543C215.023 51.0273 214.973 50.543 214.871 50.0898C214.777 49.6289 214.625 49.2227 214.414 48.8711C214.211 48.5117 213.941 48.2305 213.605 48.0273C213.27 47.8242 212.863 47.7227 212.387 47.7227C211.91 47.7227 211.504 47.8242 211.168 48.0273C210.84 48.2305 210.57 48.5117 210.359 48.8711C210.156 49.2227 210.008 49.6289 209.914 50.0898C209.82 50.543 209.773 51.0273 209.773 51.543ZM223.859 47.9453V58H220.473V45.3203H223.648L223.859 47.9453ZM223.391 51.2148H222.453C222.453 50.332 222.559 49.5195 222.77 48.7773C222.988 48.0273 223.305 47.3789 223.719 46.832C224.141 46.2773 224.66 45.8477 225.277 45.543C225.895 45.2383 226.609 45.0859 227.422 45.0859C227.984 45.0859 228.5 45.1719 228.969 45.3438C229.438 45.5078 229.84 45.7695 230.176 46.1289C230.52 46.4805 230.785 46.9414 230.973 47.5117C231.16 48.0742 231.254 48.75 231.254 49.5391V58H227.879V49.9141C227.879 49.3359 227.801 48.8906 227.645 48.5781C227.488 48.2656 227.266 48.0469 226.977 47.9219C226.695 47.7969 226.355 47.7344 225.957 47.7344C225.52 47.7344 225.137 47.8242 224.809 48.0039C224.488 48.1836 224.223 48.4336 224.012 48.7539C223.801 49.0664 223.645 49.4336 223.543 49.8555C223.441 50.2773 223.391 50.7305 223.391 51.2148ZM230.938 50.8281L229.73 50.9805C229.73 50.1523 229.832 49.3828 230.035 48.6719C230.246 47.9609 230.555 47.3359 230.961 46.7969C231.375 46.2578 231.887 45.8398 232.496 45.543C233.105 45.2383 233.809 45.0859 234.605 45.0859C235.215 45.0859 235.77 45.1758 236.27 45.3555C236.77 45.5273 237.195 45.8047 237.547 46.1875C237.906 46.5625 238.18 47.0547 238.367 47.6641C238.562 48.2734 238.66 49.0195 238.66 49.9023V58H235.273V49.9023C235.273 49.3164 235.195 48.8711 235.039 48.5664C234.891 48.2539 234.672 48.0391 234.383 47.9219C234.102 47.7969 233.766 47.7344 233.375 47.7344C232.969 47.7344 232.613 47.8164 232.309 47.9805C232.004 48.1367 231.75 48.3555 231.547 48.6367C231.344 48.918 231.191 49.2461 231.09 49.6211C230.988 49.9883 230.938 50.3906 230.938 50.8281ZM244.648 47.7578V62.875H241.273V45.3203H244.402L244.648 47.7578ZM252.676 51.5195V51.7656C252.676 52.6875 252.566 53.543 252.348 54.332C252.137 55.1211 251.824 55.8086 251.41 56.3945C250.996 56.9727 250.48 57.4258 249.863 57.7539C249.254 58.0742 248.551 58.2344 247.754 58.2344C246.98 58.2344 246.309 58.0781 245.738 57.7656C245.168 57.4531 244.688 57.0156 244.297 56.4531C243.914 55.8828 243.605 55.2227 243.371 54.4727C243.137 53.7227 242.957 52.918 242.832 52.0586V51.4141C242.957 50.4922 243.137 49.6484 243.371 48.8828C243.605 48.1094 243.914 47.4414 244.297 46.8789C244.688 46.3086 245.164 45.8672 245.727 45.5547C246.297 45.2422 246.965 45.0859 247.73 45.0859C248.535 45.0859 249.242 45.2383 249.852 45.543C250.469 45.8477 250.984 46.2852 251.398 46.8555C251.82 47.4258 252.137 48.1055 252.348 48.8945C252.566 49.6836 252.676 50.5586 252.676 51.5195ZM249.289 51.7656V51.5195C249.289 50.9805 249.242 50.4844 249.148 50.0312C249.062 49.5703 248.922 49.168 248.727 48.8242C248.539 48.4805 248.289 48.2148 247.977 48.0273C247.672 47.832 247.301 47.7344 246.863 47.7344C246.402 47.7344 246.008 47.8086 245.68 47.957C245.359 48.1055 245.098 48.3203 244.895 48.6016C244.691 48.8828 244.539 49.2188 244.438 49.6094C244.336 50 244.273 50.4414 244.25 50.9336V52.5625C244.289 53.1406 244.398 53.6602 244.578 54.1211C244.758 54.5742 245.035 54.9336 245.41 55.1992C245.785 55.4648 246.277 55.5977 246.887 55.5977C247.332 55.5977 247.707 55.5 248.012 55.3047C248.316 55.1016 248.562 54.8242 248.75 54.4727C248.945 54.1211 249.082 53.7148 249.16 53.2539C249.246 52.793 249.289 52.2969 249.289 51.7656ZM261.617 55.1406V49.4922C261.617 49.0859 261.551 48.7383 261.418 48.4492C261.285 48.1523 261.078 47.9219 260.797 47.7578C260.523 47.5938 260.168 47.5117 259.73 47.5117C259.355 47.5117 259.031 47.5781 258.758 47.7109C258.484 47.8359 258.273 48.0195 258.125 48.2617C257.977 48.4961 257.902 48.7734 257.902 49.0938H254.527C254.527 48.5547 254.652 48.043 254.902 47.5586C255.152 47.0742 255.516 46.6484 255.992 46.2812C256.469 45.9062 257.035 45.6133 257.691 45.4023C258.355 45.1914 259.098 45.0859 259.918 45.0859C260.902 45.0859 261.777 45.25 262.543 45.5781C263.309 45.9062 263.91 46.3984 264.348 47.0547C264.793 47.7109 265.016 48.5312 265.016 49.5156V54.9414C265.016 55.6367 265.059 56.207 265.145 56.6523C265.23 57.0898 265.355 57.4727 265.52 57.8008V58H262.109C261.945 57.6562 261.82 57.2266 261.734 56.7109C261.656 56.1875 261.617 55.6641 261.617 55.1406ZM262.062 50.2773L262.086 52.1875H260.199C259.754 52.1875 259.367 52.2383 259.039 52.3398C258.711 52.4414 258.441 52.5859 258.23 52.7734C258.02 52.9531 257.863 53.1641 257.762 53.4062C257.668 53.6484 257.621 53.9141 257.621 54.2031C257.621 54.4922 257.688 54.7539 257.82 54.9883C257.953 55.2148 258.145 55.3945 258.395 55.5273C258.645 55.6523 258.938 55.7148 259.273 55.7148C259.781 55.7148 260.223 55.6133 260.598 55.4102C260.973 55.207 261.262 54.957 261.465 54.6602C261.676 54.3633 261.785 54.082 261.793 53.8164L262.684 55.2461C262.559 55.5664 262.387 55.8984 262.168 56.2422C261.957 56.5859 261.688 56.9102 261.359 57.2148C261.031 57.5117 260.637 57.7578 260.176 57.9531C259.715 58.1406 259.168 58.2344 258.535 58.2344C257.73 58.2344 257 58.0742 256.344 57.7539C255.695 57.4258 255.18 56.9766 254.797 56.4062C254.422 55.8281 254.234 55.1719 254.234 54.4375C254.234 53.7734 254.359 53.1836 254.609 52.668C254.859 52.1523 255.227 51.7188 255.711 51.3672C256.203 51.0078 256.816 50.7383 257.551 50.5586C258.285 50.3711 259.137 50.2773 260.105 50.2773H262.062ZM270.922 48.0273V58H267.547V45.3203H270.711L270.922 48.0273ZM270.43 51.2148H269.516C269.516 50.2773 269.637 49.4336 269.879 48.6836C270.121 47.9258 270.461 47.2812 270.898 46.75C271.336 46.2109 271.855 45.8008 272.457 45.5195C273.066 45.2305 273.746 45.0859 274.496 45.0859C275.09 45.0859 275.633 45.1719 276.125 45.3438C276.617 45.5156 277.039 45.7891 277.391 46.1641C277.75 46.5391 278.023 47.0352 278.211 47.6523C278.406 48.2695 278.504 49.0234 278.504 49.9141V58H275.105V49.9023C275.105 49.3398 275.027 48.9023 274.871 48.5898C274.715 48.2773 274.484 48.0586 274.18 47.9336C273.883 47.8008 273.516 47.7344 273.078 47.7344C272.625 47.7344 272.23 47.8242 271.895 48.0039C271.566 48.1836 271.293 48.4336 271.074 48.7539C270.863 49.0664 270.703 49.4336 270.594 49.8555C270.484 50.2773 270.43 50.7305 270.43 51.2148ZM284.633 45.3203V58H281.246V45.3203H284.633ZM281.035 42.0156C281.035 41.5234 281.207 41.1172 281.551 40.7969C281.895 40.4766 282.355 40.3164 282.934 40.3164C283.504 40.3164 283.961 40.4766 284.305 40.7969C284.656 41.1172 284.832 41.5234 284.832 42.0156C284.832 42.5078 284.656 42.9141 284.305 43.2344C283.961 43.5547 283.504 43.7148 282.934 43.7148C282.355 43.7148 281.895 43.5547 281.551 43.2344C281.207 42.9141 281.035 42.5078 281.035 42.0156ZM286.883 51.7891V51.543C286.883 50.6133 287.016 49.7578 287.281 48.9766C287.547 48.1875 287.934 47.5039 288.441 46.9258C288.949 46.3477 289.574 45.8984 290.316 45.5781C291.059 45.25 291.91 45.0859 292.871 45.0859C293.832 45.0859 294.688 45.25 295.438 45.5781C296.188 45.8984 296.816 46.3477 297.324 46.9258C297.84 47.5039 298.23 48.1875 298.496 48.9766C298.762 49.7578 298.895 50.6133 298.895 51.543V51.7891C298.895 52.7109 298.762 53.5664 298.496 54.3555C298.23 55.1367 297.84 55.8203 297.324 56.4062C296.816 56.9844 296.191 57.4336 295.449 57.7539C294.707 58.0742 293.855 58.2344 292.895 58.2344C291.934 58.2344 291.078 58.0742 290.328 57.7539C289.586 57.4336 288.957 56.9844 288.441 56.4062C287.934 55.8203 287.547 55.1367 287.281 54.3555C287.016 53.5664 286.883 52.7109 286.883 51.7891ZM290.258 51.543V51.7891C290.258 52.3203 290.305 52.8164 290.398 53.2773C290.492 53.7383 290.641 54.1445 290.844 54.4961C291.055 54.8398 291.328 55.1094 291.664 55.3047C292 55.5 292.41 55.5977 292.895 55.5977C293.363 55.5977 293.766 55.5 294.102 55.3047C294.438 55.1094 294.707 54.8398 294.91 54.4961C295.113 54.1445 295.262 53.7383 295.355 53.2773C295.457 52.8164 295.508 52.3203 295.508 51.7891V51.543C295.508 51.0273 295.457 50.543 295.355 50.0898C295.262 49.6289 295.109 49.2227 294.898 48.8711C294.695 48.5117 294.426 48.2305 294.09 48.0273C293.754 47.8242 293.348 47.7227 292.871 47.7227C292.395 47.7227 291.988 47.8242 291.652 48.0273C291.324 48.2305 291.055 48.5117 290.844 48.8711C290.641 49.2227 290.492 49.6289 290.398 50.0898C290.305 50.543 290.258 51.0273 290.258 51.543ZM304.273 48.0273V58H300.898V45.3203H304.062L304.273 48.0273ZM303.781 51.2148H302.867C302.867 50.2773 302.988 49.4336 303.23 48.6836C303.473 47.9258 303.812 47.2812 304.25 46.75C304.688 46.2109 305.207 45.8008 305.809 45.5195C306.418 45.2305 307.098 45.0859 307.848 45.0859C308.441 45.0859 308.984 45.1719 309.477 45.3438C309.969 45.5156 310.391 45.7891 310.742 46.1641C311.102 46.5391 311.375 47.0352 311.562 47.6523C311.758 48.2695 311.855 49.0234 311.855 49.9141V58H308.457V49.9023C308.457 49.3398 308.379 48.9023 308.223 48.5898C308.066 48.2773 307.836 48.0586 307.531 47.9336C307.234 47.8008 306.867 47.7344 306.43 47.7344C305.977 47.7344 305.582 47.8242 305.246 48.0039C304.918 48.1836 304.645 48.4336 304.426 48.7539C304.215 49.0664 304.055 49.4336 303.945 49.8555C303.836 50.2773 303.781 50.7305 303.781 51.2148Z" fill="#888888"/>
<path d="M107.205 107.146H99.251V101.191H107.205C108.289 101.191 109.168 101.008 109.842 100.642C110.516 100.275 111.006 99.77 111.314 99.1255C111.636 98.4663 111.797 97.7266 111.797 96.9062C111.797 96.0273 111.636 95.2144 111.314 94.4673C111.006 93.7202 110.516 93.1196 109.842 92.6655C109.168 92.1968 108.289 91.9624 107.205 91.9624H102.151V118H94.439V86.0078H107.205C109.769 86.0078 111.973 86.4766 113.819 87.4141C115.679 88.3516 117.107 89.6406 118.104 91.2812C119.1 92.9072 119.598 94.7676 119.598 96.8623C119.598 98.9277 119.1 100.729 118.104 102.268C117.107 103.806 115.679 105.007 113.819 105.871C111.973 106.721 109.769 107.146 107.205 107.146ZM130.87 100.114V118H123.465V94.2256H130.386L130.87 100.114ZM137.901 94.0498L137.769 100.927C137.476 100.898 137.081 100.861 136.583 100.817C136.084 100.773 135.667 100.751 135.33 100.751C134.466 100.751 133.719 100.854 133.089 101.059C132.474 101.25 131.961 101.542 131.551 101.938C131.155 102.319 130.862 102.802 130.672 103.388C130.496 103.974 130.416 104.655 130.43 105.432L129.09 104.553C129.09 102.956 129.244 101.506 129.551 100.202C129.874 98.8838 130.328 97.7485 130.914 96.7964C131.5 95.8296 132.21 95.0898 133.045 94.5771C133.88 94.0498 134.817 93.7861 135.857 93.7861C136.224 93.7861 136.583 93.8081 136.934 93.8521C137.3 93.896 137.623 93.9619 137.901 94.0498ZM138.736 106.354V105.893C138.736 104.15 138.985 102.546 139.483 101.081C139.981 99.6016 140.713 98.3198 141.68 97.2358C142.647 96.1519 143.841 95.3096 145.262 94.709C146.683 94.0938 148.323 93.7861 150.184 93.7861C152.059 93.7861 153.707 94.0938 155.127 94.709C156.563 95.3096 157.764 96.1519 158.731 97.2358C159.698 98.3198 160.43 99.6016 160.928 101.081C161.426 102.546 161.675 104.15 161.675 105.893V106.354C161.675 108.083 161.426 109.687 160.928 111.167C160.43 112.631 159.698 113.913 158.731 115.012C157.764 116.096 156.57 116.938 155.149 117.539C153.729 118.139 152.088 118.439 150.228 118.439C148.367 118.439 146.719 118.139 145.284 117.539C143.848 116.938 142.647 116.096 141.68 115.012C140.713 113.913 139.981 112.631 139.483 111.167C138.985 109.687 138.736 108.083 138.736 106.354ZM146.141 105.893V106.354C146.141 107.248 146.207 108.083 146.338 108.859C146.47 109.636 146.69 110.317 146.998 110.903C147.305 111.474 147.723 111.921 148.25 112.243C148.777 112.565 149.437 112.727 150.228 112.727C151.004 112.727 151.648 112.565 152.161 112.243C152.688 111.921 153.106 111.474 153.414 110.903C153.721 110.317 153.941 109.636 154.073 108.859C154.205 108.083 154.271 107.248 154.271 106.354V105.893C154.271 105.029 154.205 104.216 154.073 103.454C153.941 102.678 153.721 101.997 153.414 101.411C153.106 100.81 152.688 100.341 152.161 100.004C151.634 99.6675 150.975 99.499 150.184 99.499C149.407 99.499 148.755 99.6675 148.228 100.004C147.715 100.341 147.305 100.81 146.998 101.411C146.69 101.997 146.47 102.678 146.338 103.454C146.207 104.216 146.141 105.029 146.141 105.893ZM177.496 94.2256V99.3672H163.169V94.2256H177.496ZM166.18 88.3149H173.584V110.244C173.584 110.874 173.658 111.364 173.804 111.716C173.951 112.053 174.2 112.294 174.551 112.441C174.917 112.573 175.401 112.639 176.001 112.639C176.426 112.639 176.778 112.631 177.056 112.617C177.334 112.587 177.598 112.551 177.847 112.507V117.802C177.217 118.007 176.558 118.161 175.87 118.264C175.181 118.381 174.449 118.439 173.672 118.439C172.09 118.439 170.735 118.19 169.607 117.692C168.494 117.194 167.645 116.411 167.059 115.341C166.473 114.272 166.18 112.88 166.18 111.167V88.3149ZM178.858 106.354V105.893C178.858 104.15 179.107 102.546 179.605 101.081C180.103 99.6016 180.835 98.3198 181.802 97.2358C182.769 96.1519 183.963 95.3096 185.384 94.709C186.805 94.0938 188.445 93.7861 190.306 93.7861C192.181 93.7861 193.829 94.0938 195.25 94.709C196.685 95.3096 197.886 96.1519 198.853 97.2358C199.82 98.3198 200.552 99.6016 201.05 101.081C201.548 102.546 201.797 104.15 201.797 105.893V106.354C201.797 108.083 201.548 109.687 201.05 111.167C200.552 112.631 199.82 113.913 198.853 115.012C197.886 116.096 196.692 116.938 195.271 117.539C193.851 118.139 192.21 118.439 190.35 118.439C188.489 118.439 186.841 118.139 185.406 117.539C183.97 116.938 182.769 116.096 181.802 115.012C180.835 113.913 180.103 112.631 179.605 111.167C179.107 109.687 178.858 108.083 178.858 106.354ZM186.263 105.893V106.354C186.263 107.248 186.329 108.083 186.46 108.859C186.592 109.636 186.812 110.317 187.12 110.903C187.427 111.474 187.845 111.921 188.372 112.243C188.899 112.565 189.559 112.727 190.35 112.727C191.126 112.727 191.771 112.565 192.283 112.243C192.811 111.921 193.228 111.474 193.536 110.903C193.843 110.317 194.063 109.636 194.195 108.859C194.327 108.083 194.393 107.248 194.393 106.354V105.893C194.393 105.029 194.327 104.216 194.195 103.454C194.063 102.678 193.843 101.997 193.536 101.411C193.228 100.81 192.811 100.341 192.283 100.004C191.756 99.6675 191.097 99.499 190.306 99.499C189.529 99.499 188.877 99.6675 188.35 100.004C187.837 100.341 187.427 100.81 187.12 101.411C186.812 101.997 186.592 102.678 186.46 103.454C186.329 104.216 186.263 105.029 186.263 105.893ZM217.618 94.2256V99.3672H203.292V94.2256H217.618ZM206.302 88.3149H213.707V110.244C213.707 110.874 213.78 111.364 213.926 111.716C214.073 112.053 214.322 112.294 214.673 112.441C215.04 112.573 215.523 112.639 216.124 112.639C216.548 112.639 216.9 112.631 217.178 112.617C217.457 112.587 217.72 112.551 217.969 112.507V117.802C217.339 118.007 216.68 118.161 215.992 118.264C215.303 118.381 214.571 118.439 213.794 118.439C212.212 118.439 210.857 118.19 209.729 117.692C208.616 117.194 207.767 116.411 207.181 115.341C206.595 114.272 206.302 112.88 206.302 111.167V88.3149ZM227.857 115.209L234.009 94.2256H241.963L232.405 121.538C232.2 122.138 231.929 122.783 231.592 123.471C231.255 124.174 230.794 124.841 230.208 125.471C229.622 126.101 228.868 126.613 227.945 127.009C227.037 127.404 225.909 127.602 224.561 127.602C223.843 127.602 223.316 127.565 222.979 127.492C222.657 127.434 222.159 127.324 221.485 127.163V121.867C221.675 121.867 221.836 121.867 221.968 121.867C222.115 121.867 222.276 121.867 222.452 121.867C223.243 121.867 223.873 121.787 224.341 121.625C224.825 121.464 225.191 121.23 225.44 120.922C225.704 120.615 225.909 120.241 226.055 119.802L227.857 115.209ZM226.297 94.2256L230.977 110.859L231.79 118.703H226.824L218.365 94.2256H226.297ZM251.368 98.7959V127.141H243.963V94.2256H250.862L251.368 98.7959ZM265.958 105.827V106.289C265.958 108.017 265.76 109.621 265.364 111.101C264.969 112.58 264.383 113.869 263.606 114.968C262.83 116.066 261.863 116.923 260.706 117.539C259.563 118.139 258.238 118.439 256.729 118.439C255.308 118.439 254.085 118.125 253.06 117.495C252.034 116.865 251.177 115.993 250.489 114.88C249.8 113.767 249.244 112.492 248.819 111.057C248.394 109.621 248.057 108.105 247.808 106.508V105.915C248.057 104.201 248.394 102.612 248.819 101.147C249.244 99.6675 249.8 98.3784 250.489 97.2798C251.177 96.1812 252.027 95.3242 253.038 94.709C254.063 94.0938 255.286 93.7861 256.707 93.7861C258.216 93.7861 259.542 94.0718 260.684 94.6431C261.841 95.2144 262.808 96.0347 263.584 97.104C264.375 98.1587 264.969 99.4258 265.364 100.905C265.76 102.385 265.958 104.025 265.958 105.827ZM258.553 106.289V105.827C258.553 104.904 258.487 104.062 258.355 103.3C258.223 102.524 258.011 101.85 257.718 101.279C257.439 100.708 257.066 100.268 256.597 99.9604C256.128 99.6528 255.55 99.499 254.861 99.499C254.07 99.499 253.404 99.6235 252.862 99.8726C252.334 100.107 251.91 100.473 251.587 100.971C251.28 101.455 251.06 102.062 250.928 102.795C250.811 103.513 250.76 104.355 250.774 105.322V107.124C250.745 108.237 250.855 109.218 251.104 110.068C251.353 110.903 251.785 111.555 252.4 112.023C253.016 112.492 253.851 112.727 254.905 112.727C255.608 112.727 256.194 112.565 256.663 112.243C257.132 111.906 257.505 111.445 257.784 110.859C258.062 110.258 258.26 109.57 258.377 108.793C258.494 108.017 258.553 107.182 258.553 106.289ZM277.076 94.2256V118H269.649V94.2256H277.076ZM269.209 88.0952C269.209 87.0405 269.59 86.1763 270.352 85.5024C271.114 84.8286 272.103 84.4917 273.318 84.4917C274.534 84.4917 275.523 84.8286 276.285 85.5024C277.046 86.1763 277.427 87.0405 277.427 88.0952C277.427 89.1499 277.046 90.0142 276.285 90.688C275.523 91.3618 274.534 91.6987 273.318 91.6987C272.103 91.6987 271.114 91.3618 270.352 90.688C269.59 90.0142 269.209 89.1499 269.209 88.0952ZM288.919 99.3013V118H281.514V94.2256H288.458L288.919 99.3013ZM288.04 105.3L286.304 105.344C286.304 103.527 286.524 101.909 286.963 100.488C287.403 99.0522 288.025 97.8364 288.831 96.8403C289.637 95.8442 290.596 95.0898 291.709 94.5771C292.837 94.0498 294.09 93.7861 295.467 93.7861C296.565 93.7861 297.569 93.9473 298.477 94.2695C299.4 94.5918 300.191 95.1118 300.85 95.8296C301.524 96.5474 302.037 97.4995 302.388 98.686C302.754 99.8579 302.938 101.308 302.938 103.037V118H295.489V103.015C295.489 102.062 295.357 101.337 295.093 100.839C294.83 100.327 294.449 99.9751 293.951 99.7847C293.453 99.5942 292.845 99.499 292.127 99.499C291.365 99.499 290.721 99.6455 290.193 99.9385C289.666 100.231 289.241 100.642 288.919 101.169C288.611 101.682 288.384 102.29 288.238 102.993C288.106 103.696 288.04 104.465 288.04 105.3ZM321.988 94.2256H328.711V117.077C328.711 119.274 328.206 121.135 327.195 122.658C326.185 124.196 324.771 125.361 322.955 126.152C321.153 126.958 319.043 127.36 316.626 127.36C315.557 127.36 314.466 127.221 313.353 126.943C312.239 126.679 311.199 126.284 310.232 125.756C309.266 125.229 308.453 124.577 307.793 123.801L310.892 119.45C311.492 120.124 312.247 120.695 313.155 121.164C314.063 121.647 315.132 121.889 316.363 121.889C317.432 121.889 318.326 121.699 319.043 121.318C319.776 120.937 320.333 120.38 320.713 119.648C321.094 118.93 321.285 118.059 321.285 117.033V99.8506L321.988 94.2256ZM306.189 106.398V105.937C306.189 104.135 306.409 102.495 306.849 101.015C307.303 99.521 307.947 98.2393 308.782 97.1699C309.632 96.0859 310.657 95.251 311.858 94.665C313.06 94.0791 314.415 93.7861 315.923 93.7861C317.549 93.7861 318.882 94.1011 319.922 94.731C320.977 95.3462 321.819 96.2104 322.449 97.3237C323.094 98.437 323.592 99.7407 323.943 101.235C324.31 102.714 324.617 104.311 324.866 106.025V106.574C324.617 108.186 324.273 109.709 323.833 111.145C323.409 112.565 322.852 113.825 322.164 114.924C321.475 116.022 320.611 116.887 319.571 117.517C318.545 118.132 317.315 118.439 315.879 118.439C314.385 118.439 313.038 118.139 311.836 117.539C310.65 116.938 309.632 116.096 308.782 115.012C307.947 113.928 307.303 112.653 306.849 111.188C306.409 109.724 306.189 108.127 306.189 106.398ZM313.594 105.937V106.398C313.594 107.292 313.675 108.12 313.836 108.881C314.012 109.643 314.275 110.317 314.627 110.903C314.979 111.474 315.411 111.921 315.923 112.243C316.451 112.565 317.066 112.727 317.769 112.727C318.838 112.727 319.703 112.5 320.362 112.045C321.021 111.591 321.497 110.947 321.79 110.112C322.083 109.277 322.208 108.295 322.164 107.167V105.432C322.193 104.465 322.127 103.615 321.966 102.883C321.805 102.136 321.548 101.513 321.197 101.015C320.86 100.517 320.406 100.144 319.834 99.8945C319.278 99.6309 318.604 99.499 317.813 99.499C317.125 99.499 316.517 99.6602 315.989 99.9824C315.462 100.305 315.022 100.759 314.671 101.345C314.319 101.916 314.048 102.597 313.858 103.388C313.682 104.165 313.594 105.014 313.594 105.937Z" fill="#424241"/>
<path d="M1363 15C1363 6.71573 1356.28 0 1348 0H1134V167H1348C1356.28 167 1363 160.284 1363 152V15Z" fill="#1A75BC"/>
<path fill-rule="evenodd" clip-rule="evenodd" d="M1203 49C1203 47.8954 1203.9 47 1205 47H1292.5C1293.6 47 1294.5 47.8954 1294.5 49V118.996C1294.5 120.101 1293.6 120.996 1292.5 120.996H1205C1203.9 120.996 1203 120.101 1203 118.996V49ZM1207 51V55.4945H1290.5V51H1207ZM1290.5 59.4945H1235.44V116.996H1290.5V59.4945ZM1231.44 116.996V59.4945H1207V116.996H1231.44Z" fill="white"/>
<path fill-rule="evenodd" clip-rule="evenodd" d="M1209.97 64.8004C1209.97 63.6958 1210.87 62.8004 1211.97 62.8004H1225.97C1227.08 62.8004 1227.97 63.6958 1227.97 64.8004V84.1956C1227.97 85.3001 1227.08 86.1956 1225.97 86.1956H1211.97C1210.87 86.1956 1209.97 85.3001 1209.97 84.1956V64.8004ZM1213.97 66.8004V82.1956H1223.97V66.8004H1213.97ZM1239.58 65.6964C1239.58 64.5918 1240.47 63.6964 1241.58 63.6964H1284.5C1285.61 63.6964 1286.5 64.5918 1286.5 65.6964V111.905C1286.5 113.01 1285.61 113.905 1284.5 113.905H1241.58C1240.47 113.905 1239.58 113.01 1239.58 111.905V65.6964ZM1243.58 67.6964V109.905H1282.5V67.6964H1243.58ZM1209.81 95.9363C1209.81 94.8317 1210.71 93.9363 1211.81 93.9363H1220.73C1221.84 93.9363 1222.73 94.8317 1222.73 95.9363C1222.73 97.0409 1221.84 97.9363 1220.73 97.9363H1211.81C1210.71 97.9363 1209.81 97.0409 1209.81 95.9363ZM1209.81 102.936C1209.81 101.832 1210.71 100.936 1211.81 100.936H1226.35C1227.46 100.936 1228.35 101.832 1228.35 102.936C1228.35 104.041 1227.46 104.936 1226.35 104.936H1211.81C1210.71 104.936 1209.81 104.041 1209.81 102.936ZM1209.81 109.936C1209.81 108.832 1210.71 107.936 1211.81 107.936H1220.73C1221.84 107.936 1222.73 108.832 1222.73 109.936C1222.73 111.041 1221.84 111.936 1220.73 111.936H1211.81C1210.71 111.936 1209.81 111.041 1209.81 109.936Z" fill="white"/>
</svg>
