<svg width="1363" height="167" viewBox="0 0 1363 167" fill="none" xmlns="http://www.w3.org/2000/svg">
<rect width="1363" height="167" rx="15" fill="#F0F0F0"/>
<path d="M0 15C0 6.71573 6.71573 0 15 0H37V167H15C6.71573 167 0 160.284 0 152V15Z" fill="#424241"/>
<path d="M100.906 54.9219L93.3945 52.2383V49.0859L103.602 53.375V55.6367L100.906 54.9219ZM93.3945 57.1719L100.918 54.4297L103.602 53.7852V56.0352L93.3945 60.3242V57.1719ZM123.348 59.2578V62H114.266V59.2578H123.348ZM115.414 44.9375V62H111.898V44.9375H115.414ZM122.164 51.8867V54.5586H114.266V51.8867H122.164ZM123.336 44.9375V47.6914H114.266V44.9375H123.336ZM128.75 44V62H125.363V44H128.75ZM139.027 59.2344V44H142.426V62H139.367L139.027 59.2344ZM131.012 55.8125V55.5664C131.012 54.5977 131.121 53.7188 131.34 52.9297C131.559 52.1328 131.879 51.4492 132.301 50.8789C132.723 50.3086 133.242 49.8672 133.859 49.5547C134.477 49.2422 135.18 49.0859 135.969 49.0859C136.711 49.0859 137.359 49.2422 137.914 49.5547C138.477 49.8672 138.953 50.3125 139.344 50.8906C139.742 51.4609 140.062 52.1367 140.305 52.918C140.547 53.6914 140.723 54.5391 140.832 55.4609V56C140.723 56.8828 140.547 57.7031 140.305 58.4609C140.062 59.2188 139.742 59.8828 139.344 60.4531C138.953 61.0156 138.477 61.4531 137.914 61.7656C137.352 62.0781 136.695 62.2344 135.945 62.2344C135.156 62.2344 134.453 62.0742 133.836 61.7539C133.227 61.4336 132.711 60.9844 132.289 60.4062C131.875 59.8281 131.559 59.1484 131.34 58.3672C131.121 57.5859 131.012 56.7344 131.012 55.8125ZM134.387 55.5664V55.8125C134.387 56.3359 134.426 56.8242 134.504 57.2773C134.59 57.7305 134.727 58.1328 134.914 58.4844C135.109 58.8281 135.359 59.0977 135.664 59.293C135.977 59.4805 136.355 59.5742 136.801 59.5742C137.379 59.5742 137.855 59.4453 138.23 59.1875C138.605 58.9219 138.891 58.5586 139.086 58.0977C139.289 57.6367 139.406 57.1055 139.438 56.5039V54.9688C139.414 54.4766 139.344 54.0352 139.227 53.6445C139.117 53.2461 138.953 52.9062 138.734 52.625C138.523 52.3438 138.258 52.125 137.938 51.9688C137.625 51.8125 137.254 51.7344 136.824 51.7344C136.387 51.7344 136.012 51.8359 135.699 52.0391C135.387 52.2344 135.133 52.5039 134.938 52.8477C134.75 53.1914 134.609 53.5977 134.516 54.0664C134.43 54.5273 134.387 55.0273 134.387 55.5664ZM150.898 62.2344C149.914 62.2344 149.031 62.0781 148.25 61.7656C147.469 61.4453 146.805 61.0039 146.258 60.4414C145.719 59.8789 145.305 59.2266 145.016 58.4844C144.727 57.7344 144.582 56.9375 144.582 56.0938V55.625C144.582 54.6641 144.719 53.7852 144.992 52.9883C145.266 52.1914 145.656 51.5 146.164 50.9141C146.68 50.3281 147.305 49.8789 148.039 49.5664C148.773 49.2461 149.602 49.0859 150.523 49.0859C151.422 49.0859 152.219 49.2344 152.914 49.5312C153.609 49.8281 154.191 50.25 154.66 50.7969C155.137 51.3438 155.496 52 155.738 52.7656C155.98 53.5234 156.102 54.3672 156.102 55.2969V56.7031H146.023V54.4531H152.785V54.1953C152.785 53.7266 152.699 53.3086 152.527 52.9414C152.363 52.5664 152.113 52.2695 151.777 52.0508C151.441 51.832 151.012 51.7227 150.488 51.7227C150.043 51.7227 149.66 51.8203 149.34 52.0156C149.02 52.2109 148.758 52.4844 148.555 52.8359C148.359 53.1875 148.211 53.6016 148.109 54.0781C148.016 54.5469 147.969 55.0625 147.969 55.625V56.0938C147.969 56.6016 148.039 57.0703 148.18 57.5C148.328 57.9297 148.535 58.3008 148.801 58.6133C149.074 58.9258 149.402 59.168 149.785 59.3398C150.176 59.5117 150.617 59.5977 151.109 59.5977C151.719 59.5977 152.285 59.4805 152.809 59.2461C153.34 59.0039 153.797 58.6406 154.18 58.1562L155.82 59.9375C155.555 60.3203 155.191 60.6875 154.73 61.0391C154.277 61.3906 153.73 61.6797 153.09 61.9062C152.449 62.125 151.719 62.2344 150.898 62.2344ZM161.398 52.0859V62H158.023V49.3203H161.199L161.398 52.0859ZM165.219 49.2383L165.16 52.3672C164.996 52.3438 164.797 52.3242 164.562 52.3086C164.336 52.2852 164.129 52.2734 163.941 52.2734C163.465 52.2734 163.051 52.3359 162.699 52.4609C162.355 52.5781 162.066 52.7539 161.832 52.9883C161.605 53.2227 161.434 53.5078 161.316 53.8438C161.207 54.1797 161.145 54.5625 161.129 54.9922L160.449 54.7812C160.449 53.9609 160.531 53.207 160.695 52.5195C160.859 51.8242 161.098 51.2188 161.41 50.7031C161.73 50.1875 162.121 49.7891 162.582 49.5078C163.043 49.2266 163.57 49.0859 164.164 49.0859C164.352 49.0859 164.543 49.1016 164.738 49.1328C164.934 49.1562 165.094 49.1914 165.219 49.2383ZM170.375 44V62H166.988V44H170.375ZM176.926 60.5703L180.289 49.3203H183.91L178.812 63.9102C178.703 64.2305 178.555 64.5742 178.367 64.9414C178.188 65.3086 177.941 65.6562 177.629 65.9844C177.324 66.3203 176.938 66.5938 176.469 66.8047C176.008 67.0156 175.441 67.1211 174.77 67.1211C174.449 67.1211 174.188 67.1016 173.984 67.0625C173.781 67.0234 173.539 66.9688 173.258 66.8984V64.4258C173.344 64.4258 173.434 64.4258 173.527 64.4258C173.621 64.4336 173.711 64.4375 173.797 64.4375C174.242 64.4375 174.605 64.3867 174.887 64.2852C175.168 64.1836 175.395 64.0273 175.566 63.8164C175.738 63.6133 175.875 63.3477 175.977 63.0195L176.926 60.5703ZM175.52 49.3203L178.273 58.5078L178.754 62.082L176.457 62.3281L171.898 49.3203H175.52ZM201.336 56.3398H204.84C204.77 57.4883 204.453 58.5078 203.891 59.3984C203.336 60.2891 202.559 60.9844 201.559 61.4844C200.566 61.9844 199.371 62.2344 197.973 62.2344C196.879 62.2344 195.898 62.0469 195.031 61.6719C194.164 61.2891 193.422 60.7422 192.805 60.0312C192.195 59.3203 191.73 58.4609 191.41 57.4531C191.09 56.4453 190.93 55.3164 190.93 54.0664V52.8828C190.93 51.6328 191.094 50.5039 191.422 49.4961C191.758 48.4805 192.234 47.6172 192.852 46.9062C193.477 46.1953 194.223 45.6484 195.09 45.2656C195.957 44.8828 196.926 44.6914 197.996 44.6914C199.418 44.6914 200.617 44.9492 201.594 45.4648C202.578 45.9805 203.34 46.6914 203.879 47.5977C204.426 48.5039 204.754 49.5352 204.863 50.6914H201.348C201.309 50.0039 201.172 49.4219 200.938 48.9453C200.703 48.4609 200.348 48.0977 199.871 47.8555C199.402 47.6055 198.777 47.4805 197.996 47.4805C197.41 47.4805 196.898 47.5898 196.461 47.8086C196.023 48.0273 195.656 48.3594 195.359 48.8047C195.062 49.25 194.84 49.8125 194.691 50.4922C194.551 51.1641 194.48 51.9531 194.48 52.8594V54.0664C194.48 54.9492 194.547 55.7266 194.68 56.3984C194.812 57.0625 195.016 57.625 195.289 58.0859C195.57 58.5391 195.93 58.8828 196.367 59.1172C196.812 59.3438 197.348 59.457 197.973 59.457C198.707 59.457 199.312 59.3398 199.789 59.1055C200.266 58.8711 200.629 58.5234 200.879 58.0625C201.137 57.6016 201.289 57.0273 201.336 56.3398ZM206.398 55.7891V55.543C206.398 54.6133 206.531 53.7578 206.797 52.9766C207.062 52.1875 207.449 51.5039 207.957 50.9258C208.465 50.3477 209.09 49.8984 209.832 49.5781C210.574 49.25 211.426 49.0859 212.387 49.0859C213.348 49.0859 214.203 49.25 214.953 49.5781C215.703 49.8984 216.332 50.3477 216.84 50.9258C217.355 51.5039 217.746 52.1875 218.012 52.9766C218.277 53.7578 218.41 54.6133 218.41 55.543V55.7891C218.41 56.7109 218.277 57.5664 218.012 58.3555C217.746 59.1367 217.355 59.8203 216.84 60.4062C216.332 60.9844 215.707 61.4336 214.965 61.7539C214.223 62.0742 213.371 62.2344 212.41 62.2344C211.449 62.2344 210.594 62.0742 209.844 61.7539C209.102 61.4336 208.473 60.9844 207.957 60.4062C207.449 59.8203 207.062 59.1367 206.797 58.3555C206.531 57.5664 206.398 56.7109 206.398 55.7891ZM209.773 55.543V55.7891C209.773 56.3203 209.82 56.8164 209.914 57.2773C210.008 57.7383 210.156 58.1445 210.359 58.4961C210.57 58.8398 210.844 59.1094 211.18 59.3047C211.516 59.5 211.926 59.5977 212.41 59.5977C212.879 59.5977 213.281 59.5 213.617 59.3047C213.953 59.1094 214.223 58.8398 214.426 58.4961C214.629 58.1445 214.777 57.7383 214.871 57.2773C214.973 56.8164 215.023 56.3203 215.023 55.7891V55.543C215.023 55.0273 214.973 54.543 214.871 54.0898C214.777 53.6289 214.625 53.2227 214.414 52.8711C214.211 52.5117 213.941 52.2305 213.605 52.0273C213.27 51.8242 212.863 51.7227 212.387 51.7227C211.91 51.7227 211.504 51.8242 211.168 52.0273C210.84 52.2305 210.57 52.5117 210.359 52.8711C210.156 53.2227 210.008 53.6289 209.914 54.0898C209.82 54.543 209.773 55.0273 209.773 55.543ZM223.859 51.9453V62H220.473V49.3203H223.648L223.859 51.9453ZM223.391 55.2148H222.453C222.453 54.332 222.559 53.5195 222.77 52.7773C222.988 52.0273 223.305 51.3789 223.719 50.832C224.141 50.2773 224.66 49.8477 225.277 49.543C225.895 49.2383 226.609 49.0859 227.422 49.0859C227.984 49.0859 228.5 49.1719 228.969 49.3438C229.438 49.5078 229.84 49.7695 230.176 50.1289C230.52 50.4805 230.785 50.9414 230.973 51.5117C231.16 52.0742 231.254 52.75 231.254 53.5391V62H227.879V53.9141C227.879 53.3359 227.801 52.8906 227.645 52.5781C227.488 52.2656 227.266 52.0469 226.977 51.9219C226.695 51.7969 226.355 51.7344 225.957 51.7344C225.52 51.7344 225.137 51.8242 224.809 52.0039C224.488 52.1836 224.223 52.4336 224.012 52.7539C223.801 53.0664 223.645 53.4336 223.543 53.8555C223.441 54.2773 223.391 54.7305 223.391 55.2148ZM230.938 54.8281L229.73 54.9805C229.73 54.1523 229.832 53.3828 230.035 52.6719C230.246 51.9609 230.555 51.3359 230.961 50.7969C231.375 50.2578 231.887 49.8398 232.496 49.543C233.105 49.2383 233.809 49.0859 234.605 49.0859C235.215 49.0859 235.77 49.1758 236.27 49.3555C236.77 49.5273 237.195 49.8047 237.547 50.1875C237.906 50.5625 238.18 51.0547 238.367 51.6641C238.562 52.2734 238.66 53.0195 238.66 53.9023V62H235.273V53.9023C235.273 53.3164 235.195 52.8711 235.039 52.5664C234.891 52.2539 234.672 52.0391 234.383 51.9219C234.102 51.7969 233.766 51.7344 233.375 51.7344C232.969 51.7344 232.613 51.8164 232.309 51.9805C232.004 52.1367 231.75 52.3555 231.547 52.6367C231.344 52.918 231.191 53.2461 231.09 53.6211C230.988 53.9883 230.938 54.3906 230.938 54.8281ZM244.648 51.7578V66.875H241.273V49.3203H244.402L244.648 51.7578ZM252.676 55.5195V55.7656C252.676 56.6875 252.566 57.543 252.348 58.332C252.137 59.1211 251.824 59.8086 251.41 60.3945C250.996 60.9727 250.48 61.4258 249.863 61.7539C249.254 62.0742 248.551 62.2344 247.754 62.2344C246.98 62.2344 246.309 62.0781 245.738 61.7656C245.168 61.4531 244.688 61.0156 244.297 60.4531C243.914 59.8828 243.605 59.2227 243.371 58.4727C243.137 57.7227 242.957 56.918 242.832 56.0586V55.4141C242.957 54.4922 243.137 53.6484 243.371 52.8828C243.605 52.1094 243.914 51.4414 244.297 50.8789C244.688 50.3086 245.164 49.8672 245.727 49.5547C246.297 49.2422 246.965 49.0859 247.73 49.0859C248.535 49.0859 249.242 49.2383 249.852 49.543C250.469 49.8477 250.984 50.2852 251.398 50.8555C251.82 51.4258 252.137 52.1055 252.348 52.8945C252.566 53.6836 252.676 54.5586 252.676 55.5195ZM249.289 55.7656V55.5195C249.289 54.9805 249.242 54.4844 249.148 54.0312C249.062 53.5703 248.922 53.168 248.727 52.8242C248.539 52.4805 248.289 52.2148 247.977 52.0273C247.672 51.832 247.301 51.7344 246.863 51.7344C246.402 51.7344 246.008 51.8086 245.68 51.957C245.359 52.1055 245.098 52.3203 244.895 52.6016C244.691 52.8828 244.539 53.2188 244.438 53.6094C244.336 54 244.273 54.4414 244.25 54.9336V56.5625C244.289 57.1406 244.398 57.6602 244.578 58.1211C244.758 58.5742 245.035 58.9336 245.41 59.1992C245.785 59.4648 246.277 59.5977 246.887 59.5977C247.332 59.5977 247.707 59.5 248.012 59.3047C248.316 59.1016 248.562 58.8242 248.75 58.4727C248.945 58.1211 249.082 57.7148 249.16 57.2539C249.246 56.793 249.289 56.2969 249.289 55.7656ZM261.617 59.1406V53.4922C261.617 53.0859 261.551 52.7383 261.418 52.4492C261.285 52.1523 261.078 51.9219 260.797 51.7578C260.523 51.5938 260.168 51.5117 259.73 51.5117C259.355 51.5117 259.031 51.5781 258.758 51.7109C258.484 51.8359 258.273 52.0195 258.125 52.2617C257.977 52.4961 257.902 52.7734 257.902 53.0938H254.527C254.527 52.5547 254.652 52.043 254.902 51.5586C255.152 51.0742 255.516 50.6484 255.992 50.2812C256.469 49.9062 257.035 49.6133 257.691 49.4023C258.355 49.1914 259.098 49.0859 259.918 49.0859C260.902 49.0859 261.777 49.25 262.543 49.5781C263.309 49.9062 263.91 50.3984 264.348 51.0547C264.793 51.7109 265.016 52.5312 265.016 53.5156V58.9414C265.016 59.6367 265.059 60.207 265.145 60.6523C265.23 61.0898 265.355 61.4727 265.52 61.8008V62H262.109C261.945 61.6562 261.82 61.2266 261.734 60.7109C261.656 60.1875 261.617 59.6641 261.617 59.1406ZM262.062 54.2773L262.086 56.1875H260.199C259.754 56.1875 259.367 56.2383 259.039 56.3398C258.711 56.4414 258.441 56.5859 258.23 56.7734C258.02 56.9531 257.863 57.1641 257.762 57.4062C257.668 57.6484 257.621 57.9141 257.621 58.2031C257.621 58.4922 257.688 58.7539 257.82 58.9883C257.953 59.2148 258.145 59.3945 258.395 59.5273C258.645 59.6523 258.938 59.7148 259.273 59.7148C259.781 59.7148 260.223 59.6133 260.598 59.4102C260.973 59.207 261.262 58.957 261.465 58.6602C261.676 58.3633 261.785 58.082 261.793 57.8164L262.684 59.2461C262.559 59.5664 262.387 59.8984 262.168 60.2422C261.957 60.5859 261.688 60.9102 261.359 61.2148C261.031 61.5117 260.637 61.7578 260.176 61.9531C259.715 62.1406 259.168 62.2344 258.535 62.2344C257.73 62.2344 257 62.0742 256.344 61.7539C255.695 61.4258 255.18 60.9766 254.797 60.4062C254.422 59.8281 254.234 59.1719 254.234 58.4375C254.234 57.7734 254.359 57.1836 254.609 56.668C254.859 56.1523 255.227 55.7188 255.711 55.3672C256.203 55.0078 256.816 54.7383 257.551 54.5586C258.285 54.3711 259.137 54.2773 260.105 54.2773H262.062ZM270.922 52.0273V62H267.547V49.3203H270.711L270.922 52.0273ZM270.43 55.2148H269.516C269.516 54.2773 269.637 53.4336 269.879 52.6836C270.121 51.9258 270.461 51.2812 270.898 50.75C271.336 50.2109 271.855 49.8008 272.457 49.5195C273.066 49.2305 273.746 49.0859 274.496 49.0859C275.09 49.0859 275.633 49.1719 276.125 49.3438C276.617 49.5156 277.039 49.7891 277.391 50.1641C277.75 50.5391 278.023 51.0352 278.211 51.6523C278.406 52.2695 278.504 53.0234 278.504 53.9141V62H275.105V53.9023C275.105 53.3398 275.027 52.9023 274.871 52.5898C274.715 52.2773 274.484 52.0586 274.18 51.9336C273.883 51.8008 273.516 51.7344 273.078 51.7344C272.625 51.7344 272.23 51.8242 271.895 52.0039C271.566 52.1836 271.293 52.4336 271.074 52.7539C270.863 53.0664 270.703 53.4336 270.594 53.8555C270.484 54.2773 270.43 54.7305 270.43 55.2148ZM284.633 49.3203V62H281.246V49.3203H284.633ZM281.035 46.0156C281.035 45.5234 281.207 45.1172 281.551 44.7969C281.895 44.4766 282.355 44.3164 282.934 44.3164C283.504 44.3164 283.961 44.4766 284.305 44.7969C284.656 45.1172 284.832 45.5234 284.832 46.0156C284.832 46.5078 284.656 46.9141 284.305 47.2344C283.961 47.5547 283.504 47.7148 282.934 47.7148C282.355 47.7148 281.895 47.5547 281.551 47.2344C281.207 46.9141 281.035 46.5078 281.035 46.0156ZM286.883 55.7891V55.543C286.883 54.6133 287.016 53.7578 287.281 52.9766C287.547 52.1875 287.934 51.5039 288.441 50.9258C288.949 50.3477 289.574 49.8984 290.316 49.5781C291.059 49.25 291.91 49.0859 292.871 49.0859C293.832 49.0859 294.688 49.25 295.438 49.5781C296.188 49.8984 296.816 50.3477 297.324 50.9258C297.84 51.5039 298.23 52.1875 298.496 52.9766C298.762 53.7578 298.895 54.6133 298.895 55.543V55.7891C298.895 56.7109 298.762 57.5664 298.496 58.3555C298.23 59.1367 297.84 59.8203 297.324 60.4062C296.816 60.9844 296.191 61.4336 295.449 61.7539C294.707 62.0742 293.855 62.2344 292.895 62.2344C291.934 62.2344 291.078 62.0742 290.328 61.7539C289.586 61.4336 288.957 60.9844 288.441 60.4062C287.934 59.8203 287.547 59.1367 287.281 58.3555C287.016 57.5664 286.883 56.7109 286.883 55.7891ZM290.258 55.543V55.7891C290.258 56.3203 290.305 56.8164 290.398 57.2773C290.492 57.7383 290.641 58.1445 290.844 58.4961C291.055 58.8398 291.328 59.1094 291.664 59.3047C292 59.5 292.41 59.5977 292.895 59.5977C293.363 59.5977 293.766 59.5 294.102 59.3047C294.438 59.1094 294.707 58.8398 294.91 58.4961C295.113 58.1445 295.262 57.7383 295.355 57.2773C295.457 56.8164 295.508 56.3203 295.508 55.7891V55.543C295.508 55.0273 295.457 54.543 295.355 54.0898C295.262 53.6289 295.109 53.2227 294.898 52.8711C294.695 52.5117 294.426 52.2305 294.09 52.0273C293.754 51.8242 293.348 51.7227 292.871 51.7227C292.395 51.7227 291.988 51.8242 291.652 52.0273C291.324 52.2305 291.055 52.5117 290.844 52.8711C290.641 53.2227 290.492 53.6289 290.398 54.0898C290.305 54.543 290.258 55.0273 290.258 55.543ZM304.273 52.0273V62H300.898V49.3203H304.062L304.273 52.0273ZM303.781 55.2148H302.867C302.867 54.2773 302.988 53.4336 303.23 52.6836C303.473 51.9258 303.812 51.2812 304.25 50.75C304.688 50.2109 305.207 49.8008 305.809 49.5195C306.418 49.2305 307.098 49.0859 307.848 49.0859C308.441 49.0859 308.984 49.1719 309.477 49.3438C309.969 49.5156 310.391 49.7891 310.742 50.1641C311.102 50.5391 311.375 51.0352 311.562 51.6523C311.758 52.2695 311.855 53.0234 311.855 53.9141V62H308.457V53.9023C308.457 53.3398 308.379 52.9023 308.223 52.5898C308.066 52.2773 307.836 52.0586 307.531 51.9336C307.234 51.8008 306.867 51.7344 306.43 51.7344C305.977 51.7344 305.582 51.8242 305.246 52.0039C304.918 52.1836 304.645 52.4336 304.426 52.7539C304.215 53.0664 304.055 53.4336 303.945 53.8555C303.836 54.2773 303.781 54.7305 303.781 55.2148Z" fill="#888888"/>
<path d="M115.994 98.708V104.641H99.5806V98.708H115.994ZM102.151 86.0078V118H94.439V86.0078H102.151ZM121.18 86.0078V118H113.489V86.0078H121.18ZM124.805 106.354V105.893C124.805 104.15 125.054 102.546 125.552 101.081C126.05 99.6016 126.783 98.3198 127.75 97.2358C128.716 96.1519 129.91 95.3096 131.331 94.709C132.752 94.0938 134.393 93.7861 136.253 93.7861C138.128 93.7861 139.776 94.0938 141.197 94.709C142.632 95.3096 143.833 96.1519 144.8 97.2358C145.767 98.3198 146.5 99.6016 146.998 101.081C147.496 102.546 147.745 104.15 147.745 105.893V106.354C147.745 108.083 147.496 109.687 146.998 111.167C146.5 112.631 145.767 113.913 144.8 115.012C143.833 116.096 142.64 116.938 141.219 117.539C139.798 118.139 138.157 118.439 136.297 118.439C134.437 118.439 132.789 118.139 131.353 117.539C129.917 116.938 128.716 116.096 127.75 115.012C126.783 113.913 126.05 112.631 125.552 111.167C125.054 109.687 124.805 108.083 124.805 106.354ZM132.21 105.893V106.354C132.21 107.248 132.276 108.083 132.408 108.859C132.54 109.636 132.759 110.317 133.067 110.903C133.375 111.474 133.792 111.921 134.319 112.243C134.847 112.565 135.506 112.727 136.297 112.727C137.073 112.727 137.718 112.565 138.23 112.243C138.758 111.921 139.175 111.474 139.483 110.903C139.791 110.317 140.01 109.636 140.142 108.859C140.274 108.083 140.34 107.248 140.34 106.354V105.893C140.34 105.029 140.274 104.216 140.142 103.454C140.01 102.678 139.791 101.997 139.483 101.411C139.175 100.81 138.758 100.341 138.23 100.004C137.703 99.6675 137.044 99.499 136.253 99.499C135.477 99.499 134.825 99.6675 134.297 100.004C133.785 100.341 133.375 100.81 133.067 101.411C132.759 101.997 132.54 102.678 132.408 103.454C132.276 104.216 132.21 105.029 132.21 105.893ZM158.27 110.925L162.664 94.2256H167.3L165.652 102.597L161.302 118H157.588L158.27 110.925ZM156.534 94.2256L159.258 110.793L159.566 118H155.062L149.437 94.2256H156.534ZM171.211 110.441L173.958 94.2256H181.055L175.474 118H170.97L171.211 110.441ZM167.828 94.2256L172.266 110.881L172.947 118H169.19L164.927 102.641L163.345 94.2256H167.828ZM209.466 86.0078V118H201.753V86.0078H209.466ZM219.09 86.0078V91.9624H192.349V86.0078H219.09ZM216.475 106.354V105.893C216.475 104.15 216.724 102.546 217.222 101.081C217.72 99.6016 218.453 98.3198 219.419 97.2358C220.386 96.1519 221.58 95.3096 223.001 94.709C224.422 94.0938 226.062 93.7861 227.923 93.7861C229.798 93.7861 231.446 94.0938 232.867 94.709C234.302 95.3096 235.503 96.1519 236.47 97.2358C237.437 98.3198 238.169 99.6016 238.667 101.081C239.166 102.546 239.415 104.15 239.415 105.893V106.354C239.415 108.083 239.166 109.687 238.667 111.167C238.169 112.631 237.437 113.913 236.47 115.012C235.503 116.096 234.31 116.938 232.889 117.539C231.468 118.139 229.827 118.439 227.967 118.439C226.106 118.439 224.458 118.139 223.023 117.539C221.587 116.938 220.386 116.096 219.419 115.012C218.453 113.913 217.72 112.631 217.222 111.167C216.724 109.687 216.475 108.083 216.475 106.354ZM223.88 105.893V106.354C223.88 107.248 223.946 108.083 224.078 108.859C224.209 109.636 224.429 110.317 224.737 110.903C225.044 111.474 225.462 111.921 225.989 112.243C226.517 112.565 227.176 112.727 227.967 112.727C228.743 112.727 229.388 112.565 229.9 112.243C230.428 111.921 230.845 111.474 231.153 110.903C231.46 110.317 231.68 109.636 231.812 108.859C231.944 108.083 232.01 107.248 232.01 106.354V105.893C232.01 105.029 231.944 104.216 231.812 103.454C231.68 102.678 231.46 101.997 231.153 101.411C230.845 100.81 230.428 100.341 229.9 100.004C229.373 99.6675 228.714 99.499 227.923 99.499C227.146 99.499 226.495 99.6675 225.967 100.004C225.455 100.341 225.044 100.81 224.737 101.411C224.429 101.997 224.209 102.678 224.078 103.454C223.946 104.216 223.88 105.029 223.88 105.893ZM254.268 86.0078H266.858C269.319 86.0078 271.458 86.374 273.274 87.1064C275.091 87.8389 276.49 88.9229 277.471 90.3584C278.467 91.7939 278.965 93.5664 278.965 95.6758C278.965 97.5068 278.68 99.0376 278.108 100.268C277.537 101.499 276.739 102.517 275.713 103.322C274.703 104.113 273.523 104.765 272.176 105.278L269.649 106.706H259.08L259.036 100.751H266.858C267.84 100.751 268.653 100.576 269.297 100.224C269.942 99.8726 270.425 99.3745 270.748 98.73C271.084 98.0708 271.253 97.2871 271.253 96.3789C271.253 95.4561 271.084 94.665 270.748 94.0059C270.411 93.3467 269.913 92.8413 269.253 92.4897C268.609 92.1382 267.811 91.9624 266.858 91.9624H261.98V118H254.268V86.0078ZM271.78 118L264.705 103.85L272.879 103.806L280.042 117.67V118H271.78ZM297.159 112.221V94.2256H304.585V118H297.642L297.159 112.221ZM297.862 107.387L299.795 107.343C299.795 108.94 299.605 110.419 299.224 111.782C298.843 113.129 298.279 114.301 297.532 115.297C296.8 116.293 295.892 117.07 294.808 117.626C293.738 118.168 292.5 118.439 291.094 118.439C289.922 118.439 288.846 118.278 287.864 117.956C286.897 117.619 286.062 117.099 285.359 116.396C284.656 115.678 284.107 114.763 283.711 113.649C283.331 112.521 283.14 111.174 283.14 109.606V94.2256H290.545V109.65C290.545 110.178 290.611 110.632 290.743 111.013C290.875 111.394 291.065 111.716 291.314 111.979C291.563 112.229 291.871 112.419 292.237 112.551C292.618 112.668 293.05 112.727 293.533 112.727C294.646 112.727 295.518 112.492 296.148 112.023C296.778 111.555 297.217 110.917 297.466 110.112C297.73 109.306 297.862 108.398 297.862 107.387ZM315.945 99.3013V118H308.541V94.2256H315.484L315.945 99.3013ZM315.066 105.3L313.331 105.344C313.331 103.527 313.55 101.909 313.99 100.488C314.429 99.0522 315.052 97.8364 315.857 96.8403C316.663 95.8442 317.623 95.0898 318.736 94.5771C319.864 94.0498 321.116 93.7861 322.493 93.7861C323.592 93.7861 324.595 93.9473 325.503 94.2695C326.426 94.5918 327.217 95.1118 327.876 95.8296C328.55 96.5474 329.063 97.4995 329.415 98.686C329.781 99.8579 329.964 101.308 329.964 103.037V118H322.515V103.015C322.515 102.062 322.383 101.337 322.12 100.839C321.856 100.327 321.475 99.9751 320.977 99.7847C320.479 99.5942 319.871 99.499 319.153 99.499C318.392 99.499 317.747 99.6455 317.22 99.9385C316.692 100.231 316.268 100.642 315.945 101.169C315.638 101.682 315.411 102.29 315.264 102.993C315.132 103.696 315.066 104.465 315.066 105.3ZM345.85 107.871H339.544C339.544 106.582 339.632 105.446 339.808 104.465C339.998 103.469 340.32 102.575 340.774 101.784C341.229 100.993 341.844 100.261 342.62 99.5869C343.309 99.0156 343.902 98.4663 344.4 97.939C344.898 97.4116 345.279 96.877 345.542 96.335C345.806 95.793 345.938 95.2144 345.938 94.5991C345.938 93.8374 345.828 93.2148 345.608 92.7314C345.403 92.248 345.088 91.8892 344.664 91.6548C344.253 91.4058 343.733 91.2812 343.104 91.2812C342.591 91.2812 342.107 91.4058 341.653 91.6548C341.214 91.9038 340.855 92.292 340.577 92.8193C340.298 93.332 340.145 94.0132 340.115 94.8628H332.667C332.71 92.6802 333.194 90.9077 334.117 89.5454C335.054 88.1685 336.299 87.165 337.852 86.5352C339.419 85.8906 341.17 85.5684 343.104 85.5684C345.242 85.5684 347.081 85.8979 348.619 86.5571C350.157 87.2163 351.336 88.1978 352.156 89.5015C352.977 90.7905 353.387 92.3799 353.387 94.2695C353.387 95.5293 353.145 96.6279 352.662 97.5654C352.193 98.4883 351.556 99.3525 350.75 100.158C349.959 100.949 349.073 101.799 348.091 102.707C347.242 103.454 346.663 104.216 346.355 104.992C346.048 105.754 345.879 106.713 345.85 107.871ZM338.643 114.55C338.643 113.496 339.024 112.617 339.786 111.914C340.547 111.196 341.536 110.837 342.752 110.837C343.968 110.837 344.957 111.196 345.718 111.914C346.48 112.617 346.861 113.496 346.861 114.55C346.861 115.605 346.48 116.491 345.718 117.209C344.957 117.912 343.968 118.264 342.752 118.264C341.536 118.264 340.547 117.912 339.786 117.209C339.024 116.491 338.643 115.605 338.643 114.55Z" fill="#424241"/>
<path d="M1363 15C1363 6.71573 1356.28 0 1348 0H1134V167H1348C1356.28 167 1363 160.284 1363 152V15Z" fill="#1A75BC"/>
<path d="M1260.77 81.3079C1263.96 81.3079 1267.09 82.2553 1269.74 84.0303C1272.4 85.8053 1274.47 88.3282 1275.69 91.2799C1276.92 94.2316 1277.24 97.4796 1276.61 100.613C1275.99 103.747 1274.45 106.625 1272.19 108.884C1269.93 111.143 1267.05 112.682 1263.92 113.305C1260.79 113.928 1257.54 113.608 1254.59 112.386C1251.64 111.163 1249.11 109.093 1247.34 106.436C1245.56 103.78 1244.62 100.657 1244.62 97.4617C1244.62 93.1774 1246.32 89.0686 1249.35 86.0392C1252.38 83.0098 1256.48 81.3079 1260.77 81.3079ZM1260.77 75.9233C1256.51 75.9233 1252.35 77.1865 1248.8 79.5532C1245.26 81.9198 1242.5 85.2837 1240.87 89.2193C1239.24 93.1549 1238.81 97.4856 1239.64 101.664C1240.48 105.842 1242.53 109.679 1245.54 112.692C1248.55 115.704 1252.39 117.755 1256.57 118.586C1260.75 119.417 1265.08 118.991 1269.01 117.361C1272.95 115.73 1276.31 112.97 1278.68 109.428C1281.04 105.886 1282.31 101.722 1282.31 97.4617C1282.31 91.7493 1280.04 86.271 1276 82.2317C1271.96 78.1925 1266.48 75.9233 1260.77 75.9233Z" fill="white"/>
<path d="M1274.23 49H1220.38C1218.96 49 1217.59 49.5673 1216.58 50.5771C1215.57 51.5869 1215 52.9565 1215 54.3846V108.231C1215 109.659 1215.57 111.028 1216.58 112.038C1217.59 113.048 1218.96 113.615 1220.38 113.615H1231.15V108.231H1220.38V70.5384H1279.62V54.3846C1279.62 52.9565 1279.05 51.5869 1278.04 50.5771C1277.03 49.5673 1275.66 49 1274.23 49ZM1220.38 65.1538V54.3846H1274.23V65.1538H1220.38Z" fill="white"/>
<path d="M1255.38 89.3849V105.539L1268.85 97.4618L1255.38 89.3849Z" fill="white"/>
</svg>
